<svg xmlns="http://www.w3.org/2000/svg" width="85.791" height="88" viewBox="0 0 85.791 88">
  <g id="Grupo_1180066" data-name="Grupo 1180066" transform="translate(-270 -2152.793)">
    <g id="Grupo_1179544" data-name="Grupo 1179544" transform="translate(270 2152.793)">
      <ellipse id="Elipse_13615" data-name="Elipse 13615" cx="42.896" cy="44" rx="42.896" ry="44" fill="#8e3b0f"/>
    </g>
    <g id="Grupo_1179674" data-name="Grupo 1179674" transform="translate(282.463 2159.92)">
      <path id="Trazado_996608" data-name="Trazado 996608" d="M133.138,74.917h-2.121c0-.908-.036-1.762.024-2.609a1.135,1.135,0,0,1,.5-.655c3.424-2.47,6.838-4.954,10.3-7.369a4.372,4.372,0,0,1,5.306-.022c3.468,2.4,6.881,4.89,10.292,7.377a1.641,1.641,0,0,1,.535,1.034,18.7,18.7,0,0,1,.024,2.2H155.8c0,.8-.034,1.481.021,2.16.016.194.258.423.451.537,1.263.746,2.524,1.5,3.829,2.164a1.47,1.47,0,0,0,1.12-.114c1.846-.879,1.839-.9,3.288.584,1.287,1.317,2.554,2.654,3.868,3.942.441.433.646.83.241,1.357-.987,1.282-.739,2.387.129,3.7a22.3,22.3,0,0,1,3.149,8c.22,1.116.727,1.657,1.687,1.792,1.163.165,1.393.8,1.344,1.9-.092,2.094-.05,4.2-.012,6.293.012.637-.145,1.044-.787,1.112-1.578.167-2.107,1.178-2.416,2.668a23.685,23.685,0,0,1-3.415,8.1,1.805,1.805,0,0,0-.088,2.135c.812,1.476.764,1.5-.4,2.694-1.4,1.433-2.823,2.85-4.2,4.312-.416.443-.807.56-1.261.2-1.26-1-2.334-.752-3.635.127a22.72,22.72,0,0,1-8.185,3.314,1.483,1.483,0,0,0-1.276,1.236c-.47,1.744-.514,1.731-2.249,1.731h-6.668a10.573,10.573,0,0,1-.543-1.6,1.592,1.592,0,0,0-1.468-1.418,25.488,25.488,0,0,1-9.016-3.842,1.211,1.211,0,0,0-1.578-.1c-.288.209-.642.32-.945.511a.972.972,0,0,1-1.436-.2c-1.549-1.658-3.152-3.264-4.756-4.868-.4-.4-.611-.77-.224-1.275,1-1.307.742-2.445-.136-3.787a22.936,22.936,0,0,1-3.142-8.005c-.215-1.045-.662-1.605-1.623-1.738-1.109-.154-1.452-.716-1.392-1.873.108-2.092.061-4.2.013-6.292-.016-.689.166-1.06.842-1.164a2.567,2.567,0,0,0,2.315-2.407,23.8,23.8,0,0,1,3.7-8.724c.449-.676.142-1.1-.1-1.613-.786-1.661-.792-1.659.465-2.946,1.356-1.388,2.733-2.753,4.057-4.172.439-.471.856-.615,1.335-.218a2.447,2.447,0,0,0,3.524-.136,7.6,7.6,0,0,1,1.351-.785C133.337,77.218,133.339,77.221,133.138,74.917Zm22.806,4.971c-.4,2.251-.33,2.424,1.2,3.406a24.48,24.48,0,0,1,9.783,28.166c-4.611,13.517-18.952,20.046-31.826,14.49-12.265-5.293-17.8-20.637-11.868-32.815a24.206,24.206,0,0,1,9.185-10.193,1.634,1.634,0,0,0,.753-.881,13.449,13.449,0,0,0,.035-2.26c-1.441.917-2.683,1.729-3.952,2.494a1.32,1.32,0,0,1-.937.177c-.7-.2-1.428-.842-2.015-.708-.62.142-1.09.977-1.623,1.511-.232.233-.458.472-.687.708-1.212,1.242-1.248,1.262-.454,2.78a1.311,1.311,0,0,1-.106,1.6,24.889,24.889,0,0,0-4.364,10.455c-.21,1.252-.719,1.8-1.823,1.985-.743.125-.992.564-.931,1.33.066.827.015,1.664.015,2.5,0,1.756-.007,1.781,1.635,2.274a1.23,1.23,0,0,1,.988,1.15,25.188,25.188,0,0,0,4.248,10.714,1.827,1.827,0,0,1,.127,2.375c-.093.135-.151.294-.238.434a.837.837,0,0,0,.185,1.211c.7.644,1.339,1.356,2.005,2.038,1.134,1.161,1.153,1.194,2.552.4a1.3,1.3,0,0,1,1.649.082,22.993,22.993,0,0,0,9.828,4.348c1.4.238,2.25.774,2.416,2.248.069.608.442.7.964.691,1.136-.03,2.276-.061,3.408.009.751.046,1.166-.185,1.269-.962.16-1.209.821-1.7,2.027-1.9a21.9,21.9,0,0,0,9.377-3.929c1.145-.839,2.057-1.062,3.161-.187.5.4.848.214,1.235-.213a23.391,23.391,0,0,1,2.145-2.175c.783-.665,1.007-1.31.336-2.167-.629-.8-.417-1.481.148-2.283a24.724,24.724,0,0,0,4.166-10.222c.188-1.111.58-1.662,1.622-1.814.9-.131,1.211-.667,1.111-1.6a23.469,23.469,0,0,1-.019-2.5c0-1.552,0-1.566-1.453-2.016-.62-.192-1.057-.4-1.179-1.207A25.2,25.2,0,0,0,165.8,88.715c-.553-.795-.8-1.462-.169-2.284a5.842,5.842,0,0,0,.284-.522.843.843,0,0,0-.192-1.211q-1.358-1.286-2.62-2.678a.781.781,0,0,0-1.178-.166c-.27.18-.605.26-.865.451a1.087,1.087,0,0,1-1.474-.075C158.433,81.406,157.2,80.688,155.944,79.888Zm-11.4,24.979a10.349,10.349,0,1,0-10.176-10.345A10.21,10.21,0,0,0,144.547,104.867Zm-8.95-29.9v9.043c1.526.664,2.512-.46,3.682-.934a1.061,1.061,0,0,0,.758-1.185c-.048-1.519-.016-3.04-.016-4.567h8.963c0,1.3.078,2.532-.022,3.751a1.98,1.98,0,0,0,1.351,2.331c1.022.439,1.929,1.054,3.1.637V74.964Zm-12.422,27.579H134.9a13.375,13.375,0,0,1-2.793-9.132c-2.1,0-4.138-.02-6.174.029-.216.005-.494.371-.622.633A21,21,0,0,0,123.174,102.543Zm42.646.036a21.2,21.2,0,0,0-2.151-8.546c-.125-.238-.359-.588-.548-.592-2.065-.043-4.131-.027-6.245-.027a13.569,13.569,0,0,1-2.754,9.164Zm-30.092,6.885c-.084-1.616-.16-3.063-.237-4.537H123.213a20.749,20.749,0,0,0,2.269,8.816.632.632,0,0,0,.426.332c1.473.025,2.946.015,4.318.015l-.427-4.626ZM154.9,72.613c-3.124-2.238-6.018-4.321-8.923-6.387a2.484,2.484,0,0,0-3.159.134c-2.651,1.918-5.317,3.814-7.974,5.724a7.537,7.537,0,0,0-.583.529ZM145.789,116.4a56.991,56.991,0,0,0,6.1-.057,9.326,9.326,0,0,0,3.709-1.319,7.24,7.24,0,0,0,3.4-5.339,44.444,44.444,0,0,0-7.152.073A7.463,7.463,0,0,0,145.789,116.4Zm13.963-2.3a8.83,8.83,0,0,1,1.485.012c1.706.339,2.568-.445,3.1-2.073a23.268,23.268,0,0,0,1.446-7.114H153.508v2.318h7.882A11.867,11.867,0,0,1,159.753,114.1Zm-8.513-8.947a12.274,12.274,0,0,1-6.743,2.056,12.5,12.5,0,0,1-6.75-2.057c.113,1.608.187,2.987.33,4.359.02.192.356.423.59.508a10.659,10.659,0,0,1,4.854,3.535,5.024,5.024,0,0,0,.469.458,10.447,10.447,0,0,1,6.553-6.365,1.012,1.012,0,0,0,.586-.616A13.47,13.47,0,0,0,151.24,105.158Zm-18.978,6.7c.882,5.528,5.694,7.7,10.991,6.681a8.056,8.056,0,0,0-3.55-5.467C137.4,111.5,134.816,111.845,132.261,111.853Zm16.972,13.157c3.942-.334,10.861-5.018,12.5-8.582-1.29,0-2.547-.019-3.8.016a1.543,1.543,0,0,0-.78.336,10.59,10.59,0,0,1-4.854,1.9,1.216,1.216,0,0,0-.794.643C150.714,121.205,149.983,123.114,149.234,125.01Zm-9.226.129c-.623-1.3-1.145-2.475-1.747-3.6a1.808,1.808,0,0,0-.909-.84,10.611,10.611,0,0,1-5.389-3.716,1.249,1.249,0,0,0-.736-.528c-1.311-.053-2.625-.025-4.141-.025A21.478,21.478,0,0,0,140.007,125.139Zm21.915-34.125a20.991,20.991,0,0,0-6.072-5.8l-.111,1.286H154.3l2.269,4.512Zm-34.807-.022h5.314l2.327-4.567h-1.508c-.03-.4-.055-.745-.09-1.213A20.636,20.636,0,0,0,127.115,90.992Zm18.589,34.3a14.145,14.145,0,0,0,3.545-6.491H145.7Zm.994-43.356V79.619h-4.412v2.316Zm-3.727,43.246.3-.195V121.1H140.34Z" transform="translate(-114.068 -63.376)" fill="#fff"/>
      <path id="Trazado_996609" data-name="Trazado 996609" d="M257.652,194.92H255.4a4.531,4.531,0,0,1-.058-.689c.072-1.05.034-1.936-1.089-2.562a2.419,2.419,0,0,1-1.05-2.482c.571,0,1.121-.035,1.663.018a.879.879,0,0,1,.57.377c.349.555.791,1.005,1.417.634a1.6,1.6,0,0,0,.73-1.133c-.009-.711-.576-1.019-1.274-1.1a3.2,3.2,0,0,1-3.1-3.759,3.913,3.913,0,0,1,1.273-2.32,1.884,1.884,0,0,0,.863-1.868c-.033-.36-.005-.726-.005-1.245h2.268a6.61,6.61,0,0,1,.04.858,2.139,2.139,0,0,0,1.037,2.377,2.516,2.516,0,0,1,1.1,2.561c-.574,0-1.123.035-1.664-.018a.872.872,0,0,1-.561-.384c-.343-.555-.776-1.019-1.407-.66a1.6,1.6,0,0,0-.75,1.124c0,.711.56,1.032,1.26,1.114,2.115.25,3.415,1.7,3.121,3.739a3.818,3.818,0,0,1-1.259,2.324,1.945,1.945,0,0,0-.877,1.971C257.677,194.153,257.652,194.513,257.652,194.92Z" transform="translate(-226.06 -155.724)" fill="#fff"/>
    </g>
  </g>
</svg>
