<svg id="Grupo_1179940" data-name="Grupo 1179940" xmlns="http://www.w3.org/2000/svg" width="461.981" height="497.843" viewBox="0 0 461.981 497.843">
  <g id="Grupo_1179915" data-name="Grupo 1179915" transform="translate(0 82.738)">
    <g id="Grupo_1179910" data-name="Grupo 1179910" transform="translate(189.423 365.928)">
      <path id="Trazado_996885" data-name="Trazado 996885" d="M220.057,272.324l1.457,6.227h13.227L233.5,262.159l-1.957-12.56.712-20.224H208.316L210.54,249.6,203.489,262.9c-7.852,1.7-13.768,8.409-13.768,8.409l-.445,7.238h26.851Z" transform="translate(-189.276 -229.375)" fill="#eb9147"/>
      <path id="Trazado_996886" data-name="Trazado 996886" d="M216.128,273.148l3.928-6.227,1.457,6.227h13.228L233.5,256.756l-21,9.154H189.722l-.444,7.239Z" transform="translate(-189.276 -223.972)" fill="#945b2d"/>
      <path id="Trazado_996887" data-name="Trazado 996887" d="M212.487,266.425a.578.578,0,0,1-.53-.45c-1.426-4.874-6.93-7.093-6.985-7.115a.708.708,0,0,1-.358-.849.548.548,0,0,1,.71-.428,15.347,15.347,0,0,1,3.216,1.868,11.9,11.9,0,0,1,4.478,6.08.712.712,0,0,1-.345.857A.478.478,0,0,1,212.487,266.425Z" transform="translate(-189.264 -223.816)" fill="#945b2d"/>
      <path id="Trazado_996888" data-name="Trazado 996888" d="M222.081,264.237a.48.48,0,0,1-.07-.005.658.658,0,0,1-.488-.75,26.166,26.166,0,0,1,4.3-11.7,23.227,23.227,0,0,1,3.534-4.239.5.5,0,0,1,.786.143.762.762,0,0,1-.119.94h0a22.489,22.489,0,0,0-3.345,4.028,24.679,24.679,0,0,0-4.041,10.992A.608.608,0,0,1,222.081,264.237Z" transform="translate(-189.251 -225.815)" fill="#945b2d"/>
    </g>
    <g id="Grupo_1179911" data-name="Grupo 1179911" transform="translate(266.011 365.928)">
      <path id="Trazado_996889" data-name="Trazado 996889" d="M280.489,272.324l-1.457,6.227H265.8l1.246-16.393,1.958-12.56-3.182-20.224H289.76l.246,20.224,7.051,13.306c7.852,1.7,13.768,8.409,13.768,8.409l.445,7.238H284.419Z" transform="translate(-265.805 -229.375)" fill="#eb9147"/>
      <path id="Trazado_996890" data-name="Trazado 996890" d="M284.417,273.148l-3.928-6.227-1.457,6.227H265.8l1.245-16.393,21,9.154h22.777l.445,7.239Z" transform="translate(-265.805 -223.972)" fill="#945b2d"/>
      <path id="Trazado_996891" data-name="Trazado 996891" d="M288.031,266.425a.478.478,0,0,1-.186-.038.712.712,0,0,1-.345-.857,11.9,11.9,0,0,1,4.478-6.08,15.347,15.347,0,0,1,3.216-1.868.548.548,0,0,1,.71.428.708.708,0,0,1-.357.849h0c-.055.022-5.563,2.253-6.986,7.115A.578.578,0,0,1,288.031,266.425Z" transform="translate(-265.788 -223.816)" fill="#945b2d"/>
      <path id="Trazado_996892" data-name="Trazado 996892" d="M278.438,264.237a.608.608,0,0,1-.557-.589,24.683,24.683,0,0,0-4.063-11.024,22.307,22.307,0,0,0-3.323-4,.762.762,0,0,1-.119-.94.5.5,0,0,1,.786-.143,23.227,23.227,0,0,1,3.534,4.239,26.167,26.167,0,0,1,4.3,11.7.658.658,0,0,1-.488.75A.479.479,0,0,1,278.438,264.237Z" transform="translate(-265.801 -225.815)" fill="#945b2d"/>
    </g>
    <path id="Trazado_996893" data-name="Trazado 996893" d="M223.3-71.1c-7.874-5.109-20.086,3.752-14.547,18.761-5.205,6.306-4.192,13.731-1.4,17-1.155,3.218-3.024,4.473-5.375,4.852a1.813,1.813,0,0,0-1.165,2.5c4.311,10.68,18.7,10.089,19.079-5.6,3.136-.958,5.078-6.067,5.078-6.067Z" transform="translate(0.156 76.975)" fill="#214a35"/>
    <path id="Trazado_996894" data-name="Trazado 996894" d="M215.055-50.174a21.576,21.576,0,0,0,7.257,14.562A15.853,15.853,0,0,0,224.964-40l-1.637-30.754C217.4-66.589,214.32-58.667,215.055-50.174Z" transform="translate(0.167 77.33)" fill="#19294f"/>
    <ellipse id="Elipse_13650" data-name="Elipse 13650" cx="3.904" cy="4.671" rx="3.904" ry="4.671" transform="translate(216.005 6.765)" fill="#fff"/>
    <path id="Trazado_996895" data-name="Trazado 996895" d="M234.1-75.745c12.011-2.235,21.693,2.874,17.163,18.1,2.233,5.216-6.676,16.924-6.676,16.924L227.1-34.985a21.513,21.513,0,0,1-10.89-17.131C215.151-64.419,222.088-75.532,234.1-75.745Z" transform="translate(0.168 76.246)" fill="#214a35"/>
    <path id="Trazado_996896" data-name="Trazado 996896" d="M193.149,3.44c-4.406,0-4.533-11.936-4.533-11.936h9.75S199.316,3.44,193.149,3.44Z" transform="translate(0.147 89.615)" fill="#19294f"/>
    <path id="Trazado_996897" data-name="Trazado 996897" d="M194.709-29.313H167.617s-8.808-6.206-23.355-3.652-39.9,8.143-39.9,8.143l-32.881,2.7a2.254,2.254,0,0,0-1.789,2.647h0a2.093,2.093,0,0,0,1.922,1.995h10.66l-.152,2.12c-.27,3.768,1.438,7.342,4.289,8.976h0L87.478-5a2.47,2.47,0,0,0,3.569.524l5.305-4.134s5.138,1.278,8.542-2.795L197.246.326Z" transform="translate(0.054 84.665)" fill="#eb7144"/>
    <path id="Trazado_996898" data-name="Trazado 996898" d="M87.088-8.942a.538.538,0,0,1-.456-.279.761.761,0,0,1,.127-.938l2.971-2.562a2.76,2.76,0,0,0,.874-1.572l.079-.407a3.02,3.02,0,0,0-.768-2.687L88.665-18.61a2.04,2.04,0,0,0-1.419-.6h-3.8a.625.625,0,0,1-.562-.672.625.625,0,0,1,.562-.672h3.8a3.059,3.059,0,0,1,2.129.906l1.251,1.222A4.533,4.533,0,0,1,91.778-14.4l-.079.406a4.141,4.141,0,0,1-1.312,2.359L87.416-9.069A.5.5,0,0,1,87.088-8.942Z" transform="translate(0.064 87.235)" fill="#19294f"/>
    <path id="Trazado_996899" data-name="Trazado 996899" d="M89.337-11.5a.507.507,0,0,1-.36-.157A9.884,9.884,0,0,1,86.4-15.616a4.3,4.3,0,0,1-.222-1.818l1.1.249s0,0,0-.015c0,.019-.192,1.9,2.414,4.51a.766.766,0,0,1,.071.947A.529.529,0,0,1,89.337-11.5Z" transform="translate(0.067 87.851)" fill="#19294f"/>
    <path id="Trazado_996900" data-name="Trazado 996900" d="M109.544-25.772,103.416-24.6a1.351,1.351,0,0,1-1.49-1.292h0a1.546,1.546,0,0,1,1.08-1.783l6.128-1.172a1.351,1.351,0,0,1,1.49,1.292h0A1.546,1.546,0,0,1,109.544-25.772Z" transform="translate(0.079 85.596)" fill="#19294f"/>
    <rect id="Rectángulo_455309" data-name="Rectángulo 455309" width="4.418" height="14.302" transform="translate(104.832 59.752)" fill="#19294f"/>
    <path id="Trazado_996901" data-name="Trazado 996901" d="M261.465-31.12H247.888l1.194-9.885a5.407,5.407,0,0,1,1.434-3.079,3.822,3.822,0,0,1,2.734-1.272H259.4a3.032,3.032,0,0,1,2.5,1.315,4.5,4.5,0,0,1,.737,3.2Zm-12.474-1.143h11.646l1.056-8.741a3.222,3.222,0,0,0-.513-2.288,2.146,2.146,0,0,0-1.775-.92h-6.156a3.639,3.639,0,0,0-3.222,3.371Z" transform="translate(0.193 82.342)" fill="#19294f"/>
    <path id="Trazado_996902" data-name="Trazado 996902" d="M259.175,66.763H218.163c-4.244,0-7.508-4.491-6.916-9.52l10.266-87.352c.484-4.125,3.435-7.192,6.916-7.192h41.012c4.244,0,7.508,4.491,6.916,9.52L266.092,59.571C265.607,63.7,262.657,66.763,259.175,66.763Z" transform="translate(0.164 83.931)" fill="#19294f"/>
    <path id="Trazado_996903" data-name="Trazado 996903" d="M265.78,66.763H224.768c-4.244,0-7.508-4.491-6.916-9.52l10.266-87.352c.484-4.125,3.435-7.192,6.916-7.192h41.012c4.244,0,7.508,4.491,6.916,9.52L272.7,59.571C272.212,63.7,269.262,66.763,265.78,66.763Z" transform="translate(0.169 83.931)" fill="#19294f"/>
    <path id="Trazado_996904" data-name="Trazado 996904" d="M255.918,33.166l2.891,11.469c10.01,14.131,20.747,43.031,23.652,118.074,9.778,12.71,5.518,37.681,5.518,37.681a64.134,64.134,0,0,1,3.527,37.043s9.876,30.656-.533,30.656H257.743c-3.737,0-3.87-5.748-.267-10.059-2.669-9.74-4.308-14.849-2.621-26.026-7.255-11.177-8.323-26.026-6.454-37.522L230.25,91.338l6.539,159.667c4.27,6.546,2.669,17.085-2.4,17.085H207.162c-8.675,0-12.945-10.059-8.408-24.27-10.143-16.286-6.273-31.614-3.47-40.077-8.808-18.2-2.269-36.884-2.269-36.884s-6.673-38.48-5.338-67.7S202.284,43.6,202.284,43.6l2.343-10.431h51.291Z" transform="translate(0.146 97.836)" fill="#2d6dbd"/>
    <path id="Trazado_996905" data-name="Trazado 996905" d="M255.907,33.166H204.615L202.272,43.6s-.112.223-.311.638H258.7Z" transform="translate(0.157 97.836)" fill="#80a872"/>
    <path id="Línea_3592" data-name="Línea 3592" d="M0,87.344a.475.475,0,0,1-.08-.007.663.663,0,0,1-.477-.76L9.737.016a.588.588,0,0,1,.635-.571.663.663,0,0,1,.477.76L.557,86.766A.606.606,0,0,1,0,87.344Z" transform="translate(266.943 50.973)" fill="#2d6dbd"/>
    <path id="Trazado_996906" data-name="Trazado 996906" d="M257.218-30.016h0a30.308,30.308,0,0,1,17.321,11.245L292.612,4.241,274.3,27.486,261.741,13.914l-4.525,24.429,1.585,1.9a5.034,5.034,0,0,1,1.039,3.847h0a4,4,0,0,1-3.678,3.752H205.747c-2.386,0-4.249-2.469-4.005-5.309h0a4.958,4.958,0,0,1,2.007-3.689l2.609-1.784,1.138-10.6a28.475,28.475,0,0,0-1.638-13.06l-2.169-5.723H193.145c2.136,0,1.468-25.429,1.468-37.7h62.6Z" transform="translate(0.15 85.369)" fill="#eb9147"/>
    <path id="Trazado_996907" data-name="Trazado 996907" d="M243.3-42.889l2.091,13.677-15.3,12.082-3.069-25.095Z" transform="translate(0.176 82.829)" fill="#eb7144"/>
    <path id="Trazado_996908" data-name="Trazado 996908" d="M244.331-37.3s5.183,1.159,7.652,5.709a11.261,11.261,0,0,1,8.917,6.308s-17.659,8.622-30.338,9.34c0,0-9.342-5.269-15.614-13.332a43.28,43.28,0,0,1,9.342-3.672,11.151,11.151,0,0,1,3.717-2.359L230.7-21.773s10.344-7.657,14.514-9.776Z" transform="translate(0.167 83.931)" fill="#fa2d50"/>
    <path id="Línea_3593" data-name="Línea 3593" d="M0,7.089a.559.559,0,0,1-.5-.367.74.74,0,0,1,.245-.9L10.088-.488a.522.522,0,0,1,.756.294.74.74,0,0,1-.245.9L.256,7.016A.487.487,0,0,1,0,7.089Z" transform="translate(236.668 57.658)" fill="#19294f"/>
    <path id="Línea_3594" data-name="Línea 3594" d="M3.07,7.529a.555.555,0,0,1-.494-.351L-.493.432A.744.744,0,0,1-.268-.48a.518.518,0,0,1,.762.269L3.563,6.535a.744.744,0,0,1-.225.912A.489.489,0,0,1,3.07,7.529Z" transform="translate(224.123 54.065)" fill="#19294f"/>
    <path id="Trazado_996909" data-name="Trazado 996909" d="M233.086-21.175l4.984,5.693a20.247,20.247,0,0,1,4.763,12.17l.462,8.216L238.509,1.62c-4.622-3.173-7.558-8.962-7.775-15.332l-.185-5.413Z" transform="translate(0.179 87.113)" fill="#fa2d50"/>
    <path id="Línea_3595" data-name="Línea 3595" d="M5.273,13.4a.56.56,0,0,1-.5-.372L-.5.411a.738.738,0,0,1,.251-.9A.523.523,0,0,1,.5-.19L5.775,12.424a.739.739,0,0,1-.251.9A.486.486,0,0,1,5.273,13.4Z" transform="translate(234.265 71.709)" fill="#19294f"/>
    <path id="Trazado_996910" data-name="Trazado 996910" d="M229.609-18.341,225.466-8.235a9.326,9.326,0,0,1-4.876,5.18L211.1.926,214.738-10.5a9.967,9.967,0,0,1,3.894-5.356l8.4-5.523Z" transform="translate(0.164 87.074)" fill="#fa2d50"/>
    <path id="Línea_3596" data-name="Línea 3596" d="M0,11.242a.515.515,0,0,1-.389-.188A.769.769,0,0,1-.4,10.1L8-.355A.5.5,0,0,1,8.8-.374a.769.769,0,0,1,.015.951L.405,11.035A.52.52,0,0,1,0,11.242Z" transform="translate(217.25 69.952)" fill="#19294f"/>
    <path id="Trazado_996911" data-name="Trazado 996911" d="M230.651-42.184s2.536,9.9,13.924,7.662L243.3-42.889Z" transform="translate(0.179 82.829)" fill="#19294f"/>
    <path id="Trazado_996912" data-name="Trazado 996912" d="M219.144-32.241l-6.854,14.58A37.554,37.554,0,0,0,203.682,5.3s-2.847-6.493-.445-16.924a68.571,68.571,0,0,1,5.035-14.207,9.156,9.156,0,0,1,5.257-4.864A43.131,43.131,0,0,1,219.144-32.241Z" transform="translate(0.157 84.93)" fill="#2d6dbd"/>
    <path id="Línea_3597" data-name="Línea 3597" d="M0,54.423l-.041,0a.437.437,0,0,1-.332-.5L4.565.025a.4.4,0,0,1,.414-.4.437.437,0,0,1,.332.5L.373,54.023A.407.407,0,0,1,0,54.423Z" transform="translate(224.123 75.218)" fill="#fff"/>
    <path id="Trazado_996913" data-name="Trazado 996913" d="M229.551,88.563a.594.594,0,0,1-.547-.521l-1.868-9.686a.8.8,0,0,1-.014-.18l1.2-33.636a.613.613,0,0,1,.585-.643.636.636,0,0,1,.537.7l-1.2,33.545,1.851,9.6a.686.686,0,0,1-.421.806A.477.477,0,0,1,229.551,88.563Z" transform="translate(0.176 99.953)" fill="#19294f"/>
    <path id="Línea_3598" data-name="Línea 3598" d="M0,1.421A.622.622,0,0,1-.561.76.629.629,0,0,1-.009.077L32.746-.561A.62.62,0,0,1,33.317.1a.629.629,0,0,1-.553.683L.01,1.421Z" transform="translate(212.645 177.622)" fill="#19294f"/>
    <path id="Línea_3599" data-name="Línea 3599" d="M0,2.805a.613.613,0,0,1-.559-.615.648.648,0,0,1,.512-.727L19.616-.559a.6.6,0,0,1,.608.612.648.648,0,0,1-.512.727L.049,2.8Z" transform="translate(219.674 181.666)" fill="#19294f"/>
    <path id="Trazado_996914" data-name="Trazado 996914" d="M227.941,71.836a.48.48,0,0,1-.2-.043l-.271-.121c-4.47-2-7.273-7.367-6.816-13.049l1.134-14.12a.6.6,0,0,1,.613-.6.651.651,0,0,1,.506.733l-1.134,14.12c-.408,5.078,2.1,9.873,6.091,11.661l.271.121a.717.717,0,0,1,.33.865A.575.575,0,0,1,227.941,71.836Z" transform="translate(0.171 99.953)" fill="#19294f"/>
    <path id="Trazado_996915" data-name="Trazado 996915" d="M194.878,66.734a.589.589,0,0,1-.542-.5.7.7,0,0,1,.4-.824c4.516-1.462,7.838-5.252,9.873-11.266a35.261,35.261,0,0,0,1.724-8.762.612.612,0,0,1,.588-.639.637.637,0,0,1,.535.7,36.185,36.185,0,0,1-1.792,9.165,23.766,23.766,0,0,1-3.709,7.134,14.4,14.4,0,0,1-6.925,4.963A.477.477,0,0,1,194.878,66.734Z" transform="translate(0.151 100.121)" fill="#19294f"/>
    <path id="Trazado_996916" data-name="Trazado 996916" d="M232.361,43.872H219.616l1.134-8.857h11.611Z" transform="translate(0.171 98.201)" fill="#19294f"/>
    <g id="Grupo_1179912" data-name="Grupo 1179912" transform="translate(203.631 132.544)">
      <path id="Línea_3600" data-name="Línea 3600" d="M52.76.783H0A.625.625,0,0,1-.561.111.625.625,0,0,1,0-.561H52.76a.625.625,0,0,1,.562.672A.625.625,0,0,1,52.76.783Z" transform="translate(0.561 9.418)" fill="#19294f"/>
      <path id="Línea_3601" data-name="Línea 3601" d="M.667,11.555a.615.615,0,0,1-.56-.623L-.56.16A.645.645,0,0,1-.041-.56a.6.6,0,0,1,.6.621l.668,10.772a.645.645,0,0,1-.519.72Z" transform="translate(36.837 0.562)" fill="#19294f"/>
      <path id="Línea_3602" data-name="Línea 3602" d="M.667,11.555a.615.615,0,0,1-.56-.623L-.56.16A.645.645,0,0,1-.041-.56a.6.6,0,0,1,.6.621l.668,10.772a.645.645,0,0,1-.519.72Z" transform="translate(39.667 0.562)" fill="#19294f"/>
      <path id="Línea_3603" data-name="Línea 3603" d="M0,11.02A.476.476,0,0,1-.124,11a.684.684,0,0,1-.424-.8L1.388-.037A.568.568,0,0,1,2.06-.545a.684.684,0,0,1,.424.8L.548,10.5A.594.594,0,0,1,0,11.02Z" transform="translate(5.144 0.562)" fill="#19294f"/>
      <path id="Línea_3604" data-name="Línea 3604" d="M0,11.02A.476.476,0,0,1-.124,11a.684.684,0,0,1-.424-.8L1.388-.037A.568.568,0,0,1,2.06-.545a.684.684,0,0,1,.424.8L.548,10.5A.594.594,0,0,1,0,11.02Z" transform="translate(7.71 0.562)" fill="#19294f"/>
    </g>
    <path id="Trazado_996917" data-name="Trazado 996917" d="M209.193,176.147a.564.564,0,0,1-.509-.387.734.734,0,0,1,.27-.894,25.863,25.863,0,0,0,10.8-12.505,30.843,30.843,0,0,0,2.232-7.734.589.589,0,0,1,.633-.575.661.661,0,0,1,.481.756,31.743,31.743,0,0,1-2.325,8.12,30.233,30.233,0,0,1-4.131,6.984,24.705,24.705,0,0,1-7.207,6.171A.485.485,0,0,1,209.193,176.147Z" transform="translate(0.162 121.689)" fill="#19294f"/>
    <path id="Línea_3605" data-name="Línea 3605" d="M0,18.666a.5.5,0,0,1-.34-.138.763.763,0,0,1-.106-.942L10.941-.3a.5.5,0,0,1,.787-.127.763.763,0,0,1,.106.942L.447,18.4A.535.535,0,0,1,0,18.666Z" transform="translate(214.158 306.419)" fill="#19294f"/>
    <path id="Trazado_996918" data-name="Trazado 996918" d="M210.081,222.272a.622.622,0,0,1-.562-.661.629.629,0,0,1,.553-.683,16.75,16.75,0,0,0,5.831-1.49,16.933,16.933,0,0,0,8.973-9.62.526.526,0,0,1,.748-.321.734.734,0,0,1,.268.895,19.286,19.286,0,0,1-4.42,6.79,17.857,17.857,0,0,1-5.21,3.532,17.367,17.367,0,0,1-6.171,1.559Z" transform="translate(0.163 132.618)" fill="#19294f"/>
    <path id="Trazado_996919" data-name="Trazado 996919" d="M263.778,170.62a.621.621,0,0,1-.561-.654.632.632,0,0,1,.547-.69c5.24-.17,9.37-3.392,12.277-9.576a36.217,36.217,0,0,0,2.842-9.441.584.584,0,0,1,.642-.56.666.666,0,0,1,.469.767,37.1,37.1,0,0,1-2.957,9.858,21.179,21.179,0,0,1-4.92,6.923,12.862,12.862,0,0,1-8.322,3.373Z" transform="translate(0.205 120.829)" fill="#19294f"/>
    <path id="Línea_3606" data-name="Línea 3606" d="M14.057,14.834a.507.507,0,0,1-.36-.156L-.36.627A.766.766,0,0,1-.431-.32.5.5,0,0,1,.361-.405L14.418,13.645a.766.766,0,0,1,.071.947A.529.529,0,0,1,14.057,14.834Z" transform="translate(257.754 304.93)" fill="#19294f"/>
    <path id="Trazado_996920" data-name="Trazado 996920" d="M281,227.94a16.583,16.583,0,0,1-5.316-.862,18.62,18.62,0,0,1-6.485-3.867,23.568,23.568,0,0,1-5.109-6.548.749.749,0,0,1,.2-.919.515.515,0,0,1,.768.245,22.7,22.7,0,0,0,4.847,6.178,16.183,16.183,0,0,0,14.766,4.035.58.58,0,0,1,.651.546.672.672,0,0,1-.456.778A18.829,18.829,0,0,1,281,227.94Z" transform="translate(0.205 133.846)" fill="#19294f"/>
    <path id="Trazado_996921" data-name="Trazado 996921" d="M232.373,227.507l3.215,7.308a1.885,1.885,0,0,1-1.393,2.742,12.775,12.775,0,0,0-3.491.568c-4.337,1.278-6.806.32-9.876-.638s-7.207,1.038-10.41.638c-2.017-.251-3.636-1.1-5.442-1.222-1.245-.083-1.93-1.76-1.2-2.967l3.9-6.428Z" transform="translate(0.158 136.184)" fill="#2d6dbd"/>
    <path id="Trazado_996922" data-name="Trazado 996922" d="M265.048,227.507l-3.215,7.308a1.885,1.885,0,0,0,1.393,2.742,12.775,12.775,0,0,1,3.491.568c4.337,1.278,6.806.32,9.876-.638s7.207,1.038,10.41.638c2.017-.251,3.636-1.1,5.442-1.222,1.245-.083,1.93-1.76,1.2-2.967l-3.9-6.428Z" transform="translate(0.203 136.184)" fill="#2d6dbd"/>
    <g id="Grupo_1179913" data-name="Grupo 1179913" transform="translate(249.413 89.611)">
      <path id="Trazado_996923" data-name="Trazado 996923" d="M274.259,21.84l8.167,8.337-16.325,22-4.8-3.012a4.47,4.47,0,0,0-4.823-.017L250.417,52.9a2.878,2.878,0,0,0-1.091,3.165l2.478,9.223a2.243,2.243,0,0,0,2.346,1.824l6.881-.886,2.5,1.358c1.917,1.043,4.183.18,5.244-2h0s22-14.8,32.15-21.449c13.092-8.569,10.156-24.695-8.353-45.545Z" transform="translate(-249.219 1.404)" fill="#eb7144"/>
      <path id="Línea_3607" data-name="Línea 3607" d="M0,4.951a.568.568,0,0,1-.517-.407.727.727,0,0,1,.295-.883L7.889-.507a.532.532,0,0,1,.738.352.727.727,0,0,1-.295.883L.222,4.9A.482.482,0,0,1,0,4.951Z" transform="translate(2.169 53.732)" fill="#19294f"/>
      <path id="Línea_3608" data-name="Línea 3608" d="M0,4.336A.579.579,0,0,1-.53,3.884a.712.712,0,0,1,.346-.856L8.359-.524a.545.545,0,0,1,.715.414.712.712,0,0,1-.346.856L.185,4.3A.479.479,0,0,1,0,4.336Z" transform="translate(2.868 58.099)" fill="#19294f"/>
      <path id="Línea_3609" data-name="Línea 3609" d="M0,3.683A.585.585,0,0,1-.539,3.2a.7.7,0,0,1,.381-.835l8.241-2.9a.554.554,0,0,1,.7.455A.7.7,0,0,1,8.4.756L.159,3.656A.477.477,0,0,1,0,3.683Z" transform="translate(3.837 62.504)" fill="#19294f"/>
    </g>
    <path id="Trazado_996924" data-name="Trazado 996924" d="M266.281-31S249.218,7.48,269.255,31.145l-1.513,12.872s-9.027-11.522-14.72-30.035C246.816-6.2,258.76-31,258.76-31h7.521Z" transform="translate(0.195 85.175)" fill="#2d6dbd"/>
    <path id="Trazado_996925" data-name="Trazado 996925" d="M266.274-29.756,269.7-37.3H258.933l-.178,7.546Z" transform="translate(0.201 83.931)" fill="#2d6dbd"/>
    <ellipse id="Elipse_13651" data-name="Elipse 13651" cx="4.237" cy="4.591" rx="4.237" ry="4.591" transform="translate(226.406 61.348)" fill="#19294f"/>
    <path id="Trazado_996926" data-name="Trazado 996926" d="M236.225-71.005a42.36,42.36,0,0,1,8.81,5.684,4.384,4.384,0,0,1,1.32,3,59.724,59.724,0,0,0,1.08,8.566c1.134,5.588,3.855,21.743-12.545,20.517a11.691,11.691,0,0,1-7.874-3.433V-48.331s2.469-6.387,2.469-11.256C229.486-59.589,234.824-62.223,236.225-71.005Z" transform="translate(0.176 77.281)" fill="#eb7144"/>
    <ellipse id="Elipse_13652" data-name="Elipse 13652" cx="2.961" cy="3.543" rx="2.961" ry="3.543" transform="translate(231.046 28.238)" fill="#db3c18"/>
    <path id="Trazado_996927" data-name="Trazado 996927" d="M228.99-51.15,225.7-53.389c-1.636-1.115-3.72-.3-4.491,1.753h0a4.179,4.179,0,0,0,1.5,4.992l5.614,3.318Z" transform="translate(0.172 80.658)" fill="#eb7144"/>
    <path id="Trazado_996928" data-name="Trazado 996928" d="M228.692-47.508a.51.51,0,0,1-.37-.166c-2.755-2.883-5.557-2.185-5.584-2.177a.569.569,0,0,1-.67-.511.683.683,0,0,1,.427-.8c.137-.036,3.389-.848,6.567,2.478a.767.767,0,0,1,.053.949A.526.526,0,0,1,228.692-47.508Z" transform="translate(0.173 81.173)" fill="#19294f"/>
    <ellipse id="Elipse_13653" data-name="Elipse 13653" cx="1.476" cy="1.766" rx="1.476" ry="1.766" transform="translate(232.531 22.762)" fill="#19294f"/>
    <ellipse id="Elipse_13654" data-name="Elipse 13654" cx="1.476" cy="1.766" rx="1.476" ry="1.766" transform="translate(242.207 19.449)" fill="#19294f"/>
    <path id="Trazado_996929" data-name="Trazado 996929" d="M239.218-49.916a.593.593,0,0,1-.546-.517.687.687,0,0,1,.417-.809l1.854-.527a.462.462,0,0,0,.3-.328.579.579,0,0,0-.07-.479l-1.13-1.681a3.592,3.592,0,0,1-.567-1.544l-.38-3a.665.665,0,0,1,.471-.765.586.586,0,0,1,.64.564l.38,3a2.1,2.1,0,0,0,.332.9l1.13,1.681a2.131,2.131,0,0,1,.258,1.758,1.676,1.676,0,0,1-1.105,1.2l-1.855.527A.476.476,0,0,1,239.218-49.916Z" transform="translate(0.185 79.536)" fill="#19294f"/>
    <path id="Trazado_996930" data-name="Trazado 996930" d="M235.685-50.086l8.453-.836s.3,9.593-3.61,9.723S235.685-50.086,235.685-50.086Z" transform="translate(0.183 81.243)" fill="#19294f"/>
    <path id="Trazado_996931" data-name="Trazado 996931" d="M240.526-41.907c1.807-.061,2.709-2.143,3.163-4.364a10.285,10.285,0,0,0-3.387-.987,9.733,9.733,0,0,0-3.86.3C237.133-44.52,238.378-41.835,240.526-41.907Z" transform="translate(0.184 81.953)" fill="#b52d2d"/>
    <g id="Grupo_1179914" data-name="Grupo 1179914" transform="translate(0 14.753)">
      <path id="Trazado_996932" data-name="Trazado 996932" transform="translate(0 76.539)" fill="#214a35"/>
      <path id="Trazado_996933" data-name="Trazado 996933" d="M241.747-60.393l-1.122-1.983c.282-.228,2.815-2.207,4.9-1.324l-.668,2.257C243.955-61.823,242.372-60.9,241.747-60.393Z" transform="translate(0.187 63.925)" fill="#214a35"/>
    </g>
    <path id="Trazado_996934" data-name="Trazado 996934" d="M226.413-59.832a.37.37,0,0,1-.328-.229.5.5,0,0,1,.144-.611,17.243,17.243,0,0,0,5.759-7.392,23.434,23.434,0,0,0,1.479-4.513.38.38,0,0,1,.449-.339.457.457,0,0,1,.283.537,24.09,24.09,0,0,1-1.546,4.733,18.089,18.089,0,0,1-6.056,7.757A.327.327,0,0,1,226.413-59.832Z" transform="translate(0.176 76.901)" fill="#fff"/>
    <path id="Trazado_996935" data-name="Trazado 996935" d="M222.617-59.832a.374.374,0,0,1-.335-.246.494.494,0,0,1,.165-.6c2.86-1.733,4.83-4.874,5.979-7.2a28.479,28.479,0,0,0,1.84-4.729.367.367,0,0,1,.471-.293.471.471,0,0,1,.245.563,28.892,28.892,0,0,1-1.9,4.9c-1.2,2.44-3.269,5.733-6.3,7.567A.325.325,0,0,1,222.617-59.832Z" transform="translate(0.173 76.901)" fill="#fff"/>
    <path id="Trazado_996936" data-name="Trazado 996936" d="M222.617-63.385a.36.36,0,0,1-.306-.188.508.508,0,0,1,.087-.626c3.053-2.61,4.062-7.288,4.071-7.335a.376.376,0,0,1,.455-.326.461.461,0,0,1,.273.545c-.043.2-1.088,5.048-4.363,7.847A.334.334,0,0,1,222.617-63.385Z" transform="translate(0.173 77.109)" fill="#fff"/>
    <path id="Trazado_996937" data-name="Trazado 996937" d="M249.73-57.68a.318.318,0,0,1-.056-.005.444.444,0,0,1-.315-.511c.625-4.967.042-8.736-1.733-11.2-1.875-2.606-5.132-3.873-9.958-3.873a.417.417,0,0,1-.375-.449.417.417,0,0,1,.375-.449,18.239,18.239,0,0,1,5.733.784,9.344,9.344,0,0,1,4.794,3.4,11.454,11.454,0,0,1,1.887,4.761,24.429,24.429,0,0,1,.019,7.161A.4.4,0,0,1,249.73-57.68Z" transform="translate(0.184 76.656)" fill="#fff"/>
    <path id="Línea_3610" data-name="Línea 3610" d="M22.983.783H0A.625.625,0,0,1-.561.111.625.625,0,0,1,0-.561H22.983a.625.625,0,0,1,.562.672A.625.625,0,0,1,22.983.783Z" transform="translate(208.464 365.816)" fill="#19294f"/>
    <path id="Línea_3611" data-name="Línea 3611" d="M21.374.783H0A.625.625,0,0,1-.561.111.625.625,0,0,1,0-.561H21.374a.625.625,0,0,1,.562.672A.625.625,0,0,1,21.374.783Z" transform="translate(267.369 365.816)" fill="#19294f"/>
  </g>
  <g id="Grupo_1179919" data-name="Grupo 1179919" transform="translate(115.799 22.761)">
    <path id="Trazado_996938" data-name="Trazado 996938" d="M209.654-29.171,196.12-57.138a58.428,58.428,0,0,0,3.193-19.188c0-27.621-18.716-50.012-41.8-50.012s-41.8,22.391-41.8,50.012,18.716,50.012,41.8,50.012c10.118,0,19.4-4.3,26.627-11.458Z" transform="translate(-115.709 126.339)" fill="#fac14e"/>
    <g id="Grupo_1179918" data-name="Grupo 1179918" transform="translate(12.915 12.566)">
      <path id="Trazado_996939" data-name="Trazado 996939" d="M133.116-90.689V-53h48.762v-34.27Z" transform="translate(-128.611 120.807)" fill="#69300a"/>
      <g id="Grupo_1179916" data-name="Grupo 1179916">
        <path id="Trazado_996940" data-name="Trazado 996940" d="M176.037-115.821l-36.007,6.772-6.914,23.323,38.453-7.233,6.087-20.531C178.03-114.75,177.141-116.028,176.037-115.821Z" transform="translate(-128.611 115.844)" fill="#19294f"/>
        <path id="Trazado_996941" data-name="Trazado 996941" d="M133.119-86.845c-7.534-5.3-5.875-23.32,6.914-23.323Z" transform="translate(-128.614 116.963)" fill="#69300a"/>
        <path id="Trazado_996942" data-name="Trazado 996942" d="M171.543-92.419a.491.491,0,0,1-.284-.093c-2.819-1.983-4.6-5.8-4.77-10.2a17,17,0,0,1,.993-6.461,12.742,12.742,0,0,1,3.561-5.292.505.505,0,0,1,.784.154.761.761,0,0,1-.129.938c-2.723,2.338-4.25,6.3-4.086,10.6.15,3.95,1.727,7.354,4.217,9.105a.75.75,0,0,1,.2.92A.551.551,0,0,1,171.543-92.419Z" transform="translate(-128.585 116.09)" fill="#fa2d50"/>
      </g>
      <path id="Trazado_996943" data-name="Trazado 996943" d="M182.209-86.08l-38.453,7.232L133.116-89.5,171.57-96.73Z" transform="translate(-128.611 119.615)" fill="#19294f"/>
      <path id="Línea_3612" data-name="Línea 3612" d="M0,22.474A.625.625,0,0,1-.561,21.8V.111A.625.625,0,0,1,0-.561.625.625,0,0,1,.562.111V21.8A.625.625,0,0,1,0,22.474Z" transform="translate(15.145 43.428)" fill="#19294f"/>
      <g id="Grupo_1179917" data-name="Grupo 1179917" transform="translate(9.96 12.033)">
        <path id="Trazado_996944" data-name="Trazado 996944" d="M175.945-103.656,165.77-105.74c-1.659-.34-3.234.994-3.519,2.979l-.88,6.142-2.048-.419c-1.659-.34-3.235.994-3.519,2.979l0,.012-1.157-6.019c-.377-1.962-2.013-3.188-3.654-2.737l-10.06,2.768a3.718,3.718,0,0,0-2.288,4.371l3.212,16.71,1.892,1.894,32.35-6.085,2.334-16.3A3.634,3.634,0,0,0,175.945-103.656Z" transform="translate(-138.567 105.793)" fill="#eb8938"/>
        <path id="Línea_3613" data-name="Línea 3613" d="M0,12.41A.317.317,0,0,1-.063,12.4a.448.448,0,0,1-.307-.518L1.332,0a.388.388,0,0,1,.433-.367A.448.448,0,0,1,2.072.15L.37,12.037A.4.4,0,0,1,0,12.41Z" transform="translate(15.339 13.043)" fill="#fac14e"/>
        <path id="Trazado_996945" data-name="Trazado 996945" d="M171.007-85.041a.319.319,0,0,1-.061-.006.447.447,0,0,1-.309-.516l1-7.311A2.452,2.452,0,0,0,170-95.695l-7.385-1.694a.451.451,0,0,1-.3-.526.385.385,0,0,1,.439-.356l7.385,1.694a2.808,2.808,0,0,1,1.776,1.378,3.873,3.873,0,0,1,.468,2.47l-1,7.311A.4.4,0,0,1,171.007-85.041Z" transform="translate(-138.548 107.276)" fill="#fac14e"/>
        <path id="Línea_3614" data-name="Línea 3614" d="M3.849,18.722a.4.4,0,0,1-.364-.339L-.364.184A.461.461,0,0,1-.092-.361a.376.376,0,0,1,.456.325l3.849,18.2a.461.461,0,0,1-.272.545A.318.318,0,0,1,3.849,18.722Z" transform="translate(2.492 7.982)" fill="#fff"/>
        <path id="Línea_3615" data-name="Línea 3615" d="M0,8.252a.317.317,0,0,1-.068-.007.45.45,0,0,1-.3-.522L.811-.007a.386.386,0,0,1,.437-.361.45.45,0,0,1,.3.522L.369,7.883A.4.4,0,0,1,0,8.252Z" transform="translate(29.625 14.293)" fill="#fff"/>
      </g>
    </g>
  </g>
  <g id="Grupo_1179939" data-name="Grupo 1179939" transform="translate(276.307)">
    <g id="Grupo_1179922" data-name="Grupo 1179922" transform="translate(87.873)">
      <path id="Trazado_996946" data-name="Trazado 996946" d="M419.349-138.692C395.96-138.692,377-116.007,377-88.025a59.046,59.046,0,0,0,3.6,20.455L363.9-44.652l24.62-8.657c7.724,9.814,18.676,15.951,30.831,15.951,23.389,0,42.35-22.685,42.35-50.668S442.739-138.692,419.349-138.692Z" transform="translate(-363.897 146.663)" fill="#fac14e"/>
      <path id="Trazado_996947" data-name="Trazado 996947" d="M457.052-115.634,410.577-81.577a13.429,13.429,0,0,1-13.811,1.5l-19.667-9.1a59.745,59.745,0,0,0,.935,7.736l14.7,6.8c2.1.973,2.362,4.407.44,5.815L368.7-50.892l19.81-6.965c.073.093.151.18.225.272l37.385-27.4a13.451,13.451,0,0,1,12.6-1.986l21.5,7.609a59.357,59.357,0,0,0,1.106-6.713l-16.873-5.971c-2.262-.8-2.661-4.428-.649-5.9l15.507-11.364A56.243,56.243,0,0,0,457.052-115.634Z" transform="translate(-363.893 151.212)" fill="#2d6dbd"/>
      <path id="Trazado_996948" data-name="Trazado 996948" d="M444.626-81.91a23.722,23.722,0,0,0-22.178,3.376l-28.2,20.381a37.755,37.755,0,0,0,25.076,9.866c16.9,0,31.487-11.85,38.281-28.982Z" transform="translate(-363.873 157.594)" fill="#6da859"/>
      <path id="Trazado_996949" data-name="Trazado 996949" d="M419.339-138.692c-21.282,0-38.892,18.784-41.893,43.249l8.275,3.763a30.414,30.414,0,0,0,30.992-3.4l35.07-25.5C444.015-131.649,432.367-138.692,419.339-138.692Z" transform="translate(-363.887 146.663)" fill="#6da859"/>
      <g id="Grupo_1179921" data-name="Grupo 1179921" transform="translate(36.689)">
        <g id="Grupo_1179920" data-name="Grupo 1179920">
          <path id="Trazado_996950" data-name="Trazado 996950" d="M418.733-145.349c-17.3,0-22.844,23.578-14.055,35.592,5.167,7.064,10.348,18.023,12.719,23.306a1.41,1.41,0,0,0,2.672,0c2.371-5.283,7.552-16.242,12.719-23.306C441.577-121.772,436.038-145.349,418.733-145.349Z" transform="translate(-400.558 145.349)" fill="#69300a"/>
          <ellipse id="Elipse_13655" data-name="Elipse 13655" cx="6.846" cy="8.191" rx="6.846" ry="8.191" transform="translate(11.329 13.576)" fill="#fff"/>
        </g>
        <ellipse id="Elipse_13656" data-name="Elipse 13656" cx="13.613" cy="4.63" rx="13.613" ry="4.63" transform="translate(4.562 61.898)" fill="#fff"/>
      </g>
    </g>
    <g id="Grupo_1179938" data-name="Grupo 1179938" transform="translate(0 52.822)">
      <path id="Trazado_996951" data-name="Trazado 996951" d="M351.942-86.427l9.5,2.192c2.868.662,4.745,3.979,4.193,7.41h0c-.54,3.364-3.221,5.6-6.047,5.053l-11.823-2.3Z" transform="translate(-276.037 104.154)" fill="#69300a"/>
      <path id="Trazado_996952" data-name="Trazado 996952" d="M335.955,235.952v20.437a106.946,106.946,0,0,1,1.779,12.028l-45.2.851h0a11.363,11.363,0,0,1,6.751-8.624l7.395-2.765L313,250.749v-14.8h22.955Z" transform="translate(-276.079 167.767)" fill="#945b2d"/>
      <path id="Trazado_996953" data-name="Trazado 996953" d="M313.79,265.825a.618.618,0,0,1-.561-.639c-.246-5.963-5.606-9.38-5.661-9.413a.742.742,0,0,1-.238-.907.52.52,0,0,1,.758-.285,14.718,14.718,0,0,1,3.013,2.7,12.818,12.818,0,0,1,3.25,7.843.638.638,0,0,1-.533.7Z" transform="translate(-276.068 171.428)" fill="#fff"/>
      <path id="Trazado_996954" data-name="Trazado 996954" d="M325.965,266.019a.475.475,0,0,1-.133-.019.688.688,0,0,1-.414-.812,17.148,17.148,0,0,1,4.884-8.9,15.745,15.745,0,0,1,3.633-2.709.534.534,0,0,1,.733.366.724.724,0,0,1-.305.877h0a14.971,14.971,0,0,0-3.379,2.535,15.8,15.8,0,0,0-4.474,8.149A.592.592,0,0,1,325.965,266.019Z" transform="translate(-276.054 171.235)" fill="#fff"/>
      <path id="Trazado_996955" data-name="Trazado 996955" d="M322.077,266.6l2.373,4.258a1.936,1.936,0,0,0,1.662,1.064h13.76l-.356-8.942-49.023.958v7.984h28.2a2,2,0,0,0,1.8-1.361Z" transform="translate(-276.081 173.1)" fill="#fff"/>
      <path id="Trazado_996956" data-name="Trazado 996956" d="M368.015,236.4l1.8,18.78s-1.8,9.747-1.8,13.047l42.439,1.6h0c-.485-4.966-3.412-9.1-7.426-10.493l-5.04-1.748-5.864-6.6L390.968,236.4Z" transform="translate(-276.021 167.855)" fill="#945b2d"/>
      <path id="Trazado_996957" data-name="Trazado 996957" d="M386.951,266.176a.476.476,0,0,1-.1-.01.671.671,0,0,1-.458-.777,12.875,12.875,0,0,1,2.136-5.463,15.5,15.5,0,0,1,3.423-3.554,17.777,17.777,0,0,1,4.572-2.55.556.556,0,0,1,.694.463.7.7,0,0,1-.386.83h0a17.059,17.059,0,0,0-4.3,2.41,12.273,12.273,0,0,0-5.03,8.093A.6.6,0,0,1,386.951,266.176Z" transform="translate(-276.007 171.289)" fill="#fff"/>
      <path id="Trazado_996958" data-name="Trazado 996958" d="M376.817,265.859a.61.61,0,0,1-.558-.6c-.64-7.083-5.786-12.231-5.837-12.282a.766.766,0,0,1-.076-.946.5.5,0,0,1,.791-.091,22.4,22.4,0,0,1,2.858,3.688,21.8,21.8,0,0,1,3.382,9.487.654.654,0,0,1-.5.741A.476.476,0,0,1,376.817,265.859Z" transform="translate(-276.019 170.892)" fill="#fff"/>
      <path id="Trazado_996959" data-name="Trazado 996959" d="M366.338,262.979v8.942h10.156a2.819,2.819,0,0,0,2.571-2.093l1.393-4.227,2.085,4.592a2.736,2.736,0,0,0,2.428,1.728h27.24v-7.344Z" transform="translate(-276.022 173.101)" fill="#fff"/>
      <path id="Trazado_996960" data-name="Trazado 996960" d="M379.28,45.635l18.764,216.056h-36.87L337.19,95.1l3.477,166.586h-35.41L297.77,92.3a141.947,141.947,0,0,1,2.543-33.773l2.452-12.391Z" transform="translate(-276.075 130.213)" fill="#eb9147"/>
      <g id="Grupo_1179923" data-name="Grupo 1179923" transform="translate(24.185 175.491)">
        <path id="Línea_3616" data-name="Línea 3616" d="M21,216.334a.609.609,0,0,1-.557-.594L-.558.189A.656.656,0,0,1-.065-.557a.594.594,0,0,1,.623.59l21,215.551a.656.656,0,0,1-.493.746A.473.473,0,0,1,21,216.334Z" transform="translate(70.121 0.752)" fill="#19294f"/>
        <path id="Trazado_996961" data-name="Trazado 996961" d="M337.159,95.8a.609.609,0,0,1-.558-.6l-.9-9.41a.811.811,0,0,1,0-.1l1.15-39.555a.614.614,0,0,1,.581-.648.634.634,0,0,1,.542.7l-1.148,39.5.894,9.36a.656.656,0,0,1-.495.744A.476.476,0,0,1,337.159,95.8Z" transform="translate(-300.231 -45.305)" fill="#19294f"/>
        <path id="Línea_3617" data-name="Línea 3617" d="M0,2.592a.617.617,0,0,1-.561-.636.639.639,0,0,1,.53-.708L27.639-.56a.61.61,0,0,1,.592.635.639.639,0,0,1-.53.708L.031,2.591Z" transform="translate(22.344 39.392)" fill="#19294f"/>
        <path id="Línea_3618" data-name="Línea 3618" d="M0,5.972A.594.594,0,0,1-.547,5.45a.685.685,0,0,1,.422-.805L18.826-.544a.568.568,0,0,1,.673.505.685.685,0,0,1-.422.805L.126,5.955A.476.476,0,0,1,0,5.972Z" transform="translate(27.704 32.446)" fill="#19294f"/>
        <path id="Trazado_996962" data-name="Trazado 996962" d="M336.469,79.441a.511.511,0,0,1-.374-.17l-1.9-2.026a15.137,15.137,0,0,1-3.85-10.905l.75-20.361a.613.613,0,0,1,.586-.642.637.637,0,0,1,.537.7l-.75,20.361a13.661,13.661,0,0,0,3.475,9.842l1.9,2.026a.768.768,0,0,1,.046.949A.525.525,0,0,1,336.469,79.441Z" transform="translate(-300.235 -45.337)" fill="#19294f"/>
        <path id="Trazado_996963" data-name="Trazado 996963" d="M300.821,70.849a.572.572,0,0,1-.522-.422.722.722,0,0,1,.312-.874c4.166-2,7.2-6.131,9.007-12.28a38.159,38.159,0,0,0,1.48-8.725.616.616,0,0,1,.579-.652.633.633,0,0,1,.545.692,39.157,39.157,0,0,1-1.543,9.131,27.172,27.172,0,0,1-3.328,7.389A15.9,15.9,0,0,1,301.03,70.8.481.481,0,0,1,300.821,70.849Z" transform="translate(-300.258 -44.831)" fill="#19294f"/>
        <path id="Línea_3619" data-name="Línea 3619" d="M3.785,175.885a.621.621,0,0,1-.561-.655L-.561.128A.632.632,0,0,1-.014-.561.618.618,0,0,1,.562.093l3.785,175.1a.632.632,0,0,1-.547.689Z" transform="translate(30.659 41.201)" fill="#19294f"/>
        <path id="Línea_3620" data-name="Línea 3620" d="M0,17.228a.5.5,0,0,1-.339-.136.763.763,0,0,1-.109-.942L9.963-.3a.5.5,0,0,1,.787-.13.763.763,0,0,1,.109.942L.448,16.962A.535.535,0,0,1,0,17.228Z" transform="translate(18.829 103.578)" fill="#19294f"/>
        <path id="Línea_3621" data-name="Línea 3621" d="M0,1.954a.611.611,0,0,1-.558-.605.652.652,0,0,1,.5-.736L9.687-.558a.6.6,0,0,1,.615.6A.652.652,0,0,1,9.8.78L.057,1.951A.476.476,0,0,1,0,1.954Z" transform="translate(18.829 128.752)" fill="#19294f"/>
        <path id="Línea_3622" data-name="Línea 3622" d="M6.806,5.414a.49.49,0,0,1-.277-.088L-.277.7A.747.747,0,0,1-.488-.222.516.516,0,0,1,.278-.474L7.084,4.158a.747.747,0,0,1,.211.917A.553.553,0,0,1,6.806,5.414Z" transform="translate(19.764 135.511)" fill="#19294f"/>
        <path id="Línea_3623" data-name="Línea 3623" d="M18.683,15.1a.5.5,0,0,1-.3-.106L-.3.677a.755.755,0,0,1-.17-.929A.51.51,0,0,1,.3-.455L18.987,13.861a.755.755,0,0,1,.17.929A.546.546,0,0,1,18.683,15.1Z" transform="translate(52.149 108.528)" fill="#19294f"/>
        <path id="Línea_3624" data-name="Línea 3624" d="M12.457,3.817a.475.475,0,0,1-.113-.014L-.112.77A.679.679,0,0,1-.55-.023.573.573,0,0,1,.113-.548L12.568,2.486a.679.679,0,0,1,.438.793A.6.6,0,0,1,12.457,3.817Z" transform="translate(57.666 128.752)" fill="#19294f"/>
      </g>
      <path id="Trazado_996964" data-name="Trazado 996964" d="M352.724,93.784l32.626,15.49L382.793,79.84Z" transform="translate(-276.033 136.963)" fill="#19294f"/>
      <g id="Grupo_1179925" data-name="Grupo 1179925" transform="translate(95.502 50.666)">
        <path id="Trazado_997001" data-name="Trazado 997001" d="M.392,5.917,125.492-.49l-.445,7.536L-.053,13.453Z" transform="translate(0 167.096) rotate(-71.089)" fill="#19294f"/>
        <path id="Trazado_997002" data-name="Trazado 997002" d="M.413.409,9.095-.035,8.65,7.5l-8.681.445Z" transform="translate(37.296 56.834) rotate(-71.089)" fill="#2d6dbd"/>
        <path id="Trazado_996965" data-name="Trazado 996965" d="M434.087-49.174l-4.661-9.743-8.675,4.277c-7.283,3.591-12.985,10.91-15.592,20.014l-4.7,16.4a2.983,2.983,0,0,0,1.55,3.56l13.193,5.407L428.4-3.852a2.286,2.286,0,0,0,3.048-1.674l4.7-16.4A39.118,39.118,0,0,0,434.087-49.174Z" transform="translate(-371.498 58.917)" fill="#2d6dbd"/>
        <g id="Grupo_1179924" data-name="Grupo 1179924" transform="translate(40.71 16.677)">
          <path id="Línea_3625" data-name="Línea 3625" d="M0,27.972a.478.478,0,0,1-.182-.036.711.711,0,0,1-.349-.854L7.255-.107a.545.545,0,0,1,.714-.418.711.711,0,0,1,.349.854L.532,27.518A.579.579,0,0,1,0,27.972Z" transform="translate(0.562 0.562)" fill="#ebcbb3"/>
          <path id="Línea_3626" data-name="Línea 3626" d="M0,27.972a.478.478,0,0,1-.182-.036.711.711,0,0,1-.349-.854L7.254-.107a.545.545,0,0,1,.714-.418.711.711,0,0,1,.349.854L.532,27.518A.579.579,0,0,1,0,27.972Z" transform="translate(7.547 3.424)" fill="#ebcbb3"/>
        </g>
      </g>
      <rect id="Rectángulo_455312" data-name="Rectángulo 455312" width="66.387" height="7.344" transform="translate(27.92 169.009)" fill="#19294f"/>
      <path id="Trazado_996966" data-name="Trazado 996966" d="M356.2-52.824l22.04,8.174C385.4-42,391.151-35.586,393.877-27.237l7.831,23.99L379.554,8.887V58.224H306.82V-6.441H288l12.237-24.88a24.285,24.285,0,0,1,12.935-12.306l17.886-6.729Z" transform="translate(-276.083 110.785)" fill="#2d6dbd"/>
      <path id="Trazado_996967" data-name="Trazado 996967" d="M372.869-46.744C366.257-32.8,361.808,5.975,379.247,5.975V72.8H344.821a3.3,3.3,0,0,1-3.039-2.781l-1.149-5.068,2.193-92.477a8.769,8.769,0,0,1,3.546-7.022c3.613-2.507,9.131-7.784,11.714-17.675Z" transform="translate(-276.042 110.902)" fill="#80a872"/>
      <path id="Trazado_996968" data-name="Trazado 996968" d="M379.247,53.485v-7.85H340.633l1.149,5.068a3.3,3.3,0,0,0,3.039,2.781Z" transform="translate(-276.042 130.213)" fill="#b2dbcb"/>
      <g id="Grupo_1179927" data-name="Grupo 1179927" transform="translate(73.985 95.857)">
        <path id="Trazado_996969" data-name="Trazado 996969" d="M361.931-1.221H352.56a2.339,2.339,0,0,1-1.827-.917,3.371,3.371,0,0,1-.712-2.215l.349-13.714a2.979,2.979,0,0,1,2.675-3.105h9.371a2.339,2.339,0,0,1,1.827.917,3.372,3.372,0,0,1,.712,2.215l-.349,13.714A2.979,2.979,0,0,1,361.931-1.221Zm-8.886-19.054a2.144,2.144,0,0,0-1.925,2.235l-.349,13.714a2.378,2.378,0,0,0,.5,1.563,1.647,1.647,0,0,0,1.288.644h9.371a2.144,2.144,0,0,0,1.925-2.235l.349-13.714a2.378,2.378,0,0,0-.5-1.563,1.648,1.648,0,0,0-1.288-.644Z" transform="translate(-350.02 21.173)" fill="#fff"/>
        <g id="Grupo_1179926" data-name="Grupo 1179926" transform="translate(4.719 1.524)">
          <path id="Línea_3627" data-name="Línea 3627" d="M0,16.53H-.011a.423.423,0,0,1-.364-.462L.033.06A.412.412,0,0,1,.42-.375.423.423,0,0,1,.784.088L.375,16.095A.414.414,0,0,1,0,16.53Z" transform="translate(0.375 0.375)" fill="#fff"/>
          <path id="Línea_3628" data-name="Línea 3628" d="M0,16.53H-.011a.423.423,0,0,1-.364-.462L.034.06A.412.412,0,0,1,.42-.375.423.423,0,0,1,.784.088L.375,16.095A.414.414,0,0,1,0,16.53Z" transform="translate(4.712 0.375)" fill="#fff"/>
        </g>
      </g>
      <g id="Grupo_1179928" data-name="Grupo 1179928" transform="translate(72.757 147.309)">
        <path id="Rectángulo_455313" data-name="Rectángulo 455313" d="M0-.375H23.934a.417.417,0,0,1,.375.449V21.325a.417.417,0,0,1-.375.449H0a.417.417,0,0,1-.375-.449V.074A.417.417,0,0,1,0-.375Zm23.558.9H.376V20.876H23.559Z" transform="translate(0.375 0.375)" fill="#fff"/>
        <path id="Trazado_996970" data-name="Trazado 996970" d="M361.133,33.047a.335.335,0,0,1-.22-.085l-10.321-8.948a.508.508,0,0,1-.084-.627.337.337,0,0,1,.524-.1l10.1,8.757,10.1-8.757a.337.337,0,0,1,.524.1.508.508,0,0,1-.084.627l-10.321,8.948A.335.335,0,0,1,361.133,33.047Z" transform="translate(-348.791 -21.522)" fill="#fff"/>
      </g>
      <path id="Trazado_996971" data-name="Trazado 996971" d="M339.052-27.392c-.384-.131-.9-.32-1.6-.6l.043-.539a8,8,0,0,0-2.656-6.883c-3.669-2.89-5.993-8.08-6.164-14.606l-15.511,5.836L297.441,45.332a28.134,28.134,0,0,0,1.706,15.657l1.482,3.52-1.779,7.85h27a3.708,3.708,0,0,0,3.418-3.314l.8-4.535,6.577-82.348,1.572.237a1.189,1.189,0,0,0,1.255-1.218l.483-7.024A1.489,1.489,0,0,0,339.052-27.392Z" transform="translate(-276.076 111.339)" fill="#80a872"/>
      <path id="Trazado_996972" data-name="Trazado 996972" d="M352.724,25.521h59.61l9.609,78.982h-69.22Z" transform="translate(-276.033 126.244)" fill="#ebc0a0"/>
      <path id="Línea_3629" data-name="Línea 3629" d="M7.474,74.4A.406.406,0,0,1,7.1,74L-.372.128a.439.439,0,0,1,.327-.5A.4.4,0,0,1,.373.02L7.847,73.893a.439.439,0,0,1-.327.5A.319.319,0,0,1,7.474,74.4Z" transform="translate(84.163 153.607)" fill="#fff"/>
      <path id="Trazado_996973" data-name="Trazado 996973" d="M365.089,90.079a.328.328,0,0,1-.191-.063l-6.09-4.311-4.334,4.271a.335.335,0,0,1-.528-.061.512.512,0,0,1,.051-.632l4.538-4.471a.327.327,0,0,1,.43-.04l6.317,4.471a.5.5,0,0,1,.132.615A.368.368,0,0,1,365.089,90.079Z" transform="translate(-276.032 137.924)" fill="#fff"/>
      <path id="Línea_3630" data-name="Línea 3630" d="M0,66.515a.319.319,0,0,1-.122-.024.475.475,0,0,1-.233-.57L18.543-.072a.364.364,0,0,1,.477-.279.475.475,0,0,1,.233.57L.355,66.211A.387.387,0,0,1,0,66.515Z" transform="translate(108.217 156.116)" fill="#fff"/>
      <path id="Trazado_996974" data-name="Trazado 996974" d="M375.634-46.493l-4.442,9.641a54.788,54.788,0,0,0-4.574,16.275l-7.4,60.661h-6.5L360.751-18.8a73.82,73.82,0,0,1,6.2-21.248l3.851-8.244Z" transform="translate(-276.033 111.68)" fill="#ebc0a0"/>
      <path id="Línea_3631" data-name="Línea 3631" d="M6.474,20.182a.572.572,0,0,1-.522-.423L-.521.36A.722.722,0,0,1-.208-.514a.536.536,0,0,1,.73.375L7,19.261a.722.722,0,0,1-.314.874A.481.481,0,0,1,6.474,20.182Z" transform="translate(95.063 97.368)" fill="#19294f"/>
      <path id="Trazado_996975" data-name="Trazado 996975" d="M361.94-50.8l-3.855-1.43c-2.583,9.89-8.1,15.167-11.714,17.675a8.768,8.768,0,0,0-3.546,7.022l-.026,1.088h0C352.127-29,358.692-38.014,361.94-50.8Z" transform="translate(-276.04 110.903)" fill="#b2dbcb"/>
      <path id="Línea_3632" data-name="Línea 3632" d="M0,86.9H-.01a.422.422,0,0,1-.364-.462L1.676.061a.412.412,0,0,1,.386-.436.422.422,0,0,1,.364.462L.375,86.467A.415.415,0,0,1,0,86.9Z" transform="translate(69.79 86.227)" fill="#fff"/>
      <g id="Grupo_1179929" data-name="Grupo 1179929" transform="translate(66.348 91.943)">
        <ellipse id="Elipse_13657" data-name="Elipse 13657" cx="0.979" cy="1.171" rx="0.979" ry="1.171" transform="translate(1.934 0)" fill="#fff"/>
        <ellipse id="Elipse_13658" data-name="Elipse 13658" cx="0.979" cy="1.171" rx="0.979" ry="1.171" transform="translate(1.445 16.818)" fill="#fff"/>
        <ellipse id="Elipse_13659" data-name="Elipse 13659" cx="0.979" cy="1.171" rx="0.979" ry="1.171" transform="translate(0.6 48.273)" fill="#fff"/>
        <ellipse id="Elipse_13660" data-name="Elipse 13660" cx="0.979" cy="1.171" rx="0.979" ry="1.171" transform="translate(0 71.744)" fill="#fff"/>
      </g>
      <path id="Trazado_996976" data-name="Trazado 996976" d="M298.849,53.485h27a3.708,3.708,0,0,0,3.418-3.314l.8-4.535H300.628Z" transform="translate(-276.075 130.213)" fill="#b2dbcb"/>
      <g id="Grupo_1179932" data-name="Grupo 1179932" transform="translate(24.371 147.309)">
        <g id="Grupo_1179930" data-name="Grupo 1179930" transform="translate(0 0)">
          <path id="Trazado_996977" data-name="Trazado 996977" d="M324.752,43.948H300.82a.351.351,0,0,1-.277-.147.507.507,0,0,1-.1-.344L302.1,22.206a.409.409,0,0,1,.374-.407h23.934a.351.351,0,0,1,.277.147.508.508,0,0,1,.1.344l-1.659,21.251A.409.409,0,0,1,324.752,43.948Zm-23.521-.9h23.179L326,22.7H302.82Z" transform="translate(-300.445 -21.799)" fill="#fff"/>
          <path id="Trazado_996978" data-name="Trazado 996978" d="M313.613,33.047a.338.338,0,0,1-.23-.094L303.761,24a.51.51,0,0,1-.066-.63.336.336,0,0,1,.527-.079l9.407,8.747,10.793-8.764a.339.339,0,0,1,.521.119.506.506,0,0,1-.1.624l-11.018,8.948A.333.333,0,0,1,313.613,33.047Z" transform="translate(-300.442 -21.522)" fill="#fff"/>
        </g>
        <g id="Grupo_1179931" data-name="Grupo 1179931" transform="translate(9.57 8.542)">
          <path id="Línea_3633" data-name="Línea 3633" d="M0,11.423l-.035,0a.434.434,0,0,1-.339-.489L.478.032A.4.4,0,0,1,.887-.373a.434.434,0,0,1,.339.489l-.852,10.9A.409.409,0,0,1,0,11.423Z" transform="translate(0.375 0.375)" fill="#fff"/>
          <path id="Línea_3634" data-name="Línea 3634" d="M0,11.423l-.035,0a.434.434,0,0,1-.339-.489L.477.032A.4.4,0,0,1,.886-.373a.434.434,0,0,1,.339.489l-.851,10.9A.409.409,0,0,1,0,11.423Z" transform="translate(5.449 0.375)" fill="#fff"/>
        </g>
      </g>
      <path id="Trazado_996979" data-name="Trazado 996979" d="M334.821-35.411c-3.669-2.89-5.993-8.08-6.164-14.606l-3.825,1.439c1.178,11.166,5.143,17.8,12.6,20.588h0l.043-.539A7.991,7.991,0,0,0,334.821-35.411Z" transform="translate(-276.054 111.339)" fill="#b2dbcb"/>
      <ellipse id="Elipse_13661" data-name="Elipse 13661" cx="1.118" cy="1.337" rx="1.118" ry="1.337" transform="translate(59.53 86.9)" fill="#b2dbcb"/>
      <path id="Línea_3635" data-name="Línea 3635" d="M3.6,1.506A.475.475,0,0,1,3.511,1.5L-.093.774A.67.67,0,0,1-.554,0,.582.582,0,0,1,.093-.552L3.7.171a.67.67,0,0,1,.461.774A.6.6,0,0,1,3.6,1.506Z" transform="translate(55.926 92.457)" fill="#19294f"/>
      <path id="Trazado_996980" data-name="Trazado 996980" d="M306.111,223.862l34.032.615a2.939,2.939,0,0,1,2.614,3.058l.394,12.558a2.975,2.975,0,0,1-2.654,3.3H306.071a2.952,2.952,0,0,1-2.656-3.178V227.04A2.943,2.943,0,0,1,306.111,223.862Z" transform="translate(-276.071 165.382)" fill="#ebcbb3"/>
      <path id="Trazado_996981" data-name="Trazado 996981" d="M361.522,223.862h36.264a2.131,2.131,0,0,1,1.955,2.053l1.619,14.81a2.25,2.25,0,0,1-1.956,2.666H363.478a2.119,2.119,0,0,1-1.949-1.991l-1.957-14.809A2.263,2.263,0,0,1,361.522,223.862Z" transform="translate(-276.027 165.382)" fill="#ebcbb3"/>
      <path id="Trazado_996982" data-name="Trazado 996982" d="M351.965-86.427l1.07,5.827a28.006,28.006,0,0,1-.165,10.912l-2.077,9.629,1.957,12.56,3.426,1.3S352.28-33.14,340.7-33.1c-9.431.031-9.658-10.625-9.658-10.625l3.386-1.749-.533-5.269c-5.939-.239-10.743-1.916-11.811-13.811l-4.07-16.525Z" transform="translate(-276.06 104.154)" fill="#eb6363"/>
      <ellipse id="Elipse_13662" data-name="Elipse 13662" cx="3.235" cy="3.87" rx="3.235" ry="3.87" transform="translate(58.187 33.984)" fill="#e84343"/>
      <path id="Trazado_996983" data-name="Trazado 996983" d="M333.876-55.937c3.327.229,6.756-1.513,9.143-3.946.615-.627,1.536.154,1.255,1.062-1.338,4.3-4.186,10.388-9.6,10.388Z" transform="translate(-276.047 109.347)" fill="#19294f"/>
      <path id="Trazado_996984" data-name="Trazado 996984" d="M351.949-86.427,339.687-84.5c.441,5.3,2.432,19.975,11.09,24.439l2.076-9.629a28,28,0,0,0,.165-10.912Z" transform="translate(-276.043 104.154)" fill="#19294f"/>
      <path id="Trazado_996985" data-name="Trazado 996985" d="M341.077-71.577l4.591-6a2.721,2.721,0,0,1,4.424-.093h0a4.2,4.2,0,0,1,.246,4.774l-5.3,8.289Z" transform="translate(-276.042 105.667)" fill="#eb6363"/>
      <path id="Trazado_996986" data-name="Trazado 996986" d="M343.612-69.064a.317.317,0,0,1-.063-.006.448.448,0,0,1-.307-.518,10.423,10.423,0,0,1,2.144-5.027,4.64,4.64,0,0,1,3.477-2.052.423.423,0,0,1,.363.463.411.411,0,0,1-.387.434,4.029,4.029,0,0,0-2.913,1.779,9.576,9.576,0,0,0-1.943,4.553A.4.4,0,0,1,343.612-69.064Z" transform="translate(-276.04 106.079)" fill="#19294f"/>
      <ellipse id="Elipse_13663" data-name="Elipse 13663" cx="1.382" cy="1.654" rx="1.382" ry="1.654" transform="translate(46.649 31.112)" fill="#19294f"/>
      <ellipse id="Elipse_13664" data-name="Elipse 13664" cx="1.382" cy="1.654" rx="1.382" ry="1.654" transform="translate(56.918 29.09)" fill="#19294f"/>
      <path id="Trazado_996987" data-name="Trazado 996987" d="M328.7-67.644a1.018,1.018,0,0,1-.738-.334,1.5,1.5,0,0,1-.35-1.316L328-71.226a4.175,4.175,0,0,0,0-1.607l-.712-3.618a.459.459,0,0,1,.279-.54.378.378,0,0,1,.451.334l.712,3.618a5.251,5.251,0,0,1,0,2.021l-.384,1.931a.481.481,0,0,0,.115.434.319.319,0,0,0,.374.081l2.87-1.3a.36.36,0,0,1,.484.261.48.48,0,0,1-.219.579l-2.87,1.3A.959.959,0,0,1,328.7-67.644Z" transform="translate(-276.052 106.014)" fill="#19294f"/>
      <g id="Grupo_1179933" data-name="Grupo 1179933" transform="translate(53.199 38.082)">
        <path id="Trazado_996988" data-name="Trazado 996988" d="M329.25-66.331l6.131-3.1s2.5,7.956-.078,9.1C331.834-58.783,329.25-66.331,329.25-66.331Z" transform="translate(-329.25 69.427)" fill="#19294f"/>
        <path id="Trazado_996989" data-name="Trazado 996989" d="M335.3-60.683c1.7-.758,1.185-4.494.64-6.937a7.7,7.7,0,0,0-4.126,3.851,10.775,10.775,0,0,0-.513,1.145C332.352-61.145,333.735-59.985,335.3-60.683Z" transform="translate(-329.248 69.784)" fill="#b52d2d"/>
      </g>
      <g id="Grupo_1179934" data-name="Grupo 1179934" transform="translate(45.495 24.114)">
        <path id="Trazado_996990" data-name="Trazado 996990" d="M330.588-76.479a.491.491,0,0,1-.433-.3.667.667,0,0,1,.181-.818c.013-.009,1.271-.883,2.528-1.737.74-.5,1.336-.9,1.771-1.182.864-.559,1.043-.676,1.32-.509a.617.617,0,0,1,.275.472.589.589,0,0,1-.421.659c-.453.236-2.855,1.863-4.97,3.332A.437.437,0,0,1,330.588-76.479Z" transform="translate(-321.545 81.092)" fill="#19294f"/>
        <path id="Línea_3636" data-name="Línea 3636" d="M3.6,1.072l-.044,0L-.043.7A.577.577,0,0,1-.5.047.536.536,0,0,1,.044-.5l3.6.375A.577.577,0,0,1,4.1.525.546.546,0,0,1,3.6,1.072Z" transform="translate(0.5 4.502)" fill="#19294f"/>
      </g>
      <path id="Trazado_996991" data-name="Trazado 996991" d="M336.854,27.847a137.933,137.933,0,0,1-44.191,0q-6.152-28.5-12.3-57a137.934,137.934,0,0,0,44.191,0Q330.7-.653,336.854,27.847Z" transform="translate(-276.089 115.456)" fill="#fac14e"/>
      <path id="Trazado_996992" data-name="Trazado 996992" d="M285.57-9.007l1.808,8.378,9.042-.917a1.275,1.275,0,0,1,1.268,1.394V2.955h0a1.8,1.8,0,0,1,1.479,1.962l-.155,6.268a2.389,2.389,0,0,1-1.981,2.466h0v.307a3.176,3.176,0,0,1-2.488,3.317l-.993.129a4.685,4.685,0,0,1-1.243,4.8l.359,1.663s3.837.574,5.69.781l-2.263,4.132c-3.015,5.505-9.037,7.361-13.9,4.283l-.215-.136c-4.873-3.084-7.089-9.922-5.238-16.073C279.427,7.933,283.208-4.067,285.57-9.007Z" transform="translate(-276.092 119.431)" fill="#eb6363"/>
      <g id="Grupo_1179935" data-name="Grupo 1179935" transform="translate(3.438 118.521)">
        <path id="Línea_3637" data-name="Línea 3637" d="M0,1.831a.613.613,0,0,1-.559-.613A.649.649,0,0,1-.049.489L9.859-.559a.6.6,0,0,1,.609.61.649.649,0,0,1-.51.729L.05,1.828Z" transform="translate(7.591 3.878)" fill="#19294f"/>
        <path id="Línea_3638" data-name="Línea 3638" d="M0,2.02a.612.612,0,0,1-.559-.606.651.651,0,0,1,.5-.735l10.5-1.237a.6.6,0,0,1,.614.6.651.651,0,0,1-.5.735L.055,2.017A.476.476,0,0,1,0,2.02Z" transform="translate(7.324 9.183)" fill="#19294f"/>
        <path id="Línea_3639" data-name="Línea 3639" d="M0,1.422A.616.616,0,0,1-.56.795.643.643,0,0,1-.037.079L8.04-.56a.607.607,0,0,1,.6.626.643.643,0,0,1-.524.715L.038,1.421Z" transform="translate(8.1 14.292)" fill="#19294f"/>
        <path id="Trazado_996993" data-name="Trazado 996993" d="M285.872,18.9a.545.545,0,0,1-.472-.307,22.137,22.137,0,0,1-2.609-10.261,16.225,16.225,0,0,1,3.342-10.368.5.5,0,0,1,.794-.021.769.769,0,0,1,.017.95c-4.456,5.567-3.436,13.735-.6,18.968a.755.755,0,0,1-.166.93A.5.5,0,0,1,285.872,18.9Z" transform="translate(-279.526 2.244)" fill="#19294f"/>
        <path id="Trazado_996994" data-name="Trazado 996994" d="M288.837,20.165a.573.573,0,0,1-.523-.427.721.721,0,0,1,.318-.871A7.582,7.582,0,0,0,291.1,17.03a.5.5,0,0,1,.794-.017.769.769,0,0,1,.015.951,8.692,8.692,0,0,1-2.866,2.155A.481.481,0,0,1,288.837,20.165Z" transform="translate(-279.521 6.007)" fill="#19294f"/>
        <path id="Línea_3640" data-name="Línea 3640" d="M0,2.506a.568.568,0,0,1-.516-.4.728.728,0,0,1,.292-.884L3.1-.506a.531.531,0,0,1,.739.349.728.728,0,0,1-.292.884L.224,2.45A.483.483,0,0,1,0,2.506Z" transform="translate(0.562 11.846)" fill="#19294f"/>
      </g>
      <path id="Trazado_996995" data-name="Trazado 996995" d="M401.888-10.685l4.863,15.509c2.832,9.033.861,19.215-5,25.837h0c-5.794,6.543-14.279,8.356-21.608,4.614L345.319,17.5s-5.827.338-8.163-1.117c-5.672,1.437-11.544,1.278-12.077-2.395-2.2-.479-2.269-2.954-2.136-4.312-1.8-1.358-1.4-3.353-1.068-4.71a3.592,3.592,0,0,1-1.059-2.586A2.175,2.175,0,0,1,322.629,0l5.919-.384L331.3-1.37l-.916-4.245,4.182.181a11.777,11.777,0,0,1,7.218,2.978L345.364.652l34.9,4.79-1.8-5.748Z" transform="translate(-276.057 119.1)" fill="#eb6363"/>
      <g id="Grupo_1179936" data-name="Grupo 1179936" transform="translate(46.457 121.714)">
        <path id="Línea_3641" data-name="Línea 3641" d="M14.681,2.8a.475.475,0,0,1-.065,0L-.064.779A.656.656,0,0,1-.558.034.594.594,0,0,1,.064-.557L14.744,1.458a.656.656,0,0,1,.494.744A.609.609,0,0,1,14.681,2.8Z" transform="translate(59.196 2.915)" fill="#19294f"/>
        <path id="Trazado_996996" data-name="Trazado 996996" d="M323.074,3.256a.615.615,0,0,1-.56-.624.644.644,0,0,1,.52-.719l6.742-.584,5.364-.9a.588.588,0,0,1,.635.572.662.662,0,0,1-.478.759l-5.383.9-.038,0-6.761.585Z" transform="translate(-322.513 -0.422)" fill="#19294f"/>
        <path id="Trazado_996997" data-name="Trazado 996997" d="M323.974,7.292a.615.615,0,0,1-.56-.624.644.644,0,0,1,.52-.719l6.727-.582,5.348-1.286a.574.574,0,0,1,.662.527.678.678,0,0,1-.44.792l-5.383,1.294a.474.474,0,0,1-.07.011l-6.762.585Z" transform="translate(-322.512 0.297)" fill="#19294f"/>
        <path id="Trazado_996998" data-name="Trazado 996998" d="M325.929,10.65a.615.615,0,0,1-.56-.624.644.644,0,0,1,.52-.719l6.731-.583,4.1-.911a.577.577,0,0,1,.655.538.674.674,0,0,1-.45.784l-4.126.918a.477.477,0,0,1-.062.01l-6.762.585Z" transform="translate(-322.511 1.034)" fill="#19294f"/>
      </g>
      <path id="Trazado_997003" data-name="Trazado 997003" d="M.353,1.831l29.3-1.965-.391,6.626L-.038,8.457Z" transform="translate(98.01 114.313) rotate(-22.303)" fill="#2d6dbd"/>
      <path id="Línea_3642" data-name="Línea 3642" d="M0,11.72a.381.381,0,0,1-.347-.279.484.484,0,0,1,.2-.586L22.674-.341a.357.357,0,0,1,.49.245.484.484,0,0,1-.2.586L.143,11.687A.322.322,0,0,1,0,11.72Z" transform="translate(100.038 104.089)" fill="#fff"/>
      <g id="Grupo_1179937" data-name="Grupo 1179937" transform="translate(41.24)">
        <path id="Trazado_996999" data-name="Trazado 996999" d="M317.442-76.768l34.524-6.737c-1.979-11.509-10.8-19.279-20.1-17.464S316.261-88.432,317.442-76.768Z" transform="translate(-317.3 101.233)" fill="#69300a"/>
        <path id="Trazado_997000" data-name="Trazado 997000" d="M333.347-86.768l-9.832,1.918-.3-2.188c-.443-3.248,1.4-6.311,4.114-6.84h0c2.715-.53,5.275,1.674,5.717,4.922Z" transform="translate(-317.295 102.668)" fill="#19294f"/>
        <path id="Trazado_997001-2" data-name="Trazado 997001" d="M337.063-82.6a.4.4,0,0,1-.37-.377l-.664-4.875-1.573.306a.389.389,0,0,1-.431-.371.446.446,0,0,1,.31-.515l1.943-.378a.389.389,0,0,1,.431.371l.725,5.319a.446.446,0,0,1-.31.515A.318.318,0,0,1,337.063-82.6Z" transform="translate(-317.287 103.683)" fill="#19294f"/>
      </g>
    </g>
  </g>
</svg>
