<svg xmlns="http://www.w3.org/2000/svg" width="130" height="130" viewBox="0 0 130 130">
  <g id="Grupo_1180064" data-name="Grupo 1180064" transform="translate(-314.559 -1322.852)">
    <circle id="Elipse_13614" data-name="Elipse 13614" cx="65" cy="65" r="65" transform="translate(314.559 1322.852)" fill="#fff"/>
    <circle id="Elipse_13640" data-name="Elipse 13640" cx="19.504" cy="19.504" r="19.504" transform="translate(384.06 1344.344)" fill="#ddfffb"/>
    <path id="Trazado_996336" data-name="Trazado 996336" d="M390.5,43.5a19.5,19.5,0,0,1-19.5,19.5,19.768,19.768,0,0,1-3-.225,19.513,19.513,0,0,0,0-38.557A19.768,19.768,0,0,1,371,24,19.5,19.5,0,0,1,390.5,43.5Z" transform="translate(32.563 1320.344)" fill="#44ffe8"/>
    <circle id="Elipse_13641" data-name="Elipse 13641" cx="19.504" cy="19.504" r="19.504" transform="translate(336.051 1392.353)" fill="#ddfffb"/>
    <path id="Trazado_996337" data-name="Trazado 996337" d="M306.008,285a21,21,0,1,1-21-21,21,21,0,0,1,21,21Z" transform="translate(117.06 1125.352)" fill="#c0ab91"/>
    <path id="Trazado_996338" data-name="Trazado 996338" d="M380.755,285a21,21,0,0,1-21,21,22.072,22.072,0,0,1-3.751-.33,21.013,21.013,0,0,0,0-41.348,22.072,22.072,0,0,1,3.751-.33,21,21,0,0,1,21,21Z" transform="translate(42.313 1125.352)" fill="#a78966"/>
    <path id="Trazado_996339" data-name="Trazado 996339" d="M387.611,322.957a5.822,5.822,0,0,1,.39,2.115,6,6,0,1,1-12,0v-15a5.492,5.492,0,0,1,.2-1.5,6,6,0,0,1,11.807,1.5,5.822,5.822,0,0,1-.39,2.115,5.973,5.973,0,0,1,0,10.772Z" transform="translate(26.064 1092.785)" fill="#ffd422"/>
    <path id="Trazado_996340" data-name="Trazado 996340" d="M400.547,322.873a5.822,5.822,0,0,1,.39,2.115,5.992,5.992,0,0,1-9,5.191,5.971,5.971,0,0,0,3-5.191,5.823,5.823,0,0,0-.39-2.115,5.973,5.973,0,0,0,0-10.772,5.823,5.823,0,0,0,.39-2.115,5.967,5.967,0,0,0-3.016-5.191,6,6,0,0,1,9.017,5.191,5.822,5.822,0,0,1-.39,2.115,5.973,5.973,0,0,1,0,10.772Z" transform="translate(13.129 1092.869)" fill="#ebbf00"/>
    <path id="Trazado_996341" data-name="Trazado 996341" d="M396,172.625v4.861a19.354,19.354,0,0,1-12,4.141v-7.5L388.126,170Z" transform="translate(19.563 1201.724)" fill="#ff3051"/>
    <path id="Trazado_996342" data-name="Trazado 996342" d="M359,63.5V65l-1.5-.5-3-1.005L350,65l-1.5-1.5-3,1.005L344,65V63.5a7.5,7.5,0,0,1,15,0Z" transform="translate(52.063 1294.345)" fill="#ffcd00"/>
    <path id="Trazado_996343" data-name="Trazado 996343" d="M364,97.005v3.5a5.992,5.992,0,0,1-9,5.191,6.339,6.339,0,0,1-1.245-.945A6.039,6.039,0,0,1,352,100.5v-3.5L355,96l1.5,1.5L361,96Z" transform="translate(45.563 1261.846)" fill="#ffc477"/>
    <path id="Trazado_996344" data-name="Trazado 996344" d="M370.252,151.866l-4.126,4.126L362,151.866l1.125-.375V147.68a5.963,5.963,0,0,0,6,0v3.811Z" transform="translate(37.438 1219.857)" fill="#ffc477"/>
    <path id="Trazado_996345" data-name="Trazado 996345" d="M332,174.126v7.5a19.354,19.354,0,0,1-12-4.141v-4.861L327.876,170Z" transform="translate(71.562 1201.724)" fill="#ff3051"/>
    <path id="Trazado_996346" data-name="Trazado 996346" d="M299.381,312.191a5.823,5.823,0,0,1-.39-2.115,6,6,0,0,1,11.807-1.5,5.493,5.493,0,0,1,.2,1.5v15a6,6,0,1,1-12,0,5.823,5.823,0,0,1,.39-2.115,5.973,5.973,0,0,1,0-10.772Z" transform="translate(91.069 1092.779)" fill="#ffd422"/>
    <path id="Trazado_996347" data-name="Trazado 996347" d="M245.245,240.885A2.971,2.971,0,1,1,243.13,240,2.933,2.933,0,0,1,245.245,240.885Z" transform="translate(136.429 1144.852)" fill="#ff3051"/>
    <path id="Trazado_996348" data-name="Trazado 996348" d="M66.008,45a21,21,0,1,1,0-.018Z" transform="translate(312.051 1320.344)" fill="#c0ab91"/>
    <path id="Trazado_996349" data-name="Trazado 996349" d="M140.755,45a21,21,0,0,1-21,21,22.077,22.077,0,0,1-3.751-.33,21.013,21.013,0,0,0,0-41.348,22.077,22.077,0,0,1,3.751-.33A21,21,0,0,1,140.755,45Z" transform="translate(237.304 1320.344)" fill="#a78966"/>
    <circle id="Elipse_13642" data-name="Elipse 13642" cx="15.003" cy="15.003" r="15.003" transform="translate(342.052 1350.345)" fill="#ffd422"/>
    <path id="Trazado_996350" data-name="Trazado 996350" d="M138.068,70.99a15,15,0,0,1-17.988,14.7,15.01,15.01,0,0,0,0-29.406,15,15,0,0,1,17.988,14.7Z" transform="translate(233.989 1294.357)" fill="#ebbf00"/>
    <path id="Trazado_996351" data-name="Trazado 996351" d="M378.5,63.5V65l-1.5-.5L374,63.5l-1.5.5v-.5a7.534,7.534,0,0,0-2.19-5.311A7.694,7.694,0,0,0,368,56.615,7.661,7.661,0,0,1,371,56a7.479,7.479,0,0,1,7.5,7.456Z" transform="translate(32.563 1294.345)" fill="#ddb200"/>
    <path id="Trazado_996352" data-name="Trazado 996352" d="M383.5,97.005v3.5a6.016,6.016,0,0,1-6,6,6.137,6.137,0,0,1-1.5-.2,5.743,5.743,0,0,0,1.5-.615,5.971,5.971,0,0,0,3-5.191v-3.5L379,96.5l1.5-.5Z" transform="translate(26.063 1261.846)" fill="#ffa733"/>
    <path id="Trazado_996353" data-name="Trazado 996353" d="M134.5,299.5a19.5,19.5,0,0,1-19.5,19.5,19.768,19.768,0,0,1-3-.225,19.513,19.513,0,0,0,0-38.557,19.768,19.768,0,0,1,3-.225A19.5,19.5,0,0,1,134.5,299.5Z" transform="translate(240.554 1112.353)" fill="#44ffe8"/>
    <path id="Trazado_996356" data-name="Trazado 996356" d="M396,172.625v4.861a19.354,19.354,0,0,1-12,4.141v-.945a19.254,19.254,0,0,0,6-3.2v-4.861l-3.376-1.125,1.5-1.5Z" transform="translate(19.563 1201.724)" fill="#cd2a00"/>
    <path id="Trazado_996357" data-name="Trazado 996357" d="M103,319.5V321l-1.5-.5-3-1.005L94,321l-1.5-1.5-3,1.005L88,321v-1.5a7.5,7.5,0,0,1,15,0Z" transform="translate(260.053 1086.354)" fill="#ffcd00"/>
    <path id="Trazado_996358" data-name="Trazado 996358" d="M108,353.005v3.5a5.992,5.992,0,0,1-9,5.191,6.339,6.339,0,0,1-1.245-.945A6.039,6.039,0,0,1,96,356.5v-3.5L99,352l1.5,1.5L105,352Z" transform="translate(253.553 1053.855)" fill="#ffc477"/>
    <path id="Trazado_996361" data-name="Trazado 996361" d="M122.5,319.5V321l-1.5-.5-3-1.005-1.5.5v-.5a7.534,7.534,0,0,0-2.19-5.311,7.694,7.694,0,0,0-2.31-1.575,7.661,7.661,0,0,1,3-.615,7.479,7.479,0,0,1,7.5,7.456Z" transform="translate(240.554 1086.354)" fill="#ddb200"/>
    <path id="Trazado_996362" data-name="Trazado 996362" d="M127.5,353.005v3.5a6.016,6.016,0,0,1-6,6,6.137,6.137,0,0,1-1.5-.2,5.743,5.743,0,0,0,1.5-.615,5.971,5.971,0,0,0,3-5.191v-3.5l-1.5-.51,1.5-.5Z" transform="translate(234.054 1053.855)" fill="#ffa733"/>
    <path id="Trazado_996363" data-name="Trazado 996363" d="M252.5,243.012a3,3,0,0,1-4.5,2.6,2.716,2.716,0,0,0,.615-.48,2.933,2.933,0,0,0,.885-2.115,3,3,0,0,0-1.5-2.6,3,3,0,0,1,4.5,2.6Z" transform="translate(130.059 1144.84)" fill="#cd2a00"/>
    <path id="Trazado_996364" data-name="Trazado 996364" d="M82.887,60.383a22.378,22.378,0,0,0-14.793,5.581l-3.661-3.646a4.385,4.385,0,0,0,0-3.871l6.226-6.211a21.076,21.076,0,1,0-2.13-2.13l-6.211,6.226a4.385,4.385,0,0,0-3.871,0l-3.661-3.661a22.38,22.38,0,1,0-2.115,2.13l3.661,3.646a4.385,4.385,0,0,0,0,3.871L50.106,68.53a21.076,21.076,0,1,0,2.13,2.13l6.211-6.226a4.387,4.387,0,0,0,3.871,0l3.661,3.661a22.47,22.47,0,1,0,16.908-7.711Zm0-6.076a17.942,17.942,0,0,1-9-3.331V47.961l5.971-2L82.887,49Zm-3-21.844,1.1-.375.84.855a1.511,1.511,0,0,0,1.065.435,1.78,1.78,0,0,0,.48-.075l4.021-1.35,1.5.51v2.415a4.5,4.5,0,0,1-9,0Zm-1.47-2.671a6,6,0,0,1,11.942,0l-2.49-.84a1.5,1.5,0,0,0-.96,0l-3.616,1.215-.84-.855a1.511,1.511,0,0,0-1.065-.435,1.78,1.78,0,0,0-.48.075ZM82.692,44.57a1.367,1.367,0,0,0,.2-.69V42.23a8.342,8.342,0,0,0,1.5.15,8.2,8.2,0,0,0,1.5-.15v1.65a1.367,1.367,0,0,0,.2.69l-1.7,1.7Zm12.2,6.406a17.942,17.942,0,0,1-9,3.331V49l3.031-3.031,5.971,2Zm-28.505-14.6A18,18,0,1,1,97.89,48.246V46.88a1.521,1.521,0,0,0-1.02-1.425L88.889,42.8V40.834a7.43,7.43,0,0,0,3-5.956V33.363a1.4,1.4,0,0,0,.87-.27,1.475,1.475,0,0,0,.63-1.215v-1.5a9,9,0,0,0-18,0v1.5a1.475,1.475,0,0,0,.63,1.215,1.4,1.4,0,0,0,.87.27v1.515a7.521,7.521,0,0,0,2.205,5.311,6.5,6.5,0,0,0,.8.645V42.8l-7.982,2.656a1.521,1.521,0,0,0-1.02,1.425v1.365A17.9,17.9,0,0,1,66.384,36.378Zm-28.505,21a19.5,19.5,0,1,1,19.5-19.5A19.5,19.5,0,0,1,37.879,57.382Zm-3,44.934a17.942,17.942,0,0,1-9-3.331V95.97l5.971-2,3.031,3.031Zm-3-21.844,1.1-.375.84.855a1.511,1.511,0,0,0,1.065.435,1.78,1.78,0,0,0,.48-.075l4.021-1.35,1.5.51v2.415a4.5,4.5,0,1,1-9,0ZM30.407,77.8a6,6,0,0,1,11.942,0l-2.49-.84a1.5,1.5,0,0,0-.96,0l-3.616,1.215-.84-.855a1.511,1.511,0,0,0-1.065-.435,1.78,1.78,0,0,0-.48.075Zm4.276,14.778a1.367,1.367,0,0,0,.2-.69v-1.65a8.342,8.342,0,0,0,1.5.15,8.2,8.2,0,0,0,1.5-.15v1.65a1.367,1.367,0,0,0,.2.69l-1.7,1.7Zm12.2,6.406a17.942,17.942,0,0,1-9,3.331V97.005l3.031-3.031,5.971,2Zm7.5-14.6a17.9,17.9,0,0,1-4.5,11.867V94.89a1.521,1.521,0,0,0-1.02-1.425l-7.982-2.656V88.844a7.43,7.43,0,0,0,3-5.956V81.372a1.4,1.4,0,0,0,.87-.27,1.475,1.475,0,0,0,.63-1.215v-1.5a9,9,0,0,0-18,0v1.5a1.475,1.475,0,0,0,.63,1.215,1.4,1.4,0,0,0,.87.27v1.515A7.521,7.521,0,0,0,31.082,88.2a6.5,6.5,0,0,0,.8.645v1.965L23.9,93.464a1.521,1.521,0,0,0-1.02,1.425v1.365A17.993,17.993,0,1,1,54.382,84.388Zm6-22.5a1.5,1.5,0,1,1,1.5-1.5A1.5,1.5,0,0,1,60.383,61.883Zm22.5,40.508a19.5,19.5,0,1,1,19.5-19.5A19.5,19.5,0,0,1,82.887,102.391Z" transform="translate(319.176 1327.469)"/>
    <path id="Trazado_996365" data-name="Trazado 996365" d="M321,311a7.511,7.511,0,0,0-3.136-6.076,7.489,7.489,0,0,0-13.368-5.9A7.486,7.486,0,0,0,291,303.5a6.481,6.481,0,0,0,.15,1.425,7.445,7.445,0,0,0-.015,12.152,7.483,7.483,0,0,0,13.368,5.881A7.479,7.479,0,0,0,318,318.5a6.478,6.478,0,0,0-.15-1.425A7.466,7.466,0,0,0,321,311Zm-18,7.5a4.5,4.5,0,0,1-9,0c0-.06.015-.105.015-.15a8.029,8.029,0,0,0,1.485.15,7.557,7.557,0,0,0,3.751-1.005l-1.5-2.611a4.39,4.39,0,0,1-4.216.15,4.48,4.48,0,0,1,.03-8.087,4.42,4.42,0,0,1,4.186.165l1.5-2.611a7.651,7.651,0,0,0-5.236-.84c0-.06-.015-.105-.015-.165a4.5,4.5,0,0,1,8.867-1.1,4.135,4.135,0,0,1,.135,1.1Zm12.437-3.451a4.42,4.42,0,0,1-4.186-.165l-1.5,2.611A7.557,7.557,0,0,0,313.5,318.5a8.029,8.029,0,0,0,1.485-.15c0,.045.015.09.015.15a4.5,4.5,0,0,1-9,0v-15a3.921,3.921,0,0,1,.15-1.125A4.5,4.5,0,0,1,315,303.5c0,.06-.015.105-.015.165a7.642,7.642,0,0,0-5.236.84l1.5,2.611a4.39,4.39,0,0,1,4.216-.15,4.48,4.48,0,0,1-.03,8.087Z" transform="translate(97.563 1099.356)"/>
    <path id="Trazado_996366" data-name="Trazado 996366" d="M116.5,86a1.5,1.5,0,0,1,1.5,1.5,1.5,1.5,0,1,0,3,0,4.5,4.5,0,0,0-3-4.225V81.5a1.5,1.5,0,0,0-3,0v1.776A4.49,4.49,0,0,0,116.5,92a1.5,1.5,0,1,1-1.5,1.5,1.5,1.5,0,1,0-3,0,4.5,4.5,0,0,0,3,4.225V99.5a1.5,1.5,0,1,0,3,0V97.727A4.49,4.49,0,0,0,116.5,89a1.5,1.5,0,0,1,0-3Z" transform="translate(240.554 1274.846)"/>
    <path id="Trazado_996367" data-name="Trazado 996367" d="M64.5,48a16.5,16.5,0,1,0,16.5,16.5A16.5,16.5,0,0,0,64.5,48Zm0,30.006a13.5,13.5,0,1,1,13.5-13.5A13.5,13.5,0,0,1,64.5,78.006Z" transform="translate(292.552 1300.845)"/>
  </g>
</svg>
