<svg xmlns="http://www.w3.org/2000/svg" width="130" height="130" viewBox="0 0 130 130">
  <g id="Grupo_1180066" data-name="Grupo 1180066" transform="translate(-1145.559 -1322.852)">
    <circle id="Elipse_13614" data-name="Elipse 13614" cx="65" cy="65" r="65" transform="translate(1145.559 1322.852)" fill="#fff"/>
    <path id="Trazado_996382" data-name="Trazado 996382" d="M186.612,17a15.419,15.419,0,0,0,7.674,25.958l3.22,4.791,3.22-4.791A15.406,15.406,0,1,0,186.612,17Z" transform="translate(1014.127 1324.534)" fill="#f0c020"/>
    <g id="Grupo_1179627" data-name="Grupo 1179627" transform="translate(1207.254 1346.145)">
      <path id="Trazado_996383" data-name="Trazado 996383" d="M246.155,64.434H235V56.25h11.155l-3.493,4.092Z" transform="translate(-235 -56.25)" fill="#fc5d3d"/>
    </g>
    <path id="Trazado_996384" data-name="Trazado 996384" d="M181.924,12.3A16.459,16.459,0,0,0,189.7,39.92l2.99,4.445a1.041,1.041,0,0,0,1.731,0l2.986-4.445a16.458,16.458,0,0,0,11.627-21.564,1.057,1.057,0,0,0-1.334-.626,1.036,1.036,0,0,0-.626,1.33,14.376,14.376,0,0,1-10.517,18.916,1,1,0,0,0-.646.438l-2.356,3.5-2.356-3.5a1,1,0,0,0-.646-.438A14.364,14.364,0,1,1,202.63,12.8a1.073,1.073,0,0,0,1.468-.15,1.044,1.044,0,0,0-.146-1.468A16.449,16.449,0,0,0,181.924,12.3Z" transform="translate(1018.077 1328.496)"/>
    <path id="Trazado_996385" data-name="Trazado 996385" d="M311.752,38.89a1.043,1.043,0,1,0,1.451.25A1.066,1.066,0,0,0,311.752,38.89Z" transform="translate(911.854 1303.779)"/>
    <path id="Trazado_996386" data-name="Trazado 996386" d="M242.2,51.25H231.043A1.042,1.042,0,0,0,230,52.293V67.305a1.043,1.043,0,1,0,2.085,0V61.519H242.2a1.043,1.043,0,0,0,.793-1.719l-2.915-3.415,2.915-3.415A1.044,1.044,0,0,0,242.2,51.25Zm-4.285,5.812,2.025,2.372h-7.853v-6.1h7.853l-2.025,2.372A1.042,1.042,0,0,0,237.913,57.062Z" transform="translate(976.211 1293.853)"/>
    <path id="Trazado_996387" data-name="Trazado 996387" d="M224.547,212.376l-6.068,6.063-2.068,2.064-6.7-6.685-4.154,4.154c3.328,3.324,7.944,7.944,8.849,8.849a3,3,0,0,0,4.22.079,3.036,3.036,0,0,0,.6-.872l2.948-2.844,4.942-4.775Z" transform="translate(995.556 1166.322)" fill="#feb69f"/>
    <path id="Trazado_996388" data-name="Trazado 996388" d="M260.423,249.046a2.936,2.936,0,0,0-.6-3.3L257.6,243.52l2.068-2.064c.634.634,1,1,2.223,2.227a5.8,5.8,0,0,1,1.48,2.519Z" transform="translate(954.366 1143.307)" fill="#ea8f7c"/>
    <path id="Trazado_996390" data-name="Trazado 996390" d="M90.747,194.893c-1.622-1.626-2.94-2.944-3.374-3.378l0,16.727H68.027V191.515l-3.374,3.378L60.5,190.739l5.088-5.083a8.329,8.329,0,0,1,5.893-2.44H83.92a8.329,8.329,0,0,1,5.893,2.44l5.088,5.083Z" transform="translate(1110.369 1189.402)" fill="#72c2e9"/>
    <path id="Trazado_996391" data-name="Trazado 996391" d="M115.962,336.206h-7.527l-.442-23.278a1.708,1.708,0,0,0-3.415,0l-.446,23.278H96.6V303.24h19.35Z" transform="translate(1081.796 1094.405)" fill="#878787"/>
    <path id="Trazado_996392" data-name="Trazado 996392" d="M331.874,382.938l-.046,2.919-.267,18.687a2.862,2.862,0,0,1-5.722.054l-.58-18.741-.1-2.919Z" transform="translate(900.894 1031.324)" fill="#feb69f"/>
    <path id="Trazado_996393" data-name="Trazado 996393" d="M380.394,382.938l-.1,2.919-.58,18.741a2.862,2.862,0,0,1-5.722-.054l-.267-18.687-.046-2.919Z" transform="translate(862.49 1031.324)" fill="#feb69f"/>
    <path id="Trazado_996394" data-name="Trazado 996394" d="M435.309,226.486a2.94,2.94,0,0,1-4.462.354l-8.787-8.478,2.581-6.047,10.275,10.275A3.036,3.036,0,0,1,435.309,226.486Z" transform="translate(824.198 1166.37)" fill="#feb69f"/>
    <path id="Trazado_996395" data-name="Trazado 996395" d="M121.976,109.936a5.535,5.535,0,0,0-5.534,5.537v4.209a5.533,5.533,0,0,0,5.534,5.534h2.216a3.32,3.32,0,0,0,3.322-3.322v-6.421A5.535,5.535,0,0,0,121.976,109.936Z" transform="translate(1066.091 1247.402)" fill="#feb69f"/>
    <path id="Trazado_996396" data-name="Trazado 996396" d="M127.512,115.473h-5.537a1.661,1.661,0,0,0-1.661,1.661v2.406a1.661,1.661,0,0,1-.505,1.193l-2.3,2.224a5.508,5.508,0,0,1-1.073-3.275v-4.209a5.536,5.536,0,1,1,11.072,0Z" transform="translate(1066.093 1247.403)" fill="#878787"/>
    <path id="Trazado_996397" data-name="Trazado 996397" d="M325.16,382.938h6.714l-.046,2.919H325.26Z" transform="translate(900.894 1031.325)" fill="#ea8f7c"/>
    <path id="Trazado_996398" data-name="Trazado 996398" d="M380.394,382.938l-.1,2.919h-6.568l-.046-2.919Z" transform="translate(862.49 1031.325)" fill="#ea8f7c"/>
    <path id="Trazado_996401" data-name="Trazado 996401" d="M240.082,313.208c-1.555-.512-2.769-.843-3.583-4.346a1.11,1.11,0,0,0-2.161,0c-.8,3.425-1.9,3.792-3.583,4.346a1.11,1.11,0,0,0,0,2.106c2.788.921,3.1,2.284,3.583,4.346a1.109,1.109,0,0,0,2.161,0c.794-3.425,1.964-3.811,3.583-4.346a1.111,1.111,0,0,0,0-2.107Z" transform="translate(976.214 1090.631)"/>
    <path id="Trazado_996402" data-name="Trazado 996402" d="M251.162,330.768a5.423,5.423,0,0,0-1.643,1.852,5.733,5.733,0,0,0-1.735-1.835,5.553,5.553,0,0,0,1.718-1.935,5.626,5.626,0,0,0,1.66,1.918Z" transform="translate(962.136 1074.135)" fill="#f0c020"/>
    <path id="Trazado_996403" data-name="Trazado 996403" d="M322.776,195.33,318.91,191.6l.726,2.052a2.709,2.709,0,0,1-.459,2.627,2.7,2.7,0,0,0-.613,1.568v8.278H303.43v-8.27a2.7,2.7,0,0,0-.613-1.572l0,0a2.709,2.709,0,0,1-.459-2.627l.734-2.073L299.2,195.33,296.62,189.3l2.427-2.423a12.522,12.522,0,0,1,9-3.657h5.888a12.518,12.518,0,0,1,9.024,3.666l2.4,2.4Z" transform="translate(923.482 1189.402)" fill="#fc5d3d"/>
    <path id="Trazado_996404" data-name="Trazado 996404" d="M324.049,311.815H297.782a1.251,1.251,0,0,1-1.165-1.707l6.742-17.029h15.134l6.722,17.03a1.251,1.251,0,0,1-1.165,1.707Z" transform="translate(923.554 1102.448)" fill="#878787"/>
    <path id="Trazado_996405" data-name="Trazado 996405" d="M377.135,227.588a1.043,1.043,0,0,1-1.043-1.033l-.011-1.251a1.043,1.043,0,0,1,1.033-1.052h.009a1.043,1.043,0,0,1,1.043,1.033l.011,1.251a1.043,1.043,0,0,1-1.033,1.052Zm-.113-5.435a1.042,1.042,0,0,1-.794-1.242,8.084,8.084,0,0,1,.783-2.105l-1.107-3.128a1.042,1.042,0,1,1,1.965-.7l1.269,3.585a1.041,1.041,0,0,1-.1.907,5.929,5.929,0,0,0-.771,1.885A1.042,1.042,0,0,1,377.022,222.153Z" transform="translate(860.777 1164.811)" fill="#ffcbc3"/>
    <path id="Trazado_996406" data-name="Trazado 996406" d="M387.637,319.894l-.456-1.165a1.043,1.043,0,0,1,1.942-.76l.456,1.165a1.043,1.043,0,0,1-1.942.76Zm-1.975-5.049-2.091-5.347a1.043,1.043,0,0,1,1.942-.76l2.091,5.347a1.043,1.043,0,0,1-1.942.76Z" transform="translate(854.719 1090.578)" fill="#efefef"/>
    <path id="Trazado_996407" data-name="Trazado 996407" d="M123.651,232.662h-5.587a1.043,1.043,0,0,1,0-2.085h4.544l0-11.513a1.043,1.043,0,0,1,2.085,0l0,12.555A1.043,1.043,0,0,1,123.651,232.662Zm-9.757,0h-1.251a1.043,1.043,0,1,1,0-2.085h1.251a1.043,1.043,0,1,1,0,2.085Z" transform="translate(1069.924 1161.854)" fill="#c5e5fe"/>
    <circle id="Elipse_13645" data-name="Elipse 13645" cx="1.043" cy="1.043" r="1.043" transform="translate(1177.354 1413.087)"/>
    <path id="Trazado_996408" data-name="Trazado 996408" d="M312.955,40.591a1.042,1.042,0,0,0,.246-1.451,1.066,1.066,0,0,0-1.451-.25,1.041,1.041,0,0,0-.246,1.455v0A1.046,1.046,0,0,0,312.955,40.591Z" transform="translate(911.855 1303.779)"/>
    <path id="Trazado_996409" data-name="Trazado 996409" d="M351.663,143.542a5.48,5.48,0,0,1-4.917,3.059h-2.194a3.289,3.289,0,0,1-3.289-3.289v-6.357h2.657a3.289,3.289,0,0,1,3.289,3.289v.01a3.289,3.289,0,0,0,3.289,3.289h1.164Z" transform="translate(888.147 1226.019)" fill="#feb69f"/>
    <path id="Trazado_996410" data-name="Trazado 996410" d="M354.329,117.238a6.578,6.578,0,0,0-6.578-6.578h-1.006a5.483,5.483,0,0,0-5.483,5.483h2.657a3.289,3.289,0,0,1,3.289,3.289v.01a3.289,3.289,0,0,0,3.289,3.289H356.6a1.878,1.878,0,1,0,0-3.757h-.54a1.737,1.737,0,0,1-1.736-1.736Z" transform="translate(888.148 1246.83)" fill="#878787"/>
    <path id="Trazado_996411" data-name="Trazado 996411" d="M381.143,110.538a1.042,1.042,0,0,0,.872-1.893,0,0,0,0,0,0,0,1.064,1.064,0,0,0-1.38.513,1.04,1.04,0,0,0,.513,1.385Z" transform="translate(857.066 1248.499)"/>
    <path id="Trazado_996412" data-name="Trazado 996412" d="M108.37,136.867,95.693,124.19a13.41,13.41,0,0,0-7.648-3.821,6.554,6.554,0,0,0,.89-1.125H93.27a2.921,2.921,0,0,0,0-5.842h-.538a.7.7,0,0,1-.7-.692,7.59,7.59,0,0,0-.955-3.7,1.07,1.07,0,0,0-1.418-.4,1.042,1.042,0,0,0-.4,1.418,5.519,5.519,0,0,1,.7,2.686,2.779,2.779,0,0,0,2.777,2.777h.538a.836.836,0,0,1,0,1.672H87.165a2.253,2.253,0,0,1-2.248-2.254,4.336,4.336,0,0,0-4.332-4.332H79.092a4.469,4.469,0,0,1,4.049-3.389,1.042,1.042,0,1,0-.125-2.081h-.009a6.534,6.534,0,0,0-6.122,6.514v6.356a4.3,4.3,0,0,0,.763,2.45,13.552,13.552,0,0,0-7.34,3.759c-2.323,2.318-7.106,7.1-9.825,9.817-7.278-7.268-4.786-4.779-11.047-11.034a9.325,9.325,0,0,0-6.631-2.744h-.292a4.334,4.334,0,0,0,.651-2.281v-6.418a6.579,6.579,0,1,0-13.157,0v4.208a6.529,6.529,0,0,0,1.234,3.828s0,.008.008.013.021.033.033.05a6.323,6.323,0,0,0,.5.6H30.366a9.325,9.325,0,0,0-6.631,2.744l-14.008,14a3.979,3.979,0,0,0,0,5.646,4.034,4.034,0,0,0,5.7-.079L25.871,132.08V158.6a1.043,1.043,0,1,0,2.085,0V147.33H45.221l.013,30.88H39.77l-.421-22.256a2.751,2.751,0,0,0-5.5,0l-.425,22.252H27.956V166.943a1.043,1.043,0,1,0-2.085,0V183.6a4.767,4.767,0,0,0,9.533.1c.116-6.169,0-.066.53-27.707a.654.654,0,0,1,.663-.651h.008a.667.667,0,0,1,.659.651c.548,28.832.407,21.419.525,27.707a4.765,4.765,0,0,0,9.529-.1c0-10.086-.006-15.61-.017-51.519l10.446,10.446a4.042,4.042,0,0,0,5.7.071,3.975,3.975,0,0,0,.709-.972l9.016-8.7a3.775,3.775,0,0,0,.838,2.064,1.619,1.619,0,0,1,.379.942v8.036l-6.668,16.852a2.3,2.3,0,0,0,2.135,3.132h3.707c.088,2.544-.013-.638.646,20.655a3.9,3.9,0,0,0,7.807-.079c.3-21.218.259-18.053.3-20.576h1.351l.3,20.58a3.9,3.9,0,0,0,7.807.071c.655-21.185.559-18.1.646-20.651h3.707a2.3,2.3,0,0,0,2.139-3.128L91.606,144v-8.082a1.615,1.615,0,0,1,.375-.934,3.762,3.762,0,0,0,.834-2.052l10.009,9.658a3.979,3.979,0,0,0,6.043-.484,4.086,4.086,0,0,0-.5-5.242ZM33.319,183.661a2.682,2.682,0,0,1-5.363-.058V180.3h5.425Zm11.914-.054a2.68,2.68,0,0,1-5.359.054l-.063-3.365h5.421Zm33.737-70.948h1.613a2.265,2.265,0,0,1,2.248,2.251v.005a4.352,4.352,0,0,0,3.464,4.243,4.414,4.414,0,0,1-2.885,1.061H81.217a2.249,2.249,0,0,1-2.247-2.247Zm-46.878-1.138a4.489,4.489,0,0,1,8.858-1.043H36.584a2.7,2.7,0,0,0-2.7,2.7v2.406a.622.622,0,0,1-.188.442L32.381,117.3a4.434,4.434,0,0,1-.288-1.572Zm8.987,1.043v5.375A2.282,2.282,0,0,1,38.8,120.22H36.584a4.5,4.5,0,0,1-3.011-1.172l1.572-1.522a2.717,2.717,0,0,0,.822-1.939V113.18a.616.616,0,0,1,.617-.617ZM13.952,141.05a1.967,1.967,0,0,1-2.744.079,1.894,1.894,0,0,1-.008-2.694l8.186-8.178,2.677,2.681Zm33.1-12.169a1.044,1.044,0,0,0-1.835.68l0,15.684H27.956V129.561a1.044,1.044,0,0,0-1.781-.738l-2.636,2.64-2.677-2.677,4.35-4.345a7.243,7.243,0,0,1,5.154-2.135h12.44a7.243,7.243,0,0,1,5.154,2.135l4.35,4.345-2.677,2.677C48.419,130.245,47.456,129.286,47.052,128.881Zm14.913,12.248a1.948,1.948,0,0,1-2.744-.079c-2.552-2.556-5.571-5.576-8.111-8.111,1.643-1.648,1.033-1.037,2.677-2.681l8.19,8.178a1.9,1.9,0,0,1-.013,2.694Zm2.435-2.636a3.963,3.963,0,0,0-.951-1.535L61.96,135.47l6.305-6.3,1.689,3.958Zm15.53,46a1.819,1.819,0,0,1-3.636.038l-.58-18.745-.063-1.839h4.575Zm9.75.033a1.819,1.819,0,0,1-3.636-.033l-.267-18.687-.029-1.86h4.575Zm6.635-22.949a.208.208,0,0,1-.2.284H69.854a.209.209,0,0,1-.2-.284l6.405-16.368H89.913Zm-4.5-32.515-.663-1.881a1.043,1.043,0,1,0-1.968.692c1.2,3.41.27.754,1.472,4.166a1.677,1.677,0,0,1-.275,1.614,3.694,3.694,0,0,0-.855,2.244v7.227H76.472v-7.219a3.706,3.706,0,0,0-.867-2.264,1.675,1.675,0,0,1-.267-1.6l1.418-4a1.044,1.044,0,0,0-1.968-.7l-.6,1.7-2.623,2.531-1.71-4,1.931-1.922a11.427,11.427,0,0,1,8.257-3.353H85.93a11.44,11.44,0,0,1,8.286,3.361l1.906,1.9-1.71,4.008Zm15.371,11.823a1.9,1.9,0,0,1-2.894.217l-8.27-7.978,1.693-3.97,9.183,9.187a1.989,1.989,0,0,1,.288,2.544Z" transform="translate(1151.482 1251.357)"/>
  </g>
</svg>
