<svg xmlns="http://www.w3.org/2000/svg" width="130" height="130" viewBox="0 0 130 130">
  <g id="Grupo_1180067" data-name="Grupo 1180067" transform="translate(-319.059 -1727.484)">
    <circle id="Elipse_13614" data-name="Elipse 13614" cx="65" cy="65" r="65" transform="translate(319.059 1727.484)" fill="#fff"/>
    <g id="Grupo_1179638" data-name="Grupo 1179638" transform="translate(342.122 1740.519)">
      <path id="Trazado_996413" data-name="Trazado 996413" d="M181.877,63.023c-.633-5.194-.633-18.032,0-21.546.028-.158.062-.311.1-.469,2.7-13.008,17.5-14.2,20.885-1.166.148.571.271,1.166.379,1.782.6,3.411.6,16.092.022,21.065a9.205,9.205,0,0,0-6.276-2.473H188.49a9.229,9.229,0,0,0-6.613,2.806Z" transform="translate(-149.201 -30.641)" fill="#037994" fill-rule="evenodd"/>
      <path id="Trazado_996414" data-name="Trazado 996414" d="M173.966,147.04h10.473a9.258,9.258,0,0,1,9.234,9.234V165.5H164.73v-9.228a9.262,9.262,0,0,1,9.236-9.234Z" transform="translate(-135.857 -123.806)" fill="#f59eae" fill-rule="evenodd"/>
      <path id="Trazado_996415" data-name="Trazado 996415" d="M177.744,147.04h10.473a9.258,9.258,0,0,1,9.234,9.234v3.553a20.854,20.854,0,0,1-11.966,1.6c-7.072-.962-13.178-4.663-16.034-9.2a9.266,9.266,0,0,1,8.294-5.188Z" transform="translate(-139.635 -123.806)" fill="#fac7cf" fill-rule="evenodd"/>
      <path id="Trazado_996416" data-name="Trazado 996416" d="M218.59,111.253c.493-.916.367-2.988.367-8.833h8.08c0,5.844-.12,8.006.317,8.94C224.814,114.115,221.069,114.309,218.59,111.253Z" transform="translate(-178.966 -88.093)" fill="#f9b5b2" fill-rule="evenodd"/>
      <path id="Trazado_996417" data-name="Trazado 996417" d="M217.937,50.729a18.744,18.744,0,0,1-.8,5.166c-.12.339-.238.667-.361,1-2.439,5.974-8.086,6.535-11.124,1.675-1.783-2.174-2.755-8.238-1.222-12.408,6.326-4.459,8.058-3.118,12.962,0a31.754,31.754,0,0,1,.549,4.571Z" transform="translate(-167.019 -40.769)" fill="#f9b5b2" fill-rule="evenodd"/>
      <path id="Trazado_996418" data-name="Trazado 996418" d="M184.26,41.015v-.006c2.7-13.008,17.5-14.2,20.885-1.166.148.571.271,1.166.379,1.782a8.6,8.6,0,0,1-8.928-4.99,14.55,14.55,0,0,1-12.336,4.379Z" transform="translate(-151.489 -30.641)" fill="#037994" fill-rule="evenodd"/>
      <path id="Trazado_996419" data-name="Trazado 996419" d="M344.5,395.13h9.687a8.562,8.562,0,0,1,8.533,8.537V412.2H335.97v-8.533A8.561,8.561,0,0,1,344.5,395.13Z" transform="translate(-272.916 -322.376)" fill="#73ccd6" fill-rule="evenodd"/>
      <path id="Trazado_996420" data-name="Trazado 996420" d="M349.954,395.13h9.687a8.562,8.562,0,0,1,8.533,8.537v1.81c-2.575,2.02-6.853,2.97-11.7,2.264-6.507-.95-11.99-4.571-13.693-8.679a8.548,8.548,0,0,1,7.174-3.932Z" transform="translate(-278.367 -322.376)" fill="#aadee9" fill-rule="evenodd"/>
      <path id="Trazado_996421" data-name="Trazado 996421" d="M385.75,362.07c.459-.848.345-2.761.345-8.16h7.463c0,5.4-.108,7.4.293,8.262-2.347,2.545-5.8,2.721-8.1-.1Z" transform="translate(-312.76 -289.383)" fill="#f9b5b2" fill-rule="evenodd"/>
      <path id="Trazado_996422" data-name="Trazado 996422" d="M385.152,306.09a17.409,17.409,0,0,1-.741,4.781c-.108.311-.222.617-.333.916-2.252,5.527-7.475,6.042-10.286,1.551-1.647-2.008-2.547-7.615-1.126-11.469,5.85-4.124,7.445-2.886,11.978,0A28.682,28.682,0,0,1,385.152,306.09Z" transform="translate(-301.722 -245.609)" fill="#f9b5b2" fill-rule="evenodd"/>
      <path id="Trazado_996423" data-name="Trazado 996423" d="M424.373,308.44c4.124.435,3.91,3.525,2.727,6.791a14.9,14.9,0,0,0-3.978-1.832A8.363,8.363,0,0,1,424.373,308.44Z" transform="translate(-342.658 -252.99)" fill="#fbcc1b" fill-rule="evenodd"/>
      <path id="Trazado_996424" data-name="Trazado 996424" d="M375.481,305.1a8.344,8.344,0,0,1,1.25-4.956q-11.213-6.348-13.15,6.785a7.249,7.249,0,0,1,5.375-1.619,8.05,8.05,0,0,0,6.525-.21Z" transform="translate(-295.015 -244.697)" fill="#fbcc1b" fill-rule="evenodd"/>
      <path id="Trazado_996425" data-name="Trazado 996425" d="M38.294,395.13H28.613a8.558,8.558,0,0,0-8.533,8.537V412.2H46.825v-8.533A8.554,8.554,0,0,0,38.294,395.13Z" transform="translate(-20.08 -322.376)" fill="#61b1da" fill-rule="evenodd"/>
      <path id="Trazado_996426" data-name="Trazado 996426" d="M44.329,395.13H34.648a8.556,8.556,0,0,0-7.028,3.707c1.591,4.2,7.158,7.938,13.783,8.906,4.7.685,8.867-.188,11.457-2.082v-1.992A8.555,8.555,0,0,0,44.329,395.13Z" transform="translate(-26.115 -322.376)" fill="#6dcff1" fill-rule="evenodd"/>
      <path id="Trazado_996427" data-name="Trazado 996427" d="M71.812,362.07c-.453-.848-.339-2.761-.339-8.16H64c0,5.4.114,7.4-.293,8.262,2.353,2.545,5.811,2.721,8.1-.1Z" transform="translate(-55.001 -289.383)" fill="#f9b5b2" fill-rule="evenodd"/>
      <path id="Trazado_996428" data-name="Trazado 996428" d="M52.03,306.09a17.185,17.185,0,0,0,.741,4.781c.108.311.222.617.327.916,2.258,5.527,7.479,6.042,10.286,1.551,1.647-2.008,2.547-7.615,1.132-11.469-5.85-4.124-7.445-2.886-11.984,0A28.652,28.652,0,0,0,52.03,306.09Z" transform="translate(-45.653 -245.609)" fill="#f9b5b2" fill-rule="evenodd"/>
      <path id="Trazado_996429" data-name="Trazado 996429" d="M42.042,295.97c1.856-1.212,3.445-2.8,6.553-1.906,2.439.7,4.747.978,7.254-.216,4.815-2.285.984-12.771-5.024-7.373a6.259,6.259,0,0,1-4.425,1.267c-7.968-2.455-9.258,8.212-4.357,8.228Z" transform="translate(-35.353 -234.188)" fill="#511c55" fill-rule="evenodd"/>
      <path id="Trazado_996430" data-name="Trazado 996430" d="M243.161,312.636a15.079,15.079,0,0,1-14.3,19.849,15.256,15.256,0,0,1-3.547-.419l.928-3.83a3.155,3.155,0,0,0,.737.086,3.255,3.255,0,0,0,.792-6.411l1.092-4.5,4.5-1.5a3.33,3.33,0,0,1-.2-1.138,3.255,3.255,0,0,1,6.377-.922Z" transform="translate(-184.345 -255.447)" fill="#aadee9" fill-rule="evenodd"/>
      <path id="Trazado_996431" data-name="Trazado 996431" d="M170.166,298.55a15.085,15.085,0,0,0,8.918,23.142l.928-3.83a3.155,3.155,0,0,0,.737.086,3.255,3.255,0,0,0,.792-6.411l1.092-4.5-3.158-2.144a3.255,3.255,0,1,1-5.381-3.663Z" transform="translate(-138.117 -245.074)" fill="#6dcff1" fill-rule="evenodd"/>
      <path id="Trazado_996432" data-name="Trazado 996432" d="M180.64,272.092a15.076,15.076,0,0,1,26.769,3.713l-3.627,1.212a3.255,3.255,0,0,0-6.377.922,3.338,3.338,0,0,0,.2,1.138l-4.5,1.5-3.158-2.144a3.255,3.255,0,1,1-5.381-3.663Z" transform="translate(-148.591 -218.616)" fill="#f59eae" fill-rule="evenodd"/>
    </g>
    <path id="Trazado_996433" data-name="Trazado 996433" d="M83.252,113.448v-7.216a1.4,1.4,0,1,1,2.794,0v7.214h9.721v-7.214a1.4,1.4,0,1,1,2.794,0v7.214h4.325v-7.134a7.162,7.162,0,0,0-6.723-7.124c-.142.136-.293.265-.447.391a6.718,6.718,0,0,1-4.26,1.585,6.312,6.312,0,0,1-4.29-1.743c-.086-.08-.17-.164-.256-.25h-.848a7.17,7.17,0,0,0-7.136,7.142v7.134Zm-63.054,0v-7.216a1.4,1.4,0,0,1,2.794,0v7.214h9.715v-7.214a1.4,1.4,0,1,1,2.794,0v7.214h4.323v-7.134a7.159,7.159,0,0,0-7.136-7.142h-.848c-.08.086-.164.17-.25.25a6.323,6.323,0,0,1-4.29,1.743,6.746,6.746,0,0,1-4.266-1.585c-.154-.124-.3-.256-.447-.391a7.151,7.151,0,0,0-6.717,7.124v7.134H20.2Zm25.23-35.811a16.47,16.47,0,0,1,29.191,4.13.334.334,0,0,1,.012.04,16.271,16.271,0,0,1,.623,2.535,16.474,16.474,0,0,1-16.262,19.114,17.138,17.138,0,0,1-1.952-.114A16.048,16.048,0,0,1,55.173,103a.187.187,0,0,1-.056-.012,16.47,16.47,0,0,1-9.795-25.2v-.006h.006v-.006l.006-.006v-.006h.006v-.012h.006v-.006l.006-.006v-.006h.006v-.006a.152.152,0,0,0,.016-.022v-.006h.006V77.7l.012-.012v-.006H45.4v-.012h0v-.006h.006v-.006l.006-.006.012-.012v-.006h.006v0Zm8.006-3.168a13.647,13.647,0,0,0-4.916,3.7l2.721,1.85a1.39,1.39,0,0,1,.361,1.934,1.893,1.893,0,0,0-.238.5,1.832,1.832,0,0,0-.08.549,1.874,1.874,0,0,0,.543,1.317,1.865,1.865,0,0,0,2.186.327,1.9,1.9,0,0,0,.667-.6,1.392,1.392,0,0,1,1.94-.367L59.2,85.44l2.693-.9c-.006-.068-.006-.136-.006-.2a4.649,4.649,0,0,1,8.487-2.631l1.086-.361a13.686,13.686,0,0,0-18.028-6.88Zm-6.485,6A13.738,13.738,0,0,0,46.219,91.9a13.744,13.744,0,0,0,8.216,7.988l.577-2.405a1.388,1.388,0,0,1,1.669-1.03v-.006a2.078,2.078,0,0,0,.21.04h.022a1.867,1.867,0,0,0,1.663-2.994,1.869,1.869,0,0,0-1.012-.657,1.393,1.393,0,0,1-1.018-1.693.357.357,0,0,1,.022-.074l.842-3.485-1.385-.94a5.184,5.184,0,0,1-.713.463,4.641,4.641,0,0,1-6.621-5.455ZM72.5,84.777c-.04-.265-.09-.527-.148-.786l-2.2.737c-.034.012-.062.016-.1.028a1.4,1.4,0,0,1-1.731-.944,1.859,1.859,0,0,0-1.782-1.329,1.864,1.864,0,0,0-1.856,1.862,1.994,1.994,0,0,0,.022.333v.006h.006v.03l.006.006v.024h.006v.024l.006.006v.018l.006.006v.018l.006.006v.018l.006.006v.018h.006v.018l.006.006V84.9l.006.006v.012l.006.006v.018h.006v.018h.006v.018c.012.022.022.052.034.08a1.393,1.393,0,0,1-.882,1.761l-3.775,1.262-.633,2.615a4.669,4.669,0,0,1,2.23,3.966A4.656,4.656,0,0,1,57.451,99.3l-.305,1.256c.074.012.148.022.226.028a12.736,12.736,0,0,0,1.625.1A13.678,13.678,0,0,0,72.677,87a14.529,14.529,0,0,0-.18-2.22Zm-45.848-11.6a1.4,1.4,0,1,1-2.689-.753,32.8,32.8,0,0,1,5.1-10.406,34.359,34.359,0,0,1,8.493-8.142,1.4,1.4,0,0,1,1.561,2.313,31.466,31.466,0,0,0-7.8,7.479A29.808,29.808,0,0,0,26.649,73.174Zm48.926-17.23A1.4,1.4,0,1,1,77.1,53.608a34.309,34.309,0,0,1,8.879,8.4,32.557,32.557,0,0,1,5.228,10.831,1.4,1.4,0,0,1-2.7.725,29.787,29.787,0,0,0-4.775-9.906A31.58,31.58,0,0,0,75.575,55.944Zm-2.763,52.1a1.4,1.4,0,0,1,1.283,2.479,35.338,35.338,0,0,1-8.012,3,36.373,36.373,0,0,1-15.1.423A35.489,35.489,0,0,1,44.7,112.2a1.394,1.394,0,1,1,.99-2.607,33.706,33.706,0,0,0,19.741,1.222,32.714,32.714,0,0,0,7.385-2.773Zm-52-22.673.323-.226c1.838-1.273,3.661-2.541,6.97-1.591a12.262,12.262,0,0,0,3.226.561,6.832,6.832,0,0,0,3.05-.691,2.9,2.9,0,0,0,1.357-3.066,4.753,4.753,0,0,0-.633-1.93,2.7,2.7,0,0,0-1.16-1.1c-.747-.327-1.788-.12-3.062,1.024a6.06,6.06,0,0,1-2.9,1.425,12.168,12.168,0,0,1-2.455.2,1.418,1.418,0,0,1-.413-.062c-2.2-.679-3.695-.12-4.533.876a4.036,4.036,0,0,0-.826,1.783,3.6,3.6,0,0,0,.074,1.782A1.452,1.452,0,0,0,20.809,85.366Zm1.906,2.072c-.1.062-.192.13-.289.2.034.25.074.487.12.719a12.479,12.479,0,0,0,.367,1.493l.154.425c.068.176.018.034.17.441l.006.012a6.4,6.4,0,0,0,2.381,3.1,3.546,3.546,0,0,0,1.539.549,3.277,3.277,0,0,0,1.545-.244,5.073,5.073,0,0,0,2.319-2.11,1.335,1.335,0,0,1,.108-.148h-.006a6.965,6.965,0,0,0,1.12-2.683,15.31,15.31,0,0,0,.361-2.371,9.148,9.148,0,0,1-1.3.074,14.459,14.459,0,0,1-3.978-.651C25.29,85.649,24.012,86.537,22.715,87.438Zm-3.066.5a4.163,4.163,0,0,1-2.461-2.711,6.379,6.379,0,0,1-.17-3.18,6.8,6.8,0,0,1,1.425-3.05c1.465-1.749,3.892-2.785,7.282-1.81a8.7,8.7,0,0,0,1.687-.142,3.4,3.4,0,0,0,1.6-.77c2.242-2.014,4.345-2.252,6.042-1.505a5.463,5.463,0,0,1,2.427,2.212,7.555,7.555,0,0,1,1.024,3.1,5.58,5.58,0,0,1-2.936,5.862,1.362,1.362,0,0,1-.136.062,18.391,18.391,0,0,1-.463,3.814,9.9,9.9,0,0,1-1.629,3.757,9.656,9.656,0,0,1-1.008,1.313c.006.617.022,1.11.056,1.493h.3a9.95,9.95,0,0,1,9.93,9.93v8.533a1.4,1.4,0,0,1-1.4,1.4H14.477a1.4,1.4,0,0,1-1.4-1.4v-8.531a9.955,9.955,0,0,1,8.968-9.885l.006-.062c.034-.537.046-1.2.052-2.054a10.772,10.772,0,0,1-1.443-2.523.764.764,0,0,1-.046-.1c-.04-.108.006.016-.17-.469-.022-.068-.074-.216-.164-.475l-.018-.04a15.593,15.593,0,0,1-.459-1.822c-.062-.311-.112-.623-.158-.946Zm9.986,8.827a6.014,6.014,0,0,1-2.721.379,6.171,6.171,0,0,1-2.076-.577c-.022.3-.052.565-.09.808l.052.046a4,4,0,0,0,2.507.962,3.557,3.557,0,0,0,2.4-1.012l.016-.016C29.687,97.168,29.659,96.977,29.635,96.761Zm63.9-12.244c.006-.13.012-.255.022-.379v-.006c0-.056.006-.12.012-.182l.006-.006V83.9c.006-.046.012-.09.016-.142v-.006l.006-.028v-.012l.006-.022v-.028l.006-.034v-.006l.006-.052v-.006l.006-.034v-.006l.006-.022.006-.022v-.012l.006-.028v-.006c.006-.034.006-.062.012-.1l.006-.022.006-.022v-.012l.006-.028v-.006l.006-.028.006-.022v-.006l.006-.034v-.006l.006-.022.006-.022V83.1l.006-.028v-.006l.006-.028.006-.016v-.012l.006-.034.006-.028.006-.022V82.91l.012-.028v-.006l.006-.028v-.018l.006-.012.006-.034.006-.028.006-.016.006-.012.006-.034.006-.028.006-.016v-.016l.012-.028.006-.034.006-.012v-.016l.012-.028.006-.028.006-.022.012-.046.006-.022.006-.022.006-.022.006-.022.006-.022.006-.022.006-.006.012-.04v-.006l.006-.022.006-.018v-.006l.006-.022.006-.018.006-.006.006-.022.006-.018V82.1l.006-.022.006-.016.006-.006.006-.022.006-.016v-.012L94,81.984,94,81.972l.006-.012.006-.022.006-.012v-.012l.006-.022.006-.012.006-.012.006-.022.006-.012v-.012l.012-.022v-.012l.006-.012.012-.022v-.012l.006-.012.006-.022L94.1,81.7l.006-.016.006-.022.006-.006.006-.016.006-.022v-.006l.016-.04v-.006l.006-.016.012-.022v-.006l.006-.016.012-.022v-.006l.006-.018.012-.022v-.006l.006-.018.012-.022.006-.022.012-.022.016-.046.012-.022.006-.022.018-.04v-.006l.016-.04.006-.006.006-.022.012-.016v-.006l.012-.016.006-.022.012-.022q-4.081-2.012-6.381-.82-1.934.994-2.914,4.379l.148-.046a8.552,8.552,0,0,1,3.389-.317,1.281,1.281,0,0,1,.357.086,8.137,8.137,0,0,0,2.908.487,6.179,6.179,0,0,0,1.677-.317Zm1.5,2.4a8.525,8.525,0,0,1-3.13.691,10.73,10.73,0,0,1-3.781-.6,5.936,5.936,0,0,0-1.952.176,14.84,14.84,0,0,0,.447,2.479,6.376,6.376,0,0,0,1,2.206.811.811,0,0,1,.1.148,5.131,5.131,0,0,0,2.319,2.11,3.288,3.288,0,0,0,1.545.244,3.569,3.569,0,0,0,1.545-.549,6.42,6.42,0,0,0,2.381-3.1l.006-.012c.142-.391.1-.265.164-.441l.154-.425a12.862,12.862,0,0,0,.385-1.567c.052-.265.1-.549.136-.838q-.653-.3-1.323-.525ZM83.547,88.557a1.395,1.395,0,0,1-1.884-1.505q1.069-7.273,5-9.3,3.877-2,9.974,1.363c2.569.351,3.824,1.6,4.266,3.349a9.372,9.372,0,0,1-.667,5.268,1.4,1.4,0,0,1-1.24.916c-.006.052-.016.1-.022.142A16.122,16.122,0,0,1,98.49,90.7l-.012.04c-.09.259-.142.407-.17.475-.176.487-.13.379-.164.469-.016.034-.028.068-.046.1a10.945,10.945,0,0,1-1.443,2.523c0,.854.012,1.517.052,2.054l.006.062a9.968,9.968,0,0,1,8.968,9.885v8.533a1.4,1.4,0,0,1-1.4,1.4H77.533a1.4,1.4,0,0,1-1.4-1.4v-8.531a9.96,9.96,0,0,1,9.93-9.93h.3c.034-.385.056-.876.062-1.493a9.675,9.675,0,0,1-1.012-1.313A9.317,9.317,0,0,1,83.944,90.4a15.471,15.471,0,0,1-.4-1.844ZM98.2,83.142a1.624,1.624,0,0,0-1.256-1.114l-.006.016-.012.018-.006.012v.006L96.9,82.1v.012l-.006.006-.006.016-.012.016-.006.022-.006.016-.006.012-.006.006-.012.034-.012.016-.006.022-.006.016-.006.016-.006.012-.006.006-.006.016-.006.012v.006l-.006.022-.006.006-.006.012-.006.016-.006.018-.006.016-.006.022-.006.006-.006.012-.006.016v.006l-.006.012-.006.016-.006.022-.006.018-.012.016-.006.016-.006.018v.006l-.006.016-.006.016-.006.018-.006.016-.006.022-.006.006v.012l-.006.016-.006.006v.012l-.006.018V82.8l-.006.016-.006.012v.006l-.006.018-.006.012v.006l-.006.022-.006.006v.012l-.006.016-.006.022-.006.012v.006l-.006.016-.006.012V83l-.006.022-.006.016-.006.018-.006.016v.016l-.006.006-.006.018v.018l-.006.022-.006.018-.006.016L96.5,83.2v.012l-.006.006v.016l-.006.012v.012l-.006.016v.006l-.006.012-.006.016v.022l-.006.012v.006l-.006.022v.006l-.006.012v.022l-.006.018-.006.016-.006.022v.018l-.006.016v.012l-.006.012v.016l-.006.016v.018l-.006.006V83.6l-.006.012v.03l-.006.006v.012l-.006.022V83.7l-.006.016v.024l-.006.012v.006l-.006.022V83.8l-.006.016v.022l-.006.012v.034l-.006.012v.022l-.006.016v.016l-.006.034v.006l-.006.022v.04l-.006.018v.016l-.006.022v.04l-.006.006v.05l-.006.018v.04l-.006.022v.04l-.006.016v.05l-.006.028c.425.154.842.323,1.25.515.17.08.345.158.515.25a4.177,4.177,0,0,0,.132-2.036ZM93.923,96.564a6.209,6.209,0,0,1-2.076.577,5.976,5.976,0,0,1-2.721-.379c-.022.216-.052.407-.086.589l.016.016a3.537,3.537,0,0,0,2.4,1.012,4,4,0,0,0,2.507-.962l.052-.046C93.975,97.128,93.947,96.863,93.923,96.564ZM49.434,65.319v-6.2a1.4,1.4,0,1,1,2.794,0v6.2H63.415v-6.2a1.4,1.4,0,1,1,2.794,0v6.2h4.685V57.489a7.865,7.865,0,0,0-7.429-7.825c-.164.158-.333.305-.509.453A7.191,7.191,0,0,1,58.413,51.8a6.642,6.642,0,0,1-4.561-1.856c-.1-.09-.2-.192-.305-.293h-.96a7.865,7.865,0,0,0-7.837,7.837v7.831h4.685ZM45.863,35.19c.012-.062.022-.12.04-.182V35c.016-.068.028-.136.046-.2V34.8c.028-.13.062-.265.1-.4v-.012c.018-.062.034-.124.052-.188v-.016c.018-.062.034-.124.052-.182v-.016c.09-.323.188-.645.289-.956v-.006c.046-.124.086-.244.13-.367v-.006c.022-.056.04-.114.062-.176l.006-.012c.022-.056.04-.114.062-.17l.006-.012c.068-.182.136-.351.21-.521l.006-.022c.022-.052.046-.1.068-.154l.006-.018a1.27,1.27,0,0,1,.074-.158l.006-.016c.022-.052.046-.1.068-.154l.012-.016c.022-.052.046-.1.068-.154l.012-.018c.022-.052.046-.1.074-.154l.006-.012c.052-.108.108-.216.158-.323h.006a1.3,1.3,0,0,1,.08-.158l.006-.012c.028-.052.056-.1.086-.148v-.012c.056-.1.114-.2.17-.3l.016-.028c.028-.046.052-.09.08-.13v-.006c.062-.1.124-.2.188-.3l.006-.012c.028-.046.056-.09.086-.136l.016-.022c.028-.04.056-.086.086-.124l.006-.012a1.37,1.37,0,0,1,.09-.13l.012-.022c.028-.04.056-.086.086-.124l.012-.018c.034-.04.062-.086.09-.124l.006-.006c.034-.046.062-.09.1-.13l.016-.022c.028-.04.056-.08.086-.12l.016-.022c.028-.04.056-.074.09-.114l.012-.016c.028-.04.062-.08.09-.12l.012-.006a.85.85,0,0,1,.1-.124l.012-.016c.034-.034.062-.074.1-.114l.012-.018a.876.876,0,0,0,.1-.114l.012-.012c.034-.04.068-.074.1-.114l.022-.022a1.006,1.006,0,0,1,.086-.1l.034-.04c.028-.028.052-.056.08-.086l.028-.034c.028-.028.056-.062.086-.09l.028-.028.086-.086.04-.046c.028-.022.052-.052.08-.074l.034-.034a.6.6,0,0,1,.08-.08l.046-.046.074-.074.028-.022c.028-.028.056-.056.09-.086l.04-.04c.028-.022.052-.052.08-.074s.074-.068.114-.1H50.6l.056-.056a.837.837,0,0,0,.068-.056l.034-.028c.028-.022.056-.046.086-.074h.006c.034-.034.074-.062.114-.1h.006l.062-.052.062-.056c.04-.028.08-.062.124-.09v-.006l.056-.04.074-.056c.04-.028.08-.062.12-.09h.006c.04-.034.086-.062.124-.09v-.006c.046-.028.086-.056.13-.086v-.006c.046-.028.086-.056.13-.086a11.067,11.067,0,0,1,5.8-1.93,10.45,10.45,0,0,1,5.868,1.533A13.845,13.845,0,0,1,69.5,33.869c.086.333.158.645.222.928.074.339.136.657.192.962a49.335,49.335,0,0,1,.407,5.872c.068,2.5.08,5.391.022,8.1.08.08.164.158.244.238a10.6,10.6,0,0,1,3.124,7.509v9.228a1.4,1.4,0,0,1-1.4,1.4H43.37a1.4,1.4,0,0,1-1.4-1.4v-9.22A10.6,10.6,0,0,1,45.1,49.979c.08-.08.164-.158.25-.238-.062-2.755-.052-5.669.022-8.188a48.109,48.109,0,0,1,.435-5.94,2.528,2.528,0,0,0,.046-.265c.048-.327-.008-.028.014-.158Zm21.428,2.274c-.226,0-.459-.012-.691-.028-.04.305-.086.6-.136.894a17.337,17.337,0,0,1-.549,2.236L65.9,40.6h.006l-.188.527c-.182.5-.148.407-.182.5a.583.583,0,0,1-.046.108,11.33,11.33,0,0,1-1.573,2.733c.006.95.016,1.687.056,2.276.006.056.006.108.012.164a10.576,10.576,0,0,1,3.577.962c.016-2.1.006-4.244-.052-6.15C67.473,40.045,67.4,38.568,67.291,37.464Zm-3.423-.651a10.274,10.274,0,0,1-1.317-.617,9.991,9.991,0,0,1-3.3-2.97A15.978,15.978,0,0,1,54.4,35.987a17.012,17.012,0,0,1-1.832.527,15.645,15.645,0,0,0,.469,2.834,7.164,7.164,0,0,0,1.148,2.585h-.006a1.332,1.332,0,0,1,.108.148,5.647,5.647,0,0,0,2.563,2.331,3.594,3.594,0,0,0,1.727.265,3.931,3.931,0,0,0,1.715-.6,7.081,7.081,0,0,0,2.625-3.405l.006-.012c.154-.419.12-.311.182-.481.012-.046.062-.182.164-.481h.006a14.488,14.488,0,0,0,.441-1.838C63.776,37.516,63.828,37.171,63.868,36.813ZM49.8,36.881c-.459.022-.922.022-1.385.006-.136,1.138-.232,2.812-.289,4.741s-.068,4.1-.046,6.236a10.548,10.548,0,0,1,4.5-1.008h.425l.012-.074c.04-.429.056-.984.068-1.7a10.142,10.142,0,0,1-1.114-1.443,10,10,0,0,1-1.629-3.587A18.381,18.381,0,0,1,49.8,36.881Zm1.459-7.032c-.068.08-.136.164-.2.25l-.016.018-.058.072-.016.028-.056.068-.022.034-.052.074-.012.016c-.09.12-.176.244-.255.367l-.016.028-.052.08-.018.028L50.434,31l-.006.012a.926.926,0,0,0-.062.1c-.086.136-.17.283-.25.425l-.006.006c-.016.034-.04.068-.056.1l-.006.018a.856.856,0,0,0-.056.1l-.006.006c-.12.226-.232.453-.339.691v.006a1.213,1.213,0,0,1-.052.114l0,.008a12.805,12.805,0,0,0-.571,1.523l-.006.006a13.142,13.142,0,0,0,9.523-4.024,1.308,1.308,0,0,1,.475-.351,1.391,1.391,0,0,1,1.844.7A7.216,7.216,0,0,0,63.9,33.765a7.3,7.3,0,0,0,1.737.7.788.788,0,0,1,.114.028,8.076,8.076,0,0,0,1.052.17v-.006l-.006-.012V34.63l-.012-.034v-.012l-.006-.012a11.14,11.14,0,0,0-4.713-7.028,7.761,7.761,0,0,0-4.329-1.126A8.311,8.311,0,0,0,53.4,27.877c-.034.022-.068.04-.1.062l-.04.028-.056.04-.046.034-.056.04-.034.022-.062.052-.034.022-.062.052-.034.022c-.028.022-.062.052-.09.074l-.028.022L52.7,28.4l-.046.034-.046.046-.046.034-.052.04-.046.04-.046.04-.04.04-.068.056-.022.022c-.028.028-.056.052-.086.08l-.006.006-.034.028-.046.052-.052.046-.04.04-.052.052-.028.032-.046.046-.046.046-.046.046-.034.04-.052.052c-.022.028-.052.056-.074.086l-.052.052-.034.04-.046.052-.04.046-.046.052-.034.046-.052.052-.028.034-.052.068Zm9.924,16.917a6.453,6.453,0,0,1-2.359.685A6.332,6.332,0,0,1,55.8,47h-.012v.046a6.675,6.675,0,0,1-.12.792l.068.062a3.924,3.924,0,0,0,2.671,1.12A4.4,4.4,0,0,0,61.2,47.953l.108-.09a7.783,7.783,0,0,1-.108-.944c0-.046,0-.1-.01-.154Z" transform="translate(327.645 1715.498)"/>
  </g>
</svg>
