<svg id="Grupo_1178559" data-name="Grupo 1178559" xmlns="http://www.w3.org/2000/svg" width="71.738" height="71.842" viewBox="0 0 71.738 71.842">
  <circle id="Elipse_13637" data-name="Elipse 13637" cx="35.865" cy="35.865" r="35.865" transform="translate(0 0)" fill="#ffd321"/>
  <path id="Trazado_996269" data-name="Trazado 996269" d="M125.959,92.041,96,62.086,63.071,109.47l12.92,12.849a35.939,35.939,0,0,0,49.969-30.279Z" transform="translate(-54.221 -53.374)" fill="#ff9d21"/>
  <g id="Grupo_1178558" data-name="Grupo 1178558" transform="translate(6.549 6.157)">
    <g id="Grupo_1178554" data-name="Grupo 1178554" transform="translate(4.59 4.636)">
      <path id="Trazado_996270" data-name="Trazado 996270" d="M101.541,78.426,79.813,115.381a3.048,3.048,0,0,0,2.628,4.594h21.728l9.924-15.835-9.924-27.217A2.982,2.982,0,0,0,101.541,78.426Z" transform="translate(-79.388 -76.923)" fill="#fff"/>
    </g>
    <path id="Trazado_996271" data-name="Trazado 996271" d="M280.356,115.382,258.628,78.426a2.982,2.982,0,0,0-2.628-1.5v43.052h21.728a3.048,3.048,0,0,0,2.628-4.593Z" transform="translate(-226.628 -72.287)" fill="#e5e5e5"/>
    <g id="Grupo_1178557" data-name="Grupo 1178557">
      <g id="Grupo_1178555" data-name="Grupo 1178555">
        <path id="Trazado_996272" data-name="Trazado 996272" d="M54.679,90.449a2.235,2.235,0,0,1-1.927-3.368L74.118,50.742a2.187,2.187,0,0,1,1.927-1.1L78.6,47.368l-2.555-3.486a7.919,7.919,0,0,0-6.89,3.942L47.789,84.162a7.993,7.993,0,0,0,6.89,12.044H76.045l3.823-2.722-3.823-3.035Z" transform="translate(-46.673 -43.882)" fill="#ff3d7d"/>
      </g>
      <path id="Trazado_996273" data-name="Trazado 996273" d="M284.256,84.162,262.89,47.824A7.919,7.919,0,0,0,256,43.882V49.64a2.187,2.187,0,0,1,1.927,1.1l21.365,36.339a2.235,2.235,0,0,1-1.927,3.368H256v5.758h21.366a7.993,7.993,0,0,0,6.89-12.044Z" transform="translate(-226.628 -43.882)" fill="#d01273"/>
      <g id="Grupo_1178556" data-name="Grupo 1178556" transform="translate(26.046 16.115)">
        <path id="Trazado_996274" data-name="Trazado 996274" d="M235.624,296.388a3.326,3.326,0,1,0,0,6.652l1.407-3.326Z" transform="translate(-232.298 -277.072)" fill="#42575e"/>
        <path id="Trazado_996275" data-name="Trazado 996275" d="M259.326,299.714A3.326,3.326,0,0,0,256,296.388v6.652A3.326,3.326,0,0,0,259.326,299.714Z" transform="translate(-252.674 -277.072)" fill="#304247"/>
        <path id="Trazado_996276" data-name="Trazado 996276" d="M233.381,158.728v16.559h3.174l1.407-5.187-1.407-11.372Z" transform="translate(-233.229 -158.728)" fill="#42575e"/>
        <path id="Trazado_996277" data-name="Trazado 996277" d="M256,158.728h3.228v16.559H256Z" transform="translate(-252.674 -158.728)" fill="#304247"/>
      </g>
    </g>
  </g>
</svg>
