<svg xmlns="http://www.w3.org/2000/svg" xmlns:xlink="http://www.w3.org/1999/xlink" width="47" height="47" viewBox="0 0 47 47">
  <defs>
    <clipPath id="clip-path">
      <rect id="Rectángulo_454618" data-name="Rectángulo 454618" width="29.627" height="26.962" fill="none"/>
    </clipPath>
  </defs>
  <g id="Grupo_1180064" data-name="Grupo 1180064" transform="translate(-188 -1223.485)">
    <circle id="Elipse_11508" data-name="Elipse 11508" cx="23.5" cy="23.5" r="23.5" transform="translate(188 1223.485)" fill="#1b5e20"/>
    <g id="Grupo_1177019" data-name="Grupo 1177019" transform="translate(197.121 1233.113)">
      <g id="Grupo_1177018" data-name="Grupo 1177018" clip-path="url(#clip-path)">
        <path id="Trazado_991912" data-name="Trazado 991912" d="M197.852,186.375a3.71,3.71,0,1,0,3.71,3.71,3.714,3.714,0,0,0-3.71-3.71m0,6.218a2.508,2.508,0,1,1,2.509-2.508,2.511,2.511,0,0,1-2.509,2.508" transform="translate(-183.038 -175.715)" fill="#fff"/>
        <path id="Trazado_991913" data-name="Trazado 991913" d="M404.413,128.116h3.553a.6.6,0,0,0,.6-.6v-2.665a.6.6,0,0,0-.6-.6h-3.553a.6.6,0,0,0-.6.6v2.665a.6.6,0,0,0,.6.6m.6-2.665h2.352v1.464h-2.352Z" transform="translate(-380.716 -117.144)" fill="#fff"/>
        <path id="Trazado_991914" data-name="Trazado 991914" d="M180.328,77.656h-8.883a.6.6,0,1,0,0,1.2h8.883a.6.6,0,0,0,0-1.2" transform="translate(-161.073 -73.214)" fill="#fff"/>
        <path id="Trazado_991915" data-name="Trazado 991915" d="M38.828,297.025a1.933,1.933,0,1,0,1.933-1.933,1.935,1.935,0,0,0-1.933,1.933m2.665,0a.732.732,0,1,1-.732-.732.733.733,0,0,1,.732.732" transform="translate(-36.607 -278.214)" fill="#fff"/>
        <path id="Trazado_991916" data-name="Trazado 991916" d="M27.025,5.33H24.068L22.122,1.438A2.588,2.588,0,0,0,19.794,0H9.832A2.588,2.588,0,0,0,7.5,1.439L6.411,3.626a1.45,1.45,0,0,0-.45-.073H5.367a.6.6,0,0,0,0,1.2h.48l-.288.575H2.978V5.012a.258.258,0,0,1,.257-.257h.13a.6.6,0,0,0,0-1.2h-.13A1.46,1.46,0,0,0,1.777,5.012v.453A2.606,2.606,0,0,0,0,7.932V21.695a2.605,2.605,0,0,0,2.6,2.6H7.935a.6.6,0,1,0,0-1.2H2.6a1.4,1.4,0,0,1-1.4-1.4V12.749H6.824a8.157,8.157,0,0,0,4.5,8.987L11.99,23.1H9.937a.6.6,0,1,0,0,1.2h2.642l.9,1.831a1.489,1.489,0,0,0,2.675,0l.9-1.831h9.976a2.605,2.605,0,0,0,2.6-2.6V7.932a2.605,2.605,0,0,0-2.6-2.6M7.863,14.369A6.951,6.951,0,0,1,18.745,8.637a.6.6,0,1,0,.68-.99,8.153,8.153,0,0,0-12.259,3.9H1.2V7.932a1.4,1.4,0,0,1,1.4-1.4H5.93A.6.6,0,0,0,6.468,6.2L8.579,1.976A1.394,1.394,0,0,1,9.832,1.2h9.962a1.394,1.394,0,0,1,1.253.774L23.159,6.2a.6.6,0,0,0,.537.332h3.328a1.4,1.4,0,0,1,1.4,1.4v3.616H22.46a8.137,8.137,0,0,0-1.413-2.431.6.6,0,1,0-.918.774,6.952,6.952,0,0,1-.808,9.77l1.22-2.489a6.313,6.313,0,0,0,.647-2.8,6.375,6.375,0,1,0-12.749,0,6.313,6.313,0,0,0,.647,2.8l1.22,2.49a6.957,6.957,0,0,1-2.443-5.292M15.072,25.6a.288.288,0,0,1-.518,0l-4.39-8.956a5.122,5.122,0,0,1-.525-2.274,5.173,5.173,0,1,1,10.347,0,5.122,5.122,0,0,1-.525,2.274Zm11.952-2.5H17.637l.666-1.36a8.149,8.149,0,0,0,4.5-8.987h5.624v8.946a1.4,1.4,0,0,1-1.4,1.4" fill="#fff"/>
      </g>
    </g>
  </g>
</svg>
