<svg xmlns="http://www.w3.org/2000/svg" xmlns:xlink="http://www.w3.org/1999/xlink" width="124" height="124" viewBox="0 0 124 124">
  <defs>
    <clipPath id="clip-path">
      <rect id="SVGID" width="79.496" height="79.496" fill="none"/>
    </clipPath>
  </defs>
  <g id="Grupo_1180071" data-name="Grupo 1180071" transform="translate(-1205 -3214.933)">
    <g id="Grupo_1179513" data-name="Grupo 1179513" transform="translate(476.883 -3703.126)">
      <circle id="Elipse_13613" data-name="Elipse 13613" cx="62" cy="62" r="62" transform="translate(728.117 6918.059)" fill="#0d47a1"/>
      <circle id="Elipse_13614" data-name="Elipse 13614" cx="56" cy="56" r="56" transform="translate(734.117 6924.059)" fill="#fff"/>
    </g>
    <g id="g10467" transform="translate(1228.252 3238.798)">
      <g id="g10469" transform="translate(0 0)">
        <g id="Grupo_1179667" data-name="Grupo 1179667" transform="translate(0 0)">
          <g id="Grupo_1179666" data-name="Grupo 1179666" clip-path="url(#clip-path)">
            <g id="g10471" transform="translate(0.233 0)">
              <g id="g10477" transform="translate(55.74 14.75)">
                <path id="path10479" d="M481.831,142.97a1.164,1.164,0,1,1,0-2.329,12.824,12.824,0,0,0,12.809-12.809,1.164,1.164,0,0,1,2.329,0A15.155,15.155,0,0,1,481.831,142.97Z" transform="translate(-480.667 -126.667)"/>
              </g>
              <g id="g10481" transform="translate(70.878 4.27)">
                <path id="path10483" d="M610.667,43.654a6.987,6.987,0,0,0,6.987-6.987,6.987,6.987,0,0,0-6.987,6.987" transform="translate(-610.667 -36.667)" fill="#30b054"/>
              </g>
              <g id="g10485" transform="translate(63.892 4.27)">
                <path id="path10487" d="M550.667,36.667a6.987,6.987,0,0,0,6.987,6.987,6.987,6.987,0,0,0-6.987-6.987" transform="translate(-550.667 -36.667)" fill="#80bf63"/>
              </g>
              <g id="g10489" transform="translate(62.727 3.105)">
                <path id="path10491" d="M541.832,26.667a8.155,8.155,0,0,1,6.987,3.956,8.156,8.156,0,0,1,6.987-3.956,1.164,1.164,0,0,1,1.164,1.164,8.151,8.151,0,1,1-16.3,0A1.164,1.164,0,0,1,541.832,26.667ZM547.5,33.5a5.842,5.842,0,0,0-4.359-4.359A5.842,5.842,0,0,0,547.5,33.5Zm2.628,0a5.842,5.842,0,0,0,4.359-4.359A5.842,5.842,0,0,0,550.132,33.5Z" transform="translate(-540.667 -26.667)"/>
              </g>
              <g id="g10493" transform="translate(19.796 42.687)">
                <path id="path10495" d="M172,366.573v17.478h4.658v-8.162a7,7,0,0,0,4.658,0l4.658-9.316Z" transform="translate(-172 -366.573)" fill="#2dade3"/>
              </g>
              <path id="path10497" d="M252,384.051h4.658V366.573H252Z" transform="translate(-222.888 -323.886)" fill="#1990c2"/>
              <g id="g10499" transform="translate(28.336 26.783)">
                <path id="path10501" d="M249.991,230h-4.658v15.9l3.105,4.658H253.1V233.105A3.1,3.1,0,0,0,249.991,230" transform="translate(-245.333 -230)" fill="#ccc"/>
              </g>
              <g id="g10503" transform="translate(17.467 26.783)">
                <path id="path10505" d="M162.868,230h-7.763A3.1,3.1,0,0,0,152,233.105v17.456h13.974V233.105A3.1,3.1,0,0,0,162.868,230" transform="translate(-152 -230)" fill="#ebebeb"/>
              </g>
              <g id="g10507" transform="translate(3.493 1.164)">
                <path id="path10509" d="M38.98,30.961,31.993,20.48,38.98,10h4.658V30.961Z" transform="translate(-31.993 -10)" fill="#ffa754"/>
              </g>
              <path id="path10511" d="M12,30.961h9.316V10H12Z" transform="translate(-10.836 -8.836)" fill="#ffcb63"/>
              <g id="g10513" transform="translate(30.277 59.001)">
                <path id="path10515" d="M267.823,527.162a1.164,1.164,0,0,1-.368-.06l-4.658-1.553a1.164,1.164,0,0,1-.8-1.1V507.832a1.164,1.164,0,1,1,2.329,0v15.774l3.862,1.287a1.165,1.165,0,0,1-.368,2.269Z" transform="translate(-262 -506.667)"/>
              </g>
              <g id="g10517" transform="translate(18.632 46.18)">
                <path id="path10519" d="M177.138,411.722H172.48a1.164,1.164,0,0,1-1.164-1.164v-6.682a8.213,8.213,0,0,1-2.329,0v6.682a1.164,1.164,0,0,1-1.164,1.164h-4.658A1.164,1.164,0,0,1,162,410.558v-12.82a1.164,1.164,0,1,1,2.329,0v11.656h2.329v-7a1.165,1.165,0,0,1,1.553-1.1,5.857,5.857,0,0,0,3.882,0,1.164,1.164,0,0,1,1.553,1.1v7h2.329V397.738a1.164,1.164,0,1,1,2.329,0v12.82A1.164,1.164,0,0,1,177.138,411.722Z" transform="translate(-162 -396.573)"/>
              </g>
              <g id="g10521" transform="translate(16.302 59.001)">
                <path id="path10523" d="M143.162,527.162a1.165,1.165,0,0,1-.368-2.269l3.862-1.287V507.832a1.164,1.164,0,1,1,2.329,0v16.613a1.165,1.165,0,0,1-.8,1.1L143.53,527.1A1.164,1.164,0,0,1,143.162,527.162Z" transform="translate(-141.997 -506.667)"/>
              </g>
              <g id="g10525" transform="translate(16.303 25.619)">
                <path id="path10527" d="M146.27,220h12.421a4.275,4.275,0,0,1,4.27,4.27v17.456a1.165,1.165,0,0,1-1.164,1.164H143.164A1.165,1.165,0,0,1,142,241.726V224.27A4.275,4.275,0,0,1,146.27,220Zm14.362,20.562V224.27a1.943,1.943,0,0,0-1.941-1.941H146.27a1.943,1.943,0,0,0-1.941,1.941v16.292Z" transform="translate(-142 -220)"/>
              </g>
              <g id="g10529" transform="translate(2.329 20.961)">
                <path id="path10531" d="M27.822,194.75H25.493a3.493,3.493,0,0,1,0-6.987h1.164v-6.6a1.164,1.164,0,0,1,2.329,0v6.6h8.151a1.164,1.164,0,0,1,0,2.329H28.987v3.493A1.164,1.164,0,0,1,27.822,194.75Zm-2.329-4.658a1.164,1.164,0,1,0,0,2.329h1.164v-2.329Z" transform="translate(-22 -180)"/>
              </g>
              <path id="path10533" d="M3.164,0H17.138A1.164,1.164,0,0,1,18.3,1.164V22.125a1.164,1.164,0,0,1-1.164,1.164H3.164A1.164,1.164,0,0,1,2,22.125V1.164A1.164,1.164,0,0,1,3.164,0ZM15.974,2.329H4.329V20.961H15.974Z" transform="translate(-2)"/>
              <g id="g10535" transform="translate(26.783 9.705)">
                <path id="path10537" d="M236.391,83.344H232v12.42a6.986,6.986,0,0,0,4.391-12.42" transform="translate(-232 -83.344)" fill="#ffb4a9"/>
              </g>
              <g id="g10539" transform="translate(19.796 9.705)">
                <path id="path10541" d="M181.114,85.933l-6.519-2.59a6.986,6.986,0,0,0,4.391,12.42c1.286,0,2.329-3.128,2.329-6.987a19.47,19.47,0,0,0-.2-2.843" transform="translate(-172 -83.343)" fill="#ffd9d4"/>
              </g>
              <g id="g10543" transform="translate(26.783 8.151)">
                <path id="path10545" d="M232,70v4.143h2.127a4.67,4.67,0,0,0,2.264-2.589A6.956,6.956,0,0,0,232,70" transform="translate(-232 -70)" fill="#c27749"/>
              </g>
              <g id="g10547" transform="translate(22.392 8.151)">
                <path id="path10549" d="M198.68,70a6.956,6.956,0,0,0-4.391,1.554,4.657,4.657,0,0,0,6.519,2.589C200.444,71.7,199.629,70,198.68,70" transform="translate(-194.289 -70)" fill="#e18f4e"/>
              </g>
              <g id="g10551" transform="translate(18.632 6.987)">
                <path id="path10553" d="M170.151,60A8.151,8.151,0,1,1,162,68.151,8.161,8.161,0,0,1,170.151,60Zm0,13.974a5.822,5.822,0,1,0-5.822-5.822A5.829,5.829,0,0,0,170.151,73.974Z" transform="translate(-162 -60)"/>
              </g>
              <g id="g10555" transform="translate(21.227 8.54)">
                <path id="path10557" d="M189.842,78.775a5.832,5.832,0,0,1-5.489-3.88,1.164,1.164,0,0,1,2.2-.777,3.494,3.494,0,0,0,6.587,0,1.164,1.164,0,0,1,2.2.777A5.832,5.832,0,0,1,189.842,78.775Z" transform="translate(-184.286 -73.341)"/>
              </g>
              <g id="g10559" transform="translate(49.141 26.783)">
                <path id="path10561" d="M431.762,233.105A3.105,3.105,0,0,0,428.657,230H424v13.974l7.763-4.658Z" transform="translate(-423.999 -230)" fill="#ffa754"/>
              </g>
              <g id="g10563" transform="translate(42.931 26.783)">
                <path id="path10565" d="M379.983,233.105v10.869l-9.316-4.658v-6.211A3.1,3.1,0,0,1,373.772,230h3.105a3.1,3.1,0,0,1,3.105,3.105" transform="translate(-370.667 -230)" fill="#ffcb63"/>
              </g>
              <g id="g10567" transform="translate(44.483 36.099)">
                <path id="path10569" d="M396.42,314.658V310h-4.658L384,319.316l10.092,9.316h4.658v-7.815a9.278,9.278,0,0,0-2.329-6.159" transform="translate(-383.999 -310)" fill="#30b054"/>
              </g>
              <g id="g10571" transform="translate(40.602 36.099)">
                <path id="path10573" d="M364.641,320.817v7.815H350.667v-7.815A9.278,9.278,0,0,1,353,314.658V310h9.316v4.658a9.278,9.278,0,0,1,2.329,6.159" transform="translate(-350.667 -310)" fill="#80bf63"/>
              </g>
              <g id="g10575" transform="translate(39.437 25.619)">
                <path id="path10577" d="M347.266,220h7.763a4.275,4.275,0,0,1,4.27,4.27v10.443a10.466,10.466,0,0,1,2.329,6.584v7.815a1.164,1.164,0,0,1-1.164,1.164H341.831a1.164,1.164,0,0,1-1.164-1.164V241.3A10.466,10.466,0,0,1,343,234.713V224.27A4.275,4.275,0,0,1,347.266,220ZM359.3,247.948V241.3a8.14,8.14,0,0,0-2.038-5.388,1.165,1.165,0,0,1-.291-.77V224.27a1.943,1.943,0,0,0-1.941-1.941h-7.763a1.943,1.943,0,0,0-1.941,1.941v10.869a1.164,1.164,0,0,1-.291.77A8.14,8.14,0,0,0,343,241.3v6.651Z" transform="translate(-340.667 -220)"/>
              </g>
              <g id="g10579" transform="translate(39.592 53.566)">
                <path id="path10581" d="M343.162,485.93a1.165,1.165,0,0,1-.368-2.27l3.862-1.287V461.165a1.164,1.164,0,1,1,2.329,0v22.048a1.164,1.164,0,0,1-.8,1.1l-4.658,1.553A1.164,1.164,0,0,1,343.162,485.93Z" transform="translate(-341.997 -460)"/>
              </g>
              <g id="g10583" transform="translate(53.411 53.566)">
                <path id="path10585" d="M466.49,485.93a1.162,1.162,0,0,1-.368-.06l-4.658-1.553a1.164,1.164,0,0,1-.8-1.1V461.165a1.164,1.164,0,1,1,2.329,0v21.208l3.862,1.287a1.165,1.165,0,0,1-.368,2.27Z" transform="translate(-460.667 -460)"/>
              </g>
              <g id="g10587" transform="translate(41.766 34.935)">
                <path id="path10589" d="M375.805,302.329H361.832a1.164,1.164,0,1,1,0-2.329h13.974a1.164,1.164,0,1,1,0,2.329Z" transform="translate(-360.667 -300)"/>
              </g>
              <g id="g10591" transform="translate(38.273 15.138)">
                <path id="path10593" d="M335.325,130a3.494,3.494,0,0,0-3.372,2.58A2.326,2.326,0,0,0,333,136.987h9.316V130Z" transform="translate(-330.667 -130)" fill="#60312c"/>
              </g>
              <g id="g10595" transform="translate(49.918 15.138)">
                <path id="path10597" d="M441.025,132.58a3.5,3.5,0,0,0-3.372-2.58h-6.987v6.987h9.316a2.326,2.326,0,0,0,1.043-4.407" transform="translate(-430.666 -130)" fill="#40211d"/>
              </g>
              <g id="g10599" transform="translate(49.918 8.151)">
                <path id="path10601" d="M430.667,70V83.974a6.987,6.987,0,0,0,6.987-6.987Z" transform="translate(-430.667 -70)" fill="#a45e43"/>
              </g>
              <g id="g10603" transform="translate(42.931 8.151)">
                <path id="path10605" d="M377.654,70l-6.987,6.987a6.987,6.987,0,0,0,6.987,6.987c1.286,0,2.329-3.128,2.329-6.987S378.94,70,377.654,70" transform="translate(-370.667 -70)" fill="#c27749"/>
              </g>
              <g id="g10607" transform="translate(42.931 8.151)">
                <path id="path10609" d="M377.654,70a6.987,6.987,0,0,0-6.987,6.987A6.987,6.987,0,0,0,377.654,70" transform="translate(-370.667 -70)" fill="#60312c"/>
              </g>
              <g id="g10611" transform="translate(49.918 8.151)">
                <path id="path10613" d="M437.654,76.987A6.987,6.987,0,0,0,430.667,70a6.987,6.987,0,0,0,6.987,6.987" transform="translate(-430.667 -70)" fill="#40211d"/>
              </g>
              <g id="g10615" transform="translate(41.766 6.987)">
                <path id="path10617" d="M368.818,60a8.151,8.151,0,1,1-8.151,8.151A8.161,8.161,0,0,1,368.818,60Zm0,13.974A5.822,5.822,0,1,0,363,68.151,5.829,5.829,0,0,0,368.818,73.974Z" transform="translate(-360.667 -60)"/>
              </g>
              <g id="g10619" transform="translate(37.108 6.987)">
                <path id="path10621" d="M342.791,76.3H324.159a3.491,3.491,0,0,1-2.013-6.345,4.667,4.667,0,0,1,4.342-2.971,5.829,5.829,0,0,0,5.822-5.822,1.164,1.164,0,1,1,2.329,0,5.829,5.829,0,0,0,5.822,5.822,4.667,4.667,0,0,1,4.342,2.971,3.491,3.491,0,0,1-2.013,6.345ZM333.475,65.36a8.155,8.155,0,0,1-6.987,3.956,2.332,2.332,0,0,0-2.248,1.719,1.165,1.165,0,0,1-.6.737,1.162,1.162,0,0,0,.521,2.2h18.632a1.162,1.162,0,0,0,.521-2.2,1.164,1.164,0,0,1-.6-.737,2.332,2.332,0,0,0-2.248-1.72A8.156,8.156,0,0,1,333.475,65.36Z" transform="translate(-320.666 -60)"/>
              </g>
            </g>
          </g>
        </g>
      </g>
    </g>
  </g>
</svg>
