<svg xmlns="http://www.w3.org/2000/svg" width="107" height="107" viewBox="0 0 107 107">
  <g id="Grupo_1180065" data-name="Grupo 1180065" transform="translate(-1237.833 -334)">
    <g id="Grupo_1179976" data-name="Grupo 1179976">
      <circle id="Elipse_13625" data-name="Elipse 13625" cx="53.5" cy="53.5" r="53.5" transform="translate(1237.833 334)" fill="#ffe082"/>
      <g id="Grupo_1177445" data-name="Grupo 1177445" transform="translate(1255.63 347.863)">
        <path id="Trazado_994302" data-name="Trazado 994302" d="M1778.979,601.049,1797,590.42l9.885-5.83a16.353,16.353,0,0,0-14.283-10.277,1.607,1.607,0,0,0-1.6,1.063,12.771,12.771,0,0,1-24.065,0,1.607,1.607,0,0,0-1.6-1.063,16.352,16.352,0,0,0-14.283,10.277l9.886,5.829Z" transform="translate(-1743.272 -572.688)" fill="#ff7d97"/>
        <path id="Trazado_994303" data-name="Trazado 994303" d="M1765.007,672.744l15.5-9.143,15.114-8.914-1.692-13.118a16.228,16.228,0,0,0-1.015-3.928l-9.885,5.83-18.026,10.63-18.026-10.63-9.886-5.829a16.219,16.219,0,0,0-1.015,3.927l-1.692,13.118L1749.5,663.6Z" transform="translate(-1729.3 -625.74)" fill="#f1cb6f"/>
        <path id="Trazado_994304" data-name="Trazado 994304" d="M1744.749,772.286l9.6,5.659,32.684-19.273-2.066-16.011-15.114,8.914-15.5,9.143-15.5-9.143-15.115-8.914-2.066,16.011,10.531,6.21Z" transform="translate(-1718.64 -713.712)" fill="#a0e5a5"/>
        <path id="Trazado_994305" data-name="Trazado 994305" d="M1779.821,841.307l-32.684,19.273-9.6-5.659-12.556-7.4-10.531-6.21-1.4,10.826,34.081,20.1,34.081-20.1Z" transform="translate(-1711.432 -796.348)" fill="#c39f83"/>
        <path id="Trazado_994306" data-name="Trazado 994306" d="M1774.45,620.092v-.015a1.607,1.607,0,0,0-.011-.181s0-.006,0-.008l-1.394-10.8c0-.018,0-.036-.007-.054l-3.753-29.095a17.922,17.922,0,0,0-16.82-15.62,3.244,3.244,0,0,0-3.213,2.139,11.148,11.148,0,0,1-21.007,0,3.241,3.241,0,0,0-3.212-2.139,17.922,17.922,0,0,0-16.82,15.618l-2.723,21.108c0,.007,0,.014,0,.021l-1.028,7.971c0,.016,0,.032-.006.049l-1.376,10.667a1.623,1.623,0,0,0-.034.33v5.614a1.623,1.623,0,0,0,3.246,0v-2.755l8.114,4.785v4.669a1.623,1.623,0,1,0,3.246,0v-2.755l8.114,4.785v4.669a1.623,1.623,0,1,0,3.246,0v-2.755l8.114,4.785v4.669a1.623,1.623,0,0,0,3.246,0v-4.667l8.114-4.785v2.752a1.623,1.623,0,1,0,3.246,0v-4.667l8.114-4.785v2.752a1.623,1.623,0,1,0,3.246,0v-4.667l8.114-4.785v2.752a1.623,1.623,0,0,0,3.246,0v-5.541C1774.451,620.13,1774.45,620.111,1774.45,620.092Zm-62.693-41.453,6.225,3.671-7.686,6.845,1.136-8.809a14.678,14.678,0,0,1,.324-1.706m54.308,1.708,1.136,8.807-7.685-6.845,6.224-3.671a14.7,14.7,0,0,1,.325,1.708m-46.568,4.96,1.727,13.787-10.353-6.106Zm3.248-.19,12.854,7.58-11.056,6.774Zm14.382,10.452v12.9l-10.731-6.328Zm3.246,0,10.73,6.575-10.73,6.328Zm1.527-2.871,12.855-7.581-1.8,14.355Zm16.1-7.391,8.625,7.682-10.352,6.1Zm-32.809-17.751a14.394,14.394,0,0,0,27.113,0,14.685,14.685,0,0,1,12.281,7.994l-25.837,15.237-25.838-15.236a14.687,14.687,0,0,1,12.281-7.994m13.556,70.753-32.334-19.069.945-7.324,8.412,4.961a1.623,1.623,0,1,0,1.649-2.8l-9.609-5.666.581-4.5,2.294,1.352a1.623,1.623,0,0,0,1.649-2.8l-3.491-2.058.581-4.5,28.5,16.806a1.623,1.623,0,0,0,1.649,0l28.5-16.807.581,4.5-3.491,2.058a1.623,1.623,0,1,0,1.649,2.8l2.294-1.353.581,4.5-30.937,18.243-8.772-5.173a1.623,1.623,0,0,0-1.649,2.8l9.6,5.659a1.623,1.623,0,0,0,1.649,0l30.565-18.024.945,7.324Z" transform="translate(-1703.043 -564.31)"/>
        <path id="Trazado_994307" data-name="Trazado 994307" d="M1816.947,892.436a1.623,1.623,0,1,1-1.623,1.623,1.623,1.623,0,0,1,1.623-1.623" transform="translate(-1797.1 -839.178)"/>
        <path id="Trazado_994308" data-name="Trazado 994308" d="M1948.218,863.857a1.615,1.615,0,0,0,.823-.225l5.447-3.212a1.623,1.623,0,0,0-1.649-2.8l-5.447,3.212a1.623,1.623,0,0,0,.826,3.021" transform="translate(-1907.062 -809.827)"/>
        <path id="Trazado_994309" data-name="Trazado 994309" d="M2015.338,824.27a1.615,1.615,0,0,0,.823-.225l5.448-3.214a1.623,1.623,0,0,0-1.649-2.8l-5.448,3.214a1.623,1.623,0,0,0,.826,3.021" transform="translate(-1963.288 -776.664)"/>
        <path id="Trazado_994310" data-name="Trazado 994310" d="M1852.977,863.857a1.623,1.623,0,0,0,.826-3.021l-5.447-3.212a1.623,1.623,0,0,0-1.649,2.8l5.447,3.212a1.613,1.613,0,0,0,.823.225" transform="translate(-1822.72 -809.827)"/>
        <path id="Trazado_994311" data-name="Trazado 994311" d="M1785.847,824.269a1.623,1.623,0,0,0,.826-3.021l-5.449-3.214a1.623,1.623,0,0,0-1.649,2.8l5.449,3.214a1.616,1.616,0,0,0,.823.225" transform="translate(-1766.484 -776.664)"/>
      </g>
    </g>
  </g>
</svg>
