<svg xmlns="http://www.w3.org/2000/svg" xmlns:xlink="http://www.w3.org/1999/xlink" width="124" height="124" viewBox="0 0 124 124">
  <defs>
    <clipPath id="clip-path">
      <rect id="SVGID" width="80.667" height="80.667" fill="none"/>
    </clipPath>
  </defs>
  <g id="Grupo_1180068" data-name="Grupo 1180068" transform="translate(-269 -3214.933)">
    <g id="Grupo_1179516" data-name="Grupo 1179516" transform="translate(-459.117 -3703.126)">
      <circle id="Elipse_13613" data-name="Elipse 13613" cx="62" cy="62" r="62" transform="translate(728.117 6918.059)" fill="#0d47a1"/>
      <circle id="Elipse_13614" data-name="Elipse 13614" cx="56" cy="56" r="56" transform="translate(734.117 6924.059)" fill="#fff"/>
    </g>
    <g id="g3369" transform="translate(290 3231)">
      <g id="g3371" transform="translate(0 0)">
        <g id="Grupo_1179645" data-name="Grupo 1179645">
          <g id="Grupo_1179644" data-name="Grupo 1179644" clip-path="url(#clip-path)">
            <g id="g3373" transform="translate(0 1.445)">
              <g id="g3379" transform="translate(40.008 41.713)">
                <path id="path3381" d="M338.578,373.256l3.517-4.865a7.609,7.609,0,0,1,6.166-3.151h26.648a3.146,3.146,0,0,1,3.146,3.146v31.735h-35.88Z" transform="translate(-338.578 -365.24)" fill="#4f66d0"/>
              </g>
              <g id="g3383" transform="translate(72.074 41.713)">
                <path id="path3385" d="M614.215,365.239H609.95v34.882h7.411V368.385a3.146,3.146,0,0,0-3.146-3.146" transform="translate(-609.95 -365.239)" fill="#3c58bc"/>
              </g>
              <g id="g3387" transform="translate(50.206 41.713)">
                <path id="path3389" d="M433.509,365.239l4.356,8.913,3.987-8.913h8.561S447,373.9,437.865,374.152c0,0-8.144,0-12.981-8.913Z" transform="translate(-424.884 -365.239)" fill="#fd3581"/>
              </g>
              <g id="g3391" transform="translate(63.187 41.713)">
                <path id="path3393" d="M543.535,365.239s-2.376,6.029-8.467,8.172l-.331.741c9.135-.248,12.548-8.913,12.548-8.913Z" transform="translate(-534.737 -365.239)" fill="#ef0665"/>
              </g>
              <g id="g3395" transform="translate(1.182 66.286)">
                <path id="path3397" d="M10,577.667V583.5H56.857l-3.978-10.309Z" transform="translate(-10 -573.189)" fill="#ffe177"/>
              </g>
              <g id="g3399" transform="translate(34.511 66.286)">
                <path id="path3401" d="M301.609,573.189l-9.55,1,3.593,9.312h9.935Z" transform="translate(-292.059 -573.189)" fill="#ffd15c"/>
              </g>
              <g id="g3403" transform="translate(49.118 20.028)">
                <path id="path3405" d="M415.677,181.723v9.585a6.381,6.381,0,0,0,6.381,6.381h3.332v5.719l4.356,8.913,3.987-8.913V181.723Z" transform="translate(-415.677 -181.723)" fill="#fed2a4"/>
              </g>
              <g id="g3407" transform="translate(61.229 20.028)">
                <path id="path3409" d="M520.362,181.723v21.685l-2.2,4.907,1.958,4.006,3.987-8.913V181.723Z" transform="translate(-518.167 -181.723)" fill="#ffbd86"/>
              </g>
              <g id="g3411" transform="translate(1.182 54.706)">
                <path id="path3413" d="M57.176,486.192c-1.975,4.542-8.349,3.079-8.349,3.079-3.751,5.136-9.3,1.284-9.3,1.284-4.987,5.629-9.826.791-9.826.791a7.2,7.2,0,0,1-9.723-.1c-6.221,3.356-9.98,0-9.98,0V475.19H48.826Z" transform="translate(-10 -475.19)" fill="#97d729"/>
              </g>
              <g id="g3415" transform="translate(34.14 54.705)">
                <path id="path3417" d="M303.138,486.188c-1.733,3.985-6.855,3.346-8.084,3.131a5.478,5.478,0,0,0,2.215-3.131l-8.349-11h5.867Z" transform="translate(-288.92 -475.185)" fill="#85bc19"/>
              </g>
              <g id="g3419" transform="translate(1.182 49.729)">
                <path id="path3421" d="M57.176,444.079c-1.975,4.542-8.349,3.079-8.349,3.079-3.751,5.136-9.3,1.284-9.3,1.284-4.987,5.629-9.826.79-9.826.79a7.2,7.2,0,0,1-9.723-.1c-6.221,3.356-9.98,0-9.98,0V437.79a4.713,4.713,0,0,1,4.713-4.713H43.186a11.361,11.361,0,0,1,9.05,4.493Z" transform="translate(-10 -433.077)" fill="#eaf6ff"/>
              </g>
              <g id="g3423" transform="translate(2.979 65.787)">
                <path id="path3425" d="M27.525,568.972a13.507,13.507,0,0,1-2.315.995,8.442,8.442,0,0,0,4.412.358,7.55,7.55,0,0,1-2.1-1.353" transform="translate(-25.21 -568.972)" fill="#eaf6ff"/>
              </g>
              <g id="g3427" transform="translate(39.993 63.812)">
                <path id="path3429" d="M338.468,552.251l.014,0a.26.26,0,0,1-.028.016l.014-.019" transform="translate(-338.454 -552.251)" fill="#eaf6ff"/>
              </g>
              <g id="g3431" transform="translate(32.76 49.73)">
                <path id="path3433" d="M292.838,444.08c-1.922,4.419-8.007,3.156-8.336,3.083a5.678,5.678,0,0,0,2.467-3.083l-5.563-7.262a14.475,14.475,0,0,0-4.166-3.74h1.607a11.362,11.362,0,0,1,9.051,4.493Z" transform="translate(-277.24 -433.078)" fill="#c8effe"/>
              </g>
              <g id="g3435" transform="translate(59.2 20.028)">
                <path id="path3437" d="M500.995,181.723v6.75s2.225-2.061,3.8.275-1.235,3.944-1.235,3.944l5.406,2.478,2.823-13.447Z" transform="translate(-500.995 -181.723)" fill="#c59191"/>
              </g>
              <g id="g3439" transform="translate(63.753 20.028)">
                <path id="path3441" d="M542.023,181.723,539.53,193.6l3.421,1.568,2.823-13.447Z" transform="translate(-539.53 -181.723)" fill="#b98080"/>
              </g>
              <g id="g3443" transform="translate(5.902 25.093)">
                <path id="path3445" d="M66.2,248.158V243.8h4.365a5.132,5.132,0,0,0,5.132-5.132V224.582H57.637v23.576a1.06,1.06,0,0,1-1.06,1.06H49.945V252.2a5.166,5.166,0,0,0,5.166,5.166h16.5a5.166,5.166,0,0,0,5.166-5.166v-2.986H67.257a1.06,1.06,0,0,1-1.06-1.06" transform="translate(-49.945 -224.582)" fill="#ffe5c2"/>
              </g>
              <g id="g3447" transform="translate(22.768 25.093)">
                <path id="path3449" d="M192.68,243.8h3.75a5.132,5.132,0,0,0,5.132-5.132V224.581h-3.75V238.67a5.132,5.132,0,0,1-5.132,5.132" transform="translate(-192.68 -224.581)" fill="#fed2a4"/>
              </g>
              <g id="g3451" transform="translate(18.403 44.313)">
                <path id="path3453" d="M159.491,391.6V387.24h-2.868a.882.882,0,0,0-.882.882V391.6a1.06,1.06,0,0,0,1.06,1.06h3.75a1.06,1.06,0,0,1-1.06-1.06" transform="translate(-155.741 -387.24)" fill="#fed2a4"/>
              </g>
              <g id="g3455" transform="translate(23.818 49.729)">
                <path id="path3457" d="M206.731,433.074v2.986a5.166,5.166,0,0,1-5.166,5.166h3.75a5.166,5.166,0,0,0,5.166-5.166v-2.986Z" transform="translate(-201.565 -433.074)" fill="#fed2a4"/>
              </g>
              <g id="g3459" transform="translate(10.12 19.405)">
                <path id="path3461" d="M93.628,191.744s0-4.274,4.514-2.727l6.678-3.083a4.046,4.046,0,0,0,2.35-3.673,5.815,5.815,0,0,0-5.815-5.815H91.687a6.047,6.047,0,0,0-6.047,6.047V197.9Z" transform="translate(-85.64 -176.446)" fill="#7a6d79"/>
              </g>
              <g id="g3463" transform="translate(22.085 19.405)">
                <path id="path3465" d="M190.651,176.445H186.9a5.815,5.815,0,0,1,5.815,5.815v4.118a1.752,1.752,0,0,1-.013.207l1.413-.653a4.046,4.046,0,0,0,2.35-3.673,5.815,5.815,0,0,0-5.815-5.815" transform="translate(-186.901 -176.445)" fill="#665d66"/>
              </g>
              <g id="g3467" transform="translate(1.877 31.867)">
                <path id="path3469" d="M29.51,288.723A6.813,6.813,0,1,1,22.7,281.91a6.813,6.813,0,0,1,6.813,6.813" transform="translate(-15.884 -281.91)" fill="#7a6d79"/>
              </g>
              <g id="g3471" transform="translate(6.815 31.867)">
                <path id="path3473" d="M59.549,281.91a6.812,6.812,0,0,0-1.875.263,6.813,6.813,0,0,1,0,13.1,6.813,6.813,0,1,0,1.875-13.363" transform="translate(-57.674 -281.91)" fill="#665d66"/>
              </g>
              <g id="g3475" transform="translate(1.182 25.857)">
                <path id="path3477" d="M17.363,231.465h0a1.556,1.556,0,0,1,2.608,1.256,1.556,1.556,0,0,0,1.317,1.652,1.556,1.556,0,0,1,.644,2.822,1.556,1.556,0,0,0-.47,2.06,1.556,1.556,0,0,1-1.805,2.264,1.556,1.556,0,0,0-1.9.916,1.556,1.556,0,0,1-2.9,0,1.556,1.556,0,0,0-1.9-.916,1.556,1.556,0,0,1-1.805-2.264,1.556,1.556,0,0,0-.47-2.06,1.556,1.556,0,0,1,.644-2.822,1.556,1.556,0,0,0,1.317-1.652,1.556,1.556,0,0,1,2.608-1.256,1.556,1.556,0,0,0,2.112,0" transform="translate(-10.003 -231.048)" fill="#fea3c6"/>
              </g>
              <g id="g3479" transform="translate(5.611 25.857)">
                <path id="path3481" d="M54.344,234.372a1.556,1.556,0,0,1-1.317-1.652,1.556,1.556,0,0,0-2.608-1.256,1.553,1.553,0,0,1-1.327.389,1.537,1.537,0,0,1,.186.867,1.556,1.556,0,0,0,1.317,1.652,1.556,1.556,0,0,1,.644,2.823,1.556,1.556,0,0,0-.47,2.059,1.556,1.556,0,0,1-1.805,2.263,1.555,1.555,0,0,0-1.476.313,1.551,1.551,0,0,1,.427.6,1.556,1.556,0,0,0,2.9,0,1.556,1.556,0,0,1,1.9-.917,1.556,1.556,0,0,0,1.805-2.263,1.556,1.556,0,0,1,.47-2.059,1.556,1.556,0,0,0-.644-2.823" transform="translate(-47.487 -231.047)" fill="#fd93bb"/>
              </g>
              <g id="g3483" transform="translate(23.677 35.627)">
                <path id="path3485" d="M202.9,314.994a1.265,1.265,0,1,1-1.265-1.265,1.266,1.266,0,0,1,1.265,1.265" transform="translate(-200.372 -313.729)" fill="#fea3c6"/>
              </g>
              <g id="g3487" transform="translate(40.007 12.059)">
                <path id="path3489" d="M370.989,122h0a1.828,1.828,0,0,1-.863.247c-.024,0-.047,0-.069,0H340.8a2.229,2.229,0,0,1-.522-4.4l7.555-1.821,15.324-1.673.723-.079h2.176a4.69,4.69,0,0,1,4.114,2.439l1.517,2.778a1.861,1.861,0,0,1-.7,2.5" transform="translate(-338.573 -114.28)" fill="#eaf6ff"/>
              </g>
              <g id="g3491" transform="translate(64.594 12.059)">
                <path id="path3493" d="M554.471,122h0a2.78,2.78,0,0,1-.863.247c-.024,0-.047,0-.069,0h-3.75a1.86,1.86,0,0,0,1.632-2.752l-1.516-2.778a4.689,4.689,0,0,0-3.263-2.36l.723-.079h2.176a4.69,4.69,0,0,1,4.114,2.439l1.517,2.778a1.862,1.862,0,0,1-.7,2.5" transform="translate(-546.641 -114.28)" fill="#c8effe"/>
              </g>
              <g id="g3495" transform="translate(49.27 6.338)">
                <path id="path3497" d="M433.006,67.655v3.934l-16.048,1.752,1.521-6.17a1.673,1.673,0,0,1,2.111-1.232l5.245,1.564,5.032-1.457a1.673,1.673,0,0,1,2.138,1.609" transform="translate(-416.959 -65.869)" fill="#eaf6ff"/>
              </g>
              <g id="g3499" transform="translate(49.27 6.449)">
                <path id="path3501" d="M433.006,68.481v3.934l-16.047,1.752.1-.4,12.4-1.353V68.481a1.666,1.666,0,0,0-.4-1.086l1.807-.523a1.673,1.673,0,0,1,2.138,1.609" transform="translate(-416.959 -66.805)" fill="#c8effe"/>
              </g>
              <g id="g3503" transform="translate(41.307 40.532)">
                <path id="path3505" d="M350.753,362.186a1.182,1.182,0,0,1-.957-1.874l1.037-1.434a8.813,8.813,0,0,1,7.123-3.64H367.1a1.182,1.182,0,1,1,0,2.363h-9.141a6.443,6.443,0,0,0-5.208,2.662l-1.037,1.434A1.18,1.18,0,0,1,350.753,362.186Z" transform="translate(-349.572 -355.238)"/>
              </g>
              <g id="g3507" transform="translate(65.993 40.532)">
                <path id="path3509" d="M571.974,392.483a1.182,1.182,0,0,1-1.182-1.182V359.566a1.967,1.967,0,0,0-1.965-1.965h-9.165a1.182,1.182,0,0,1,0-2.363h9.165a4.333,4.333,0,0,1,4.328,4.328V391.3A1.182,1.182,0,0,1,571.974,392.483Z" transform="translate(-558.481 -355.238)"/>
              </g>
              <g id="g3511" transform="translate(49.025 40.532)">
                <path id="path3513" d="M416.066,355.239h8.625a1.182,1.182,0,0,1,1.062.663L429,362.546l2.956-6.608a1.182,1.182,0,0,1,1.079-.7h8.561a1.182,1.182,0,0,1,1.1,1.615c-.151.383-3.811,9.394-13.613,9.661h-.037c-.4,0-8.915-.13-14.017-9.531a1.182,1.182,0,0,1,1.039-1.745Zm7.887,2.363h-5.778a14.987,14.987,0,0,0,8.831,6.246Zm15.712,0H433.8l-2.841,6.35A13.074,13.074,0,0,0,439.665,357.6Z" transform="translate(-414.884 -355.239)"/>
              </g>
              <g id="g3515" transform="translate(47.937 18.846)">
                <path id="path3517" d="M420.928,204.68a1.182,1.182,0,0,1-1.062-.663l-4.355-8.913a1.182,1.182,0,0,1-.12-.519v-4.538h-2.151a7.571,7.571,0,0,1-7.563-7.563V172.9a1.182,1.182,0,0,1,1.182-1.182h18.056a1.182,1.182,0,0,1,0,2.363H408.042v8.4a5.205,5.205,0,0,0,5.2,5.2h3.332a1.182,1.182,0,0,1,1.182,1.182v5.446l3.126,6.4,2.853-6.377v-7.984a1.182,1.182,0,0,1,2.363,0v8.237a1.182,1.182,0,0,1-.1.483l-3.988,8.913a1.182,1.182,0,0,1-1.059.7Z" transform="translate(-405.679 -171.718)"/>
              </g>
              <g id="g3519" transform="translate(15.398 23.911)">
                <path id="path3521" d="M142.483,249.734H131.5a1.182,1.182,0,0,1,0-2.363h10.988a3.989,3.989,0,0,0,3.985-3.985v-1.8h-8.339a2.244,2.244,0,0,1-2.242-2.242v-4.356a1.182,1.182,0,0,1,1.182-1.182h4.365a3.954,3.954,0,0,0,3.95-3.95V215.764a1.182,1.182,0,0,1,2.363,0v14.089a6.32,6.32,0,0,1-6.313,6.313H138.25v3.053h9.4a1.182,1.182,0,0,1,1.182,1.182v2.986A6.355,6.355,0,0,1,142.483,249.734Z" transform="translate(-130.314 -214.582)"/>
              </g>
              <g id="g3523" transform="translate(4.72 42.225)">
                <path id="path3525" d="M46.293,386.41a6.355,6.355,0,0,1-6.348-6.348v-2.986a1.182,1.182,0,0,1,1.182-1.182h6.511v-5.14a1.182,1.182,0,0,1,2.363,0v5.262a2.244,2.244,0,0,1-2.242,2.242h-5.45v1.8a3.989,3.989,0,0,0,3.985,3.985,1.182,1.182,0,1,1,0,2.363Z" transform="translate(-39.945 -369.572)"/>
              </g>
              <g id="g3527" transform="translate(0 48.548)">
                <path id="path3529" d="M25.5,443.531a8.084,8.084,0,0,1-4.659-1.621,8.5,8.5,0,0,1-4.783,1.549,8.643,8.643,0,0,1-5.052-1.738,12.059,12.059,0,0,1-5.2,1.27A8.492,8.492,0,0,1,.395,441.2,1.182,1.182,0,0,1,0,440.316V428.972a5.9,5.9,0,0,1,5.895-5.9H34.367a12.611,12.611,0,0,1,9.992,4.961l4.939,6.509a1.182,1.182,0,0,1,.142,1.186c-1.126,2.589-3.663,4.014-7.146,4.014a13.344,13.344,0,0,1-1.8-.124,6.942,6.942,0,0,1-5.384,2.57,9.481,9.481,0,0,1-4.19-1.082A7.707,7.707,0,0,1,25.5,443.531Zm-4.617-4.3a1.179,1.179,0,0,1,.836.346,6.059,6.059,0,0,0,3.781,1.588,5.87,5.87,0,0,0,4.324-2.327,1.182,1.182,0,0,1,1.558-.187,7.5,7.5,0,0,0,3.73,1.175,4.7,4.7,0,0,0,3.939-2.186,1.182,1.182,0,0,1,1.218-.455,10.324,10.324,0,0,0,2.023.194c2.247,0,3.813-.674,4.667-2.006l-4.485-5.91a10.235,10.235,0,0,0-8.109-4.026H5.895a3.536,3.536,0,0,0-3.532,3.532v10.74a6.566,6.566,0,0,0,3.446.914,10.15,10.15,0,0,0,4.791-1.35,1.182,1.182,0,0,1,1.392.2,6.437,6.437,0,0,0,4.067,1.618,6.564,6.564,0,0,0,4.089-1.6A1.178,1.178,0,0,1,20.884,439.233Z" transform="translate(0 -423.077)"/>
              </g>
              <g id="g3531" transform="translate(0 53.523)">
                <path id="path3533" d="M25.5,485.639a8.084,8.084,0,0,1-4.659-1.622,8.552,8.552,0,0,1-4.805,1.546,8.466,8.466,0,0,1-5.045-1.726,12,12,0,0,1-5.187,1.271,8.455,8.455,0,0,1-5.411-1.8A1.182,1.182,0,0,1,0,482.426V466.367a1.182,1.182,0,0,1,2.363,0v15.457c1.01.627,3.9,1.9,8.238-.438a1.182,1.182,0,0,1,1.392.2c.373.362,3.81,3.471,8.156.013a1.182,1.182,0,0,1,1.571.089,6,6,0,0,0,3.934,1.585,5.96,5.96,0,0,0,4.171-2.324,1.182,1.182,0,0,1,1.559-.187c.47.322,4.706,3.046,7.669-1.01a1.182,1.182,0,0,1,1.218-.455c.049.011,4.828,1.045,6.689-1.813L45.4,475.431A1.182,1.182,0,0,1,47.285,474l2.014,2.653a1.182,1.182,0,0,1,.142,1.186c-1.918,4.408-7.006,4.162-8.944,3.891-3.069,3.583-7.182,2.765-9.587,1.5a7.77,7.77,0,0,1-5.205,2.4Q25.6,485.639,25.5,485.639Z" transform="translate(0 -465.185)"/>
              </g>
              <g id="g3535" transform="translate(8.938 18.224)">
                <path id="path3537" d="M81.968,186.3a1.182,1.182,0,0,1-.722-2.118l2.43-1.873a4.33,4.33,0,0,1,1.636-2.953,4.429,4.429,0,0,1,3.928-.417l6.266-2.893a2.874,2.874,0,0,0,1.663-2.6,4.633,4.633,0,0,0-4.632-4.632H82.868A4.871,4.871,0,0,0,78,173.68v.5a1.182,1.182,0,1,1-2.363,0v-.5a7.237,7.237,0,0,1,7.228-7.229h9.669a7,7,0,0,1,7,7,5.245,5.245,0,0,1-3.035,4.747l-6.679,3.083a1.182,1.182,0,0,1-.878.045,2.722,2.722,0,0,0-2.253-.042,2.32,2.32,0,0,0-.7,1.649,1.182,1.182,0,0,1-.46.937l-2.842,2.19A1.177,1.177,0,0,1,81.968,186.3Z" transform="translate(-75.64 -166.451)"/>
              </g>
              <g id="g3539" transform="translate(0 24.675)">
                <path id="path3541" d="M9.591,221.048a2.777,2.777,0,0,1,2.027.884,2.7,2.7,0,0,1,.715,2.057.377.377,0,0,0,.317.4,2.738,2.738,0,0,1,1.133,4.965.377.377,0,0,0-.113.5,2.7,2.7,0,0,1,0,2.729,2.743,2.743,0,0,1-2.36,1.377,2.783,2.783,0,0,1-.816-.124c-.237-.017-.393.057-.458.221a2.738,2.738,0,0,1-5.093,0,.378.378,0,0,0-.348-.237,3.546,3.546,0,0,1-.926.14,2.743,2.743,0,0,1-2.36-1.377,2.7,2.7,0,0,1,0-2.729.377.377,0,0,0-.113-.5,2.738,2.738,0,0,1,1.134-4.965.377.377,0,0,0,.317-.4,2.7,2.7,0,0,1,.715-2.056,2.777,2.777,0,0,1,2.027-.885,2.718,2.718,0,0,1,1.847.731.375.375,0,0,0,.508,0A2.707,2.707,0,0,1,9.591,221.048Zm-2.1,3.194a2.73,2.73,0,0,1-1.858-.727.345.345,0,0,0-.243-.1.418.418,0,0,0-.3.13.342.342,0,0,0-.089.275,2.752,2.752,0,0,1-2.317,2.906.374.374,0,0,0-.155.679,2.752,2.752,0,0,1,.827,3.623.345.345,0,0,0,0,.368.373.373,0,0,0,.438.177,2.736,2.736,0,0,1,3.348,1.612.375.375,0,0,0,.7,0,2.736,2.736,0,0,1,3.349-1.612.424.424,0,0,0,.123.02.377.377,0,0,0,.315-.2.345.345,0,0,0,0-.368,2.752,2.752,0,0,1,.827-3.623.375.375,0,0,0-.155-.679,2.752,2.752,0,0,1-2.317-2.906.342.342,0,0,0-.089-.275.417.417,0,0,0-.3-.13.35.35,0,0,0-.244.1A2.73,2.73,0,0,1,7.489,224.241Z" transform="translate(-0.003 -221.048)"/>
              </g>
              <g id="g3543" transform="translate(0.695 31.822)">
                <path id="path3545" d="M13.876,296.383A8,8,0,0,1,6.6,285.062a1.182,1.182,0,0,1,2.149.984,5.632,5.632,0,1,0,8.239-2.351,1.182,1.182,0,0,1,1.31-1.967,8,8,0,0,1-4.425,14.654Z" transform="translate(-5.88 -281.53)"/>
              </g>
              <g id="g3547" transform="translate(58.018 18.847)">
                <path id="path3549" d="M492.177,171.723h10.8a1.182,1.182,0,0,1,1.156,1.424l-2.823,13.447a1.182,1.182,0,0,1-1.649.831l-5.406-2.478a1.182,1.182,0,0,1-.094-2.1,2.557,2.557,0,0,0,1.1-1.293,1.17,1.17,0,0,0-.255-.964c-.4-.595-.727-.6-.851-.595a2.154,2.154,0,0,0-1.176.531,1.185,1.185,0,0,1-1.978-.873V172.9A1.182,1.182,0,0,1,492.177,171.723Zm9.341,2.363h-8.16v3.642a3.427,3.427,0,0,1,.791-.095,3.313,3.313,0,0,1,2.81,1.635,3.516,3.516,0,0,1,.6,2.829,3.848,3.848,0,0,1-.7,1.445l2.44,1.118Z" transform="translate(-490.995 -171.723)"/>
              </g>
              <g id="g3551" transform="translate(45.778 26.133)">
                <path id="path3553" d="M388.591,238.026a1.182,1.182,0,0,1-.858-1.994l2.159-2.28a1.182,1.182,0,0,1,1.716,1.625l-2.159,2.28A1.178,1.178,0,0,1,388.591,238.026Z" transform="translate(-387.41 -233.383)"/>
              </g>
              <g id="g3555" transform="translate(57.957 49.445)">
                <path id="path3557" d="M499.765,437.087a1.178,1.178,0,0,1-.836-.346l-3.219-3.219-3.219,3.219a1.182,1.182,0,1,1-1.671-1.671l4.054-4.054a1.182,1.182,0,0,1,1.671,0l4.055,4.054a1.182,1.182,0,0,1-.836,2.017Z" transform="translate(-490.474 -430.669)"/>
              </g>
              <g id="g3559" transform="translate(0 69.583)">
                <path id="path3561" d="M1.182,609.285A1.182,1.182,0,0,1,0,608.1v-5.831a1.182,1.182,0,0,1,2.363,0V608.1A1.182,1.182,0,0,1,1.182,609.285Z" transform="translate(0 -601.091)"/>
              </g>
              <g id="g3563" transform="translate(43.788 67.459)">
                <path id="path3565" d="M374.823,593.434a1.182,1.182,0,0,1-1.1-.757l-3.069-7.955a1.182,1.182,0,0,1,2.2-.851l3.069,7.955a1.182,1.182,0,0,1-1.1,1.607Z" transform="translate(-370.571 -583.115)"/>
              </g>
              <g id="g3567" transform="translate(30.468 34.146)">
                <path id="path3569" d="M260.921,305.491a1.178,1.178,0,0,1-.844-.354l-1.894-1.932a1.182,1.182,0,1,1,1.688-1.655l1.894,1.932a1.182,1.182,0,0,1-.844,2.009Z" transform="translate(-257.845 -301.195)"/>
              </g>
              <g id="g3571" transform="translate(23.761)">
                <path id="path3573" d="M202.262,24.66a1.182,1.182,0,0,1-.836-2.017l.3-.3a2.491,2.491,0,0,0,.734-1.773V15.332a1.182,1.182,0,0,1,.842-1.132l6.407-1.923a1.182,1.182,0,0,1,1.521,1.132v5.233a4.839,4.839,0,0,1-1.426,3.444l-.305.305a1.182,1.182,0,1,1-1.671-1.671l.3-.3a2.491,2.491,0,0,0,.734-1.773V15l-4.043,1.213v4.353a4.839,4.839,0,0,1-1.426,3.444l-.3.3A1.178,1.178,0,0,1,202.262,24.66Z" transform="translate(-201.08 -12.228)"/>
              </g>
              <g id="g3575" transform="translate(5.612 8.333)">
                <path id="path3577" d="M48.675,93.26a1.182,1.182,0,0,1-.836-2.017l.3-.3a2.491,2.491,0,0,0,.734-1.773V83.933a1.182,1.182,0,0,1,2.363,0v5.233a4.838,4.838,0,0,1-1.426,3.444l-.3.3A1.178,1.178,0,0,1,48.675,93.26Z" transform="translate(-47.493 -82.751)"/>
              </g>
              <g id="g3579" transform="translate(38.826 10.877)">
                <path id="path3581" d="M361.237,114.612H331.984a3.41,3.41,0,0,1-.8-6.726l7.554-1.821a1.18,1.18,0,0,1,.149-.026l16.047-1.752a1.18,1.18,0,0,1,.128-.007h2.176a5.87,5.87,0,0,1,5.15,3.053l1.518,2.779a3.039,3.039,0,0,1-2.561,4.5Zm-22.016-6.232-7.481,1.8a1.047,1.047,0,0,0,.245,2.065h29.253v1.182l.015-1.182a.667.667,0,0,0,.321-.087.678.678,0,0,0,.261-.917l-1.517-2.778a3.507,3.507,0,0,0-3.077-1.824h-2.111Z" transform="translate(-328.573 -104.28)"/>
              </g>
              <g id="g3583" transform="translate(48.088 5.157)">
                <path id="path3585" d="M411.292,55.869a2.857,2.857,0,0,1,.819.12l4.912,1.465,4.7-1.361a2.851,2.851,0,0,1,3.648,2.744v3.934a1.182,1.182,0,0,1-1.053,1.175L408.269,65.7a1.182,1.182,0,0,1-1.276-1.457l1.521-6.17A2.833,2.833,0,0,1,411.292,55.869Zm5.725,4a1.181,1.181,0,0,1-.338-.049l-5.245-1.564a.49.49,0,0,0-.621.361l-1.121,4.55,13.314-1.454V58.837a.492.492,0,0,0-.488-.494.5.5,0,0,0-.139.02l-5.033,1.458A1.182,1.182,0,0,1,417.017,59.868Z" transform="translate(-406.959 -55.869)"/>
              </g>
            </g>
          </g>
        </g>
      </g>
    </g>
  </g>
</svg>
