<svg xmlns="http://www.w3.org/2000/svg" width="118.01" height="118.008" viewBox="0 0 118.01 118.008">
  <g id="Grupo_1179943" data-name="Grupo 1179943" transform="translate(-8 -8)">
    <path id="Trazado_997004" data-name="Trazado 997004" d="M16,16H99.748V130.2H16Z" transform="translate(-6.097 -6.097)" fill="#e2e7f6"/>
    <path id="Trazado_997005" data-name="Trazado 997005" d="M16,16V122.588H86.424a5.71,5.71,0,0,0,5.71-5.71h0V16Z" transform="translate(-6.097 -6.097)" fill="#f2f2f2"/>
    <path id="Trazado_997006" data-name="Trazado 997006" d="M48,384H63.227v15.227H48Z" transform="translate(-30.483 -286.542)" fill="#4d8c28"/>
    <path id="Trazado_997007" data-name="Trazado 997007" d="M48,48h68.521V97.487H48Z" transform="translate(-30.483 -30.483)" fill="#78a0d4"/>
    <path id="Trazado_997008" data-name="Trazado 997008" d="M48,48V87.971h55.2a5.71,5.71,0,0,0,5.71-5.71V48Z" transform="translate(-30.483 -30.483)" fill="#93bee5"/>
    <path id="Trazado_997009" data-name="Trazado 997009" d="M392,411.807l11.42,17.13h13.324L401.517,408" transform="translate(-292.639 -304.832)" fill="#4c6cb5"/>
    <path id="Trazado_997010" data-name="Trazado 997010" d="M421.873,419.628,415.2,409.6l4-1.6,9.69,13.323H425.04a3.807,3.807,0,0,1-3.167-1.7Z" transform="translate(-310.319 -304.832)" fill="#5e87ca"/>
    <path id="Trazado_997011" data-name="Trazado 997011" d="M264.744,411.807l-11.42,17.13H240L255.227,408" transform="translate(-176.803 -304.832)" fill="#4c6cb5"/>
    <path id="Trazado_997012" data-name="Trazado 997012" d="M270.286,419.628l6.673-10.025-4-1.6-9.69,13.323h3.847a3.807,3.807,0,0,0,3.167-1.7Z" transform="translate(-194.538 -304.832)" fill="#5e87ca"/>
    <circle id="Elipse_13665" data-name="Elipse 13665" cx="30.398" cy="30.398" r="30.398" transform="translate(63.586 47.952)" fill="#f9d266"/>
    <circle id="Elipse_13666" data-name="Elipse 13666" cx="20.845" cy="20.845" r="20.845" transform="translate(73.14 57.506)" fill="#f4a93c"/>
    <ellipse id="Elipse_13667" data-name="Elipse 13667" cx="11.725" cy="11.291" rx="11.725" ry="11.291" transform="translate(81.825 67.06)" fill="#b52f28"/>
    <path id="Trazado_997013" data-name="Trazado 997013" d="M320,267.42a11.409,11.409,0,0,0,5.059,9.484c.217.011.43.032.651.032a11.42,11.42,0,0,0,6.361-20.9c-.217-.011-.43-.032-.651-.032A11.42,11.42,0,0,0,320,267.42Z" transform="translate(-237.769 -188.996)" fill="#d23f34"/>
    <path id="Trazado_997014" data-name="Trazado 997014" d="M325.324,261.323,312,255.613,319.613,248Z" transform="translate(-231.672 -182.899)" fill="#f2f2f2"/>
    <path id="Trazado_997015" data-name="Trazado 997015" d="M235.023,173.773l2.691-2.691,20.762,20.762-2.691,2.691Z" transform="translate(-173.01 -124.282)" fill="#686868"/>
    <path id="Trazado_997016" data-name="Trazado 997016" d="M188.937,124.937v-11.42L179.42,104v11.42H168l9.517,9.517Z" transform="translate(-121.933 -73.16)" fill="#3b5892"/>
    <path id="Trazado_997017" data-name="Trazado 997017" d="M48,288H63.227v15.227H48Z" transform="translate(-30.483 -213.382)" fill="#4d8c28"/>
    <path id="Trazado_997018" data-name="Trazado 997018" d="M48,288H59.42v11.42H48Z" transform="translate(-30.483 -213.382)" fill="#559b2d"/>
    <path id="Trazado_997019" data-name="Trazado 997019" d="M48,384H59.42v11.42H48Z" transform="translate(-30.483 -286.542)" fill="#559b2d"/>
    <path id="Trazado_997020" data-name="Trazado 997020" d="M71.5,289.013a1.9,1.9,0,0,1-1.346-.558l-3.807-3.807,2.691-2.691,2.461,2.461,10.074-10.074,2.691,2.691-11.42,11.42A1.9,1.9,0,0,1,71.5,289.013Z" transform="translate(-44.463 -202.975)" fill="#474747"/>
    <path id="Trazado_997021" data-name="Trazado 997021" d="M71.5,385.013a1.9,1.9,0,0,1-1.346-.558l-3.807-3.807,2.691-2.691,2.461,2.461,10.074-10.074,2.691,2.691-11.42,11.42A1.9,1.9,0,0,1,71.5,385.013Z" transform="translate(-44.463 -276.135)" fill="#474747"/>
    <g id="Grupo_1179942" data-name="Grupo 1179942" transform="translate(38.454 78.424)">
      <path id="Trazado_997022" data-name="Trazado 997022" d="M136,336h19.034v3.807H136Z" transform="translate(-136 -328.387)" fill="#c8cded"/>
      <path id="Trazado_997023" data-name="Trazado 997023" d="M136,304h19.034v3.807H136Z" transform="translate(-136 -304)" fill="#c8cded"/>
      <path id="Trazado_997024" data-name="Trazado 997024" d="M136,432h19.034v3.807H136Z" transform="translate(-136 -401.546)" fill="#c8cded"/>
      <path id="Trazado_997025" data-name="Trazado 997025" d="M136,400h19.034v3.807H136Z" transform="translate(-136 -377.16)" fill="#c8cded"/>
    </g>
    <path id="Trazado_997026" data-name="Trazado 997026" d="M112.386,104.757A32.3,32.3,0,0,0,95.554,46.164V9.9a1.9,1.9,0,0,0-1.9-1.9H9.9A1.9,1.9,0,0,0,8,9.9V124.1a1.9,1.9,0,0,0,1.9,1.9H93.651a1.9,1.9,0,0,0,1.9-1.9V110.684a31.741,31.741,0,0,0,3.71-.424l9.934,14.9a1.9,1.9,0,0,0,1.584.847H124.1a1.9,1.9,0,0,0,1.54-3.023ZM122.2,78.424a28.575,28.575,0,0,1-21.213,27.559l-.044-.065-.19.124a27.544,27.544,0,0,1-14.214,0l-.19-.124-.044.065A28.469,28.469,0,0,1,72.183,59.655l4.035,4.035A22.892,22.892,0,1,0,78.91,61l-4.035-4.035A28.507,28.507,0,0,1,122.2,78.424Zm-38.12,30.911L75.5,122.2H66.937l11.2-15.4A32.09,32.09,0,0,0,84.081,109.335ZM84.134,47.5a32.31,32.31,0,0,0-11.944,6.772l-3.283-3.283V40.357a1.9,1.9,0,0,0-.558-1.346l-9.517-9.517a1.9,1.9,0,0,0-3.249,1.346v9.517H46.067a1.9,1.9,0,0,0-1.346,3.249l9.517,9.517a1.9,1.9,0,0,0,1.346.558H66.216L69.5,56.964A32.45,32.45,0,0,0,64.2,65.1H19.42V19.42H84.134ZM65.1,41.145v8.729H56.372l-5.71-5.71h6.825a1.9,1.9,0,0,0,1.9-1.9V35.435ZM81.443,68.907l-2.461,2.461a1.9,1.9,0,0,0,.6,3.095l1.214.522a13.379,13.379,0,1,0,9.42-9.42l-.522-1.214a1.9,1.9,0,0,0-3.095-.6l-2.461,2.461-2.52-2.52a19.064,19.064,0,1,1-2.691,2.691ZM84.325,76.5l8.565,3.673a1.882,1.882,0,0,0,.761.154A1.9,1.9,0,0,0,95.4,77.674l-3.673-8.565a9.5,9.5,0,1,1-7.4,7.391Zm5.71-1.692L83.668,72.08l3.639-3.639Zm-78.228-63H91.748V46.164a32.062,32.062,0,0,0-3.807.438V17.517a1.9,1.9,0,0,0-1.9-1.9H17.517a1.9,1.9,0,0,0-1.9,1.9V67a1.9,1.9,0,0,0,1.9,1.9h45.21a32.273,32.273,0,0,0,12.181,35.85L62.229,122.2H11.807ZM80.076,122.2l7.962-11.942a31.74,31.74,0,0,0,3.71.424V122.2Zm31.723,0-8.578-12.867a32.139,32.139,0,0,0,5.948-2.53l11.2,15.4Z"/>
    <path id="Trazado_997027" data-name="Trazado 997027" d="M41.9,294.723H57.13a1.9,1.9,0,0,0,1.9-1.9V282.188l5.152-5.152-2.691-2.691L58.9,276.938a1.89,1.89,0,0,0-1.77-1.249H41.9a1.9,1.9,0,0,0-1.9,1.9V292.82A1.9,1.9,0,0,0,41.9,294.723Zm1.9-15.227h11.42v1.115l-3.807,3.807-2.461-2.461-2.691,2.691,3.807,3.807a1.9,1.9,0,0,0,2.691,0l2.461-2.461v4.922H43.807Z" transform="translate(-24.387 -202.975)"/>
    <path id="Trazado_997028" data-name="Trazado 997028" d="M64.186,373.035l-2.691-2.691L58.9,372.938a1.89,1.89,0,0,0-1.77-1.249H41.9a1.9,1.9,0,0,0-1.9,1.9V388.82a1.9,1.9,0,0,0,1.9,1.9H57.13a1.9,1.9,0,0,0,1.9-1.9V378.188Zm-8.959,13.881H43.807V375.5h11.42v1.115l-3.807,3.807-2.461-2.461-2.691,2.691,3.807,3.807a1.9,1.9,0,0,0,2.691,0l2.461-2.461Z" transform="translate(-24.387 -276.135)"/>
    <path id="Trazado_997029" data-name="Trazado 997029" d="M136,336h19.034v3.807H136Z" transform="translate(-97.546 -249.962)"/>
    <path id="Trazado_997030" data-name="Trazado 997030" d="M136,304h19.034v3.807H136Z" transform="translate(-97.546 -225.576)"/>
    <path id="Trazado_997031" data-name="Trazado 997031" d="M136,432h19.034v3.807H136Z" transform="translate(-97.546 -323.122)"/>
    <path id="Trazado_997032" data-name="Trazado 997032" d="M136,400h19.034v3.807H136Z" transform="translate(-97.546 -298.735)"/>
  </g>
</svg>
