<svg xmlns="http://www.w3.org/2000/svg" width="124" height="124" viewBox="0 0 124 124">
  <g id="Grupo_1180069" data-name="Grupo 1180069" transform="translate(-580 -3214.933)">
    <g id="Grupo_1179515" data-name="Grupo 1179515" transform="translate(-148.117 -3703.126)">
      <circle id="Elipse_13613" data-name="Elipse 13613" cx="62" cy="62" r="62" transform="translate(728.117 6918.059)" fill="#0d47a1"/>
      <circle id="Elipse_13614" data-name="Elipse 13614" cx="56" cy="56" r="56" transform="translate(734.117 6924.059)" fill="#fff"/>
    </g>
    <g id="Grupo_1179647" data-name="Grupo 1179647" transform="translate(604.981 3239.914)">
      <g id="Filled">
        <path id="Trazado_996529" data-name="Trazado 996529" d="M284.379,27.909a7.954,7.954,0,0,1-15.274,3.112,6.511,6.511,0,0,1-7.927-2.395c-.075,0-.15.006-.225.006a7.952,7.952,0,0,1-6.2-12.935,4.335,4.335,0,0,1,.229-6.439,7.232,7.232,0,0,1,3.493-8.216A4.344,4.344,0,0,1,258.35,0h32.1V27.909Z" transform="translate(-216.415)" fill="#afd2d7"/>
        <path id="Trazado_996530" data-name="Trazado 996530" d="M276.426,141.013a7.955,7.955,0,0,1-7.321-4.841,6.511,6.511,0,0,1-7.927-2.395c-.075,0-.15.006-.225.006A7.955,7.955,0,0,1,253.3,128a7.953,7.953,0,0,0,7.651,10.123c.076,0,.15,0,.225-.006a6.511,6.511,0,0,0,7.927,2.395,7.954,7.954,0,0,0,15.274-3.112h6.073v-4.338h-6.073A7.953,7.953,0,0,1,276.426,141.013Z" transform="translate(-216.415 -109.489)" fill="#87bcc4"/>
        <path id="Trazado_996531" data-name="Trazado 996531" d="M405.118,82v49.31h-9.255V98.34l-8.814-7.369a5.784,5.784,0,0,1,4.257-5.3l8.461,7.026-.283-8.36A7.931,7.931,0,0,1,405.118,82Z" transform="translate(-331.081 -70.142)" fill="#d4b981"/>
        <path id="Trazado_996532" data-name="Trazado 996532" d="M448.813,326.324c-.275.071-.546.154-.813.247v10.034h9.255V322A10.274,10.274,0,0,0,448.813,326.324Z" transform="translate(-383.217 -275.437)" fill="#ad935c"/>
        <path id="Trazado_996533" data-name="Trazado 996533" d="M35.475,123.122H10.892A2.892,2.892,0,0,1,8,120.23v-4.338A2.892,2.892,0,0,1,10.892,113H35.475a2.892,2.892,0,0,1,2.892,2.892v4.338A2.892,2.892,0,0,1,35.475,123.122Z" transform="translate(-6.843 -96.66)" fill="#d4b981"/>
        <path id="Trazado_996534" data-name="Trazado 996534" d="M66,290H79.593v12.581H66Z" transform="translate(-56.456 -248.065)" fill="#d4b981"/>
        <path id="Trazado_996535" data-name="Trazado 996535" d="M28,274v1.446a4.338,4.338,0,0,0,4.338,4.338h1.157V274Z" transform="translate(-23.951 -234.378)" fill="#ffe4c2"/>
        <path id="Trazado_996536" data-name="Trazado 996536" d="M40.291,124A12.291,12.291,0,0,0,28,136.291v9.4h5.495V148H47.088v-2.314h5.495v-9.4A12.291,12.291,0,0,0,40.291,124Z" transform="translate(-23.951 -106.069)" fill="#f05475"/>
        <path id="Trazado_996537" data-name="Trazado 996537" d="M47.088,246.314H33.495V244H28v4.338h5.495v2.314H47.088v-2.314h5.495V244H47.088Z" transform="translate(-23.951 -208.717)" fill="#e21743"/>
        <path id="Trazado_996538" data-name="Trazado 996538" d="M83.061,85.676A5.061,5.061,0,0,1,78,80.615V77H88.122v3.615A5.061,5.061,0,0,1,83.061,85.676Z" transform="translate(-66.721 -65.865)" fill="#ffe4c2"/>
        <path id="Trazado_996539" data-name="Trazado 996539" d="M88.122,42.784H78v-.723a5.061,5.061,0,1,1,10.122,0Z" transform="translate(-66.721 -31.65)" fill="#d4b981"/>
        <path id="Trazado_996540" data-name="Trazado 996540" d="M160,279.784h1.157a4.338,4.338,0,0,0,4.338-4.338V274H160Z" transform="translate(-136.863 -234.378)" fill="#ffe4c2"/>
        <path id="Trazado_996541" data-name="Trazado 996541" d="M68.434,330.331c-.06,0-.12,0-.181,0a6.087,6.087,0,0,0-3.534,1.11,4.6,4.6,0,0,0-2.25-.578,4.331,4.331,0,0,0-4.092,2.665c-.082,0-.163-.006-.246-.006a7.672,7.672,0,0,0-3.763.971,5.069,5.069,0,0,0-5.217-2.118,4.338,4.338,0,0,0-5.266-2.194,5.784,5.784,0,0,0-10.089-.312,5.06,5.06,0,0,0-4.1.188,5.785,5.785,0,0,0-5.4-3.715c-.075,0-.15,0-.225.006a6.507,6.507,0,0,0-11.815-1.015l-.107,0a4.338,4.338,0,0,0-4.338,4.338c0,.05,0,.1,0,.148a5.794,5.794,0,0,0-4.122,3.613A7.2,7.2,0,0,0,0,332.412v17.063H74.037V326.338A5.72,5.72,0,0,0,68.434,330.331Z" transform="translate(0 -275.437)" fill="#d8fc7e"/>
        <path id="Trazado_996542" data-name="Trazado 996542" d="M0,482H74.037v4.338H0Z" transform="translate(0 -412.301)" fill="#c3f839"/>
      </g>
      <g id="Grupo_1179646" data-name="Grupo 1179646" transform="translate(3.904 4.844)">
        <path id="Trazado_996543" data-name="Trazado 996543" d="M105.5,192h2.169v2.169H105.5Z" transform="translate(-94.149 -169.08)" fill="#fff"/>
        <path id="Trazado_996544" data-name="Trazado 996544" d="M397,440.5h2.169v2.169H397Z" transform="translate(-343.496 -381.646)" fill="#fff"/>
        <path id="Trazado_996545" data-name="Trazado 996545" d="M337,33.5h2.169v2.169H337Z" transform="translate(-292.173 -33.5)" fill="#fff"/>
        <path id="Trazado_996546" data-name="Trazado 996546" d="M27,470.5h2.169v2.169H27Z" transform="translate(-27 -407.308)" fill="#fff"/>
        <path id="Trazado_996547" data-name="Trazado 996547" d="M167,450.5h2.169v2.169H167Z" transform="translate(-146.755 -390.2)" fill="#fff"/>
      </g>
      <g id="Outline">
        <path id="Trazado_996548" data-name="Trazado 996548" d="M67.663,230.9a7.225,7.225,0,0,0-1.8.375v-3.521H63.7v3.788a5.8,5.8,0,0,0-1.229-.133,5.5,5.5,0,0,0-4.776,2.67,8.757,8.757,0,0,0-3.023.693,6.138,6.138,0,0,0-4.493-1.956q-.23,0-.461.017a5.423,5.423,0,0,0-5.314-2.262,6.868,6.868,0,0,0-11.044-.341,6.186,6.186,0,0,0-3.123.083A6.924,6.924,0,0,0,24.8,226.9a7.55,7.55,0,0,0-.578-1.014v-2.331h.072a5.429,5.429,0,0,0,5.423-5.423v-5.669H27.547V215.6H24.221V207H22.052v10.918H10.628V207H8.459v8.6H5.133v-3.138H2.964v5.669a5.429,5.429,0,0,0,5.423,5.423h.072v3.765a5.413,5.413,0,0,0-1.694,3.3,6.841,6.841,0,0,0-3.576,2.972A8.309,8.309,0,0,0,0,232.956v2.169a6.129,6.129,0,0,1,3.135.861l1.116.665.455-1.217A4.687,4.687,0,0,1,8.055,232.5l.894-.205-.054-.916c0-.028,0-.056,0-.084a3.257,3.257,0,0,1,3.254-3.254l.065,0,.663.026.325-.579a5.422,5.422,0,0,1,9.845.845l.266.755.8-.032c.061,0,.122,0,.183,0a4.725,4.725,0,0,1,4.388,3.018l.428,1.118,1.071-.536a3.978,3.978,0,0,1,3.22-.148l.852.333.472-.783a4.7,4.7,0,0,1,8.2.254l.428.821.878-.294a3.252,3.252,0,0,1,3.949,1.646l.371.749.819-.168a4.03,4.03,0,0,1,.809-.082,3.972,3.972,0,0,1,2.56.935,7.6,7.6,0,0,0-2.852,4.885,5.245,5.245,0,0,0-4.362,4.332A6.422,6.422,0,0,0,41.14,251.1h2.169a4.23,4.23,0,0,1,2.7-3.832h6.917V245.1H47.739a3.128,3.128,0,0,1,2.544-2.169h4.956v-2.169H52.093a6.024,6.024,0,0,1,6.038-4.533c.054,0,.107,0,.161,0l.823.024.275-.719a3.249,3.249,0,0,1,3.079-1.968,3.533,3.533,0,0,1,1.721.44l.6.334.559-.4a4.98,4.98,0,0,1,2.906-.909l.1,0,.9.025.228-.816a4.63,4.63,0,0,1,4.558-3.2v-2.169a6.884,6.884,0,0,0-6.374,4.012ZM24.221,217.773h3.326v.362a3.257,3.257,0,0,1-3.254,3.254h-.072ZM8.459,221.388H8.387a3.257,3.257,0,0,1-3.254-3.254v-.362H8.459Zm13.593,2.376a7.584,7.584,0,0,0-10.416,2.131,5.388,5.388,0,0,0-1.008.194v-6H22.052Z" transform="translate(0 -177.067)"/>
        <path id="Trazado_996549" data-name="Trazado 996549" d="M3.675,52.7a13.5,13.5,0,0,0-.283,2.756v3.007H5.561V55.456a11.27,11.27,0,0,1,7.5-10.574,6.116,6.116,0,0,0,2.622,1.15v4.8h2.169v-4.8a6.118,6.118,0,0,0,2.622-1.15,11.27,11.27,0,0,1,7.5,10.574v3.007h2.169V55.456a13.5,13.5,0,0,0-.283-2.756,3.984,3.984,0,0,0,3.175-3.9V44.467a3.981,3.981,0,0,0-3.977-3.977H22.891c.014-.167.023-.335.023-.506V37.453h3.254V35.284H22.9a6.145,6.145,0,0,0-12.268,0H7.369v2.169h3.254v2.531c0,.171.009.339.023.506H4.477A3.981,3.981,0,0,0,.5,44.467V48.8A3.984,3.984,0,0,0,3.675,52.7ZM22.3,42.659h6.759a1.81,1.81,0,0,1,1.808,1.808V48.8a1.81,1.81,0,0,1-1.629,1.8,13.343,13.343,0,0,0-1.814-3.23,13.514,13.514,0,0,0-5.4-4.213q.148-.244.273-.5Zm-5.532-10.99a3.982,3.982,0,0,1,3.959,3.615H12.809A3.982,3.982,0,0,1,16.768,31.669Zm-3.977,5.784h7.953v2.531a3.977,3.977,0,0,1-7.953,0ZM2.669,44.467a1.81,1.81,0,0,1,1.808-1.808h6.759q.125.257.273.5a13.512,13.512,0,0,0-5.4,4.213A13.348,13.348,0,0,0,4.3,50.6a1.81,1.81,0,0,1-1.629-1.8Z" transform="translate(-0.428 -25.234)"/>
        <path id="Trazado_996550" data-name="Trazado 996550" d="M278.332,12.8a5.424,5.424,0,0,0-8.646,1.755,6.913,6.913,0,0,0-4.809,6.552q0,.11,0,.222a4.7,4.7,0,0,0,.195,6.965l1.41-1.648a2.529,2.529,0,0,1,.079-3.91L273.7,28.7v5A6.872,6.872,0,0,1,263.687,30.6l-.423-.992-.995.417a5.426,5.426,0,0,1-6.6-2l-.337-.505-.607.024c-.061,0-.122,0-.183,0a6.877,6.877,0,0,1-6.869-6.869,6.791,6.791,0,0,1,1.516-4.3l.62-.771-.711-.688a3.251,3.251,0,0,1,.172-4.829l.529-.444-.178-.667a6.147,6.147,0,0,1,2.97-6.987l.728-.4-.2-.807a3.269,3.269,0,0,1-.1-.782H250.85c0,.167.008.334.023.5a8.314,8.314,0,0,0-3.5,8.4,5.424,5.424,0,0,0-.416,6.858,9.036,9.036,0,0,0,7.251,13.954,7.6,7.6,0,0,0,7.927,2.642,9.047,9.047,0,0,0,11.559,3.81V48.513h2.169V44.321h2.675V42.152h-2.675V39.983h4.121V37.814h-4.121V27.691l-8.76-7.324A4.742,4.742,0,0,1,270,16.751l9.855,8.185L279.5,14.653a6.791,6.791,0,0,1,4.533-1.711V10.773a9.074,9.074,0,0,0-5.7,2.032Zm-6.622,2.55a3.253,3.253,0,0,1,5.633-.387h0l.177,5.212Z" transform="translate(-210)"/>
        <path id="Trazado_996551" data-name="Trazado 996551" d="M467,420.5h2.169v2.169H467Z" transform="translate(-399.47 -359.694)"/>
        <path id="Trazado_996552" data-name="Trazado 996552" d="M305,130.5h2.169v2.169H305Z" transform="translate(-260.896 -111.629)"/>
        <path id="Trazado_996553" data-name="Trazado 996553" d="M467,20.5h2.169v2.169H467Z" transform="translate(-399.47 -17.536)"/>
        <path id="Trazado_996554" data-name="Trazado 996554" d="M237,420.5h2.169v2.169H237Z" transform="translate(-202.729 -359.694)"/>
        <path id="Trazado_996555" data-name="Trazado 996555" d="M107,390.5h2.169v2.169H107Z" transform="translate(-91.527 -334.032)"/>
      </g>
    </g>
  </g>
</svg>
