<svg xmlns="http://www.w3.org/2000/svg" width="85.791" height="88" viewBox="0 0 85.791 88">
  <g id="Grupo_1180064" data-name="Grupo 1180064" transform="translate(-270 -1825.792)">
    <g id="Grupo_1179542" data-name="Grupo 1179542" transform="translate(270 1825.792)">
      <ellipse id="Elipse_13615" data-name="Elipse 13615" cx="42.896" cy="44" rx="42.896" ry="44" fill="#8e3b0f"/>
    </g>
    <g id="Grupo_1179672" data-name="Grupo 1179672" transform="translate(283.332 1838.032)">
      <path id="Trazado_996586" data-name="Trazado 996586" d="M180.271,139.483c3.349,2.277,4.505,5.493,4.346,9.348-.044,1.054-.006,2.11-.007,3.166s.013,2.111-.005,3.166c-.022,1.233-.3,1.525-1.478,1.54-1.157.015-2.315-.016-3.471.027-.255.01-.5.247-.752.38.207.226.374.575.625.66a6.78,6.78,0,0,1,5.011,6.2c.106,1.138-.229,1.524-1.341,1.526q-7.714.016-15.428,0c-1.064,0-1.338-.347-1.3-1.47a6.746,6.746,0,0,1,4.32-6,3.952,3.952,0,0,0,.815-.288,2.482,2.482,0,0,0,.483-.587c-.206-.146-.408-.409-.62-.417-1.156-.044-2.313-.019-3.47-.03-1.358-.013-1.551-.213-1.556-1.626-.007-2.177.076-4.357-.019-6.529a9.753,9.753,0,0,1,4.342-9.1,16.108,16.108,0,0,1-9.4-8.346,15.933,15.933,0,0,1-.662-12.571c2.369-6.731,9.074-11.19,15.8-10.584a15.984,15.984,0,0,1,14.511,13.226A16.441,16.441,0,0,1,180.271,139.483Zm-11.95,15.131c4.753,0,9.215.01,13.677-.033.2,0,.553-.491.557-.757.034-2.307.078-4.618-.024-6.921a7.062,7.062,0,0,0-6.248-6.683,6.751,6.751,0,0,0-7.551,5.41A77.474,77.474,0,0,0,168.321,154.614Zm20.918-30.562a13.747,13.747,0,1,0-13.776,14.073A13.949,13.949,0,0,0,189.239,124.052ZM182.447,163.4c-.542-1.97-1.658-3.359-3.478-3.559a36.957,36.957,0,0,0-6.9-.021,4.033,4.033,0,0,0-3.381,3.58Zm-6.891-5.84a2.349,2.349,0,0,0,.667-.013,3.176,3.176,0,0,0,.644-.371c-.2-.153-.38-.414-.59-.439a7.286,7.286,0,0,0-1.624,0c-.181.02-.338.28-.506.431a1.888,1.888,0,0,0,.55.372A3.891,3.891,0,0,0,175.556,157.56Z" transform="translate(-146.438 -107.897)" fill="#fff"/>
      <path id="Trazado_996587" data-name="Trazado 996587" d="M310.639,280.1a6.922,6.922,0,0,1,6.188,4.83c.043.124.094.246.127.372.6,2.273.224,2.788-2.05,2.788q-7.562,0-15.124,0c-1.6,0-1.944-.442-1.661-2.04a6.941,6.941,0,0,1,5.593-5.85,2.047,2.047,0,0,0-.844-2.4,6.8,6.8,0,0,1-2.926-5.718c-.053-2.206-.031-4.415-.009-6.622a4.58,4.58,0,0,1,4.633-4.745c1.06-.014,2.12-.014,3.179,0a3.753,3.753,0,0,1,3.379,2.227,1.9,1.9,0,0,0,.916.81,3.332,3.332,0,0,1,2.232,3.039c.039,1.91.069,3.824-.017,5.731a6.535,6.535,0,0,1-2.833,5.253A1.9,1.9,0,0,0,310.639,280.1Zm-4.551-17.325c-.513,0-1.027-.013-1.54,0a2.519,2.519,0,0,0-2.591,2.684c-.023.954-.04,1.912.012,2.864a5.165,5.165,0,0,0,5.961,4.932c2.823-.569,4.383-2.606,4.373-5.712,0-1.4-.285-1.766-1.631-1.888a1.217,1.217,0,0,1-1.266-1.189,1.7,1.7,0,0,0-1.872-1.69C307.052,262.758,306.57,262.772,306.089,262.771Zm8.811,23.206a4,4,0,0,0-3.3-3.554,63.081,63.081,0,0,0-7.968-.015c-1.622.09-3.439,2.165-3.33,3.569Zm-6.489-5.88a5.209,5.209,0,0,0,.052-.888,2.472,2.472,0,0,1,1.521-2.908,4.051,4.051,0,0,0,2-2.738c-3.378,2.45-6.54,2.416-9.739-.059a4.657,4.657,0,0,0,2.455,3.072,1.726,1.726,0,0,1,1.079,1.871c-.043.54-.008,1.086-.008,1.65Z" transform="translate(-258.082 -230.481)" fill="#fff"/>
      <path id="Trazado_996588" data-name="Trazado 996588" d="M103.382,280.12a6.832,6.832,0,0,1,5.96,4.09,9.328,9.328,0,0,1,.607,2.173c.219,1.207-.226,1.718-1.45,1.72q-7.039.013-14.078,0c-.771,0-1.543,0-2.314,0-.881,0-1.262-.454-1.249-1.365a6.926,6.926,0,0,1,4.534-6.176c.427-.152,1.1-.029,1.134-.815a1.807,1.807,0,0,0-.747-1.845,6.869,6.869,0,0,1-3-5.882c-.008-2.209-.018-4.419,0-6.629a4.5,4.5,0,0,1,4.5-4.657c1.028-.018,2.057.006,3.085-.007a3.825,3.825,0,0,1,3.577,2.242,1.988,1.988,0,0,0,.924.81,3,3,0,0,1,2.139,2.462c.165,2.648.456,5.33-.251,7.956a6.09,6.09,0,0,1-2.536,3.615A1.845,1.845,0,0,0,103.382,280.12Zm-4.5-17.33c-.481,0-.963-.009-1.443,0a2.545,2.545,0,0,0-2.677,2.8c-.011.921-.028,1.844.011,2.764a5.185,5.185,0,0,0,5.974,4.918c2.856-.574,4.4-2.633,4.363-5.817-.015-1.284-.319-1.679-1.541-1.774a1.254,1.254,0,0,1-1.346-1.213,1.709,1.709,0,0,0-1.9-1.674C99.847,262.779,99.366,262.791,98.884,262.79Zm-5.811,23.177H107.8a4.558,4.558,0,0,0-4.307-3.7c-2.051-.09-4.112-.089-6.164,0A4.455,4.455,0,0,0,93.074,285.967Zm8.228-5.846a11.689,11.689,0,0,0-.007-1.26,2.112,2.112,0,0,1,1.326-2.419,4.359,4.359,0,0,0,2.2-2.9c-3.237,2.469-6.4,2.478-9.749.036a4.822,4.822,0,0,0,2.511,3.068A1.611,1.611,0,0,1,98.6,278.35c-.039.574-.008,1.154-.008,1.771Z" transform="translate(-90.857 -230.501)" fill="#fff"/>
      <path id="Trazado_996589" data-name="Trazado 996589" d="M344.661,152.248c.319,0,.706-.117.943.027.387.234.944.643.936.967a1.449,1.449,0,0,1-.911,1,3.622,3.622,0,0,1-1.892,0,1.558,1.558,0,0,1-.948-.984c-.126-.638.37-.989,1.01-1.012.287-.01.575,0,.863,0Z" transform="translate(-294.195 -143.44)" fill="#fff"/>
      <path id="Trazado_996590" data-name="Trazado 996590" d="M125.242,198.63c-.005-1.344.283-1.887,1-1.9s1.054.558,1.056,1.86c0,.329.008.658-.014.986-.043.641-.373,1.1-1,1.11-.685.007-1.012-.481-1.039-1.167C125.233,199.222,125.242,198.925,125.242,198.63Z" transform="translate(-118.609 -179.158)" fill="#fff"/>
      <path id="Trazado_996591" data-name="Trazado 996591" d="M125.154,228.094c-.024-1.333.28-1.9,1-1.9s1.041.574,1.041,1.888c0,.361.105.793-.05,1.065-.226.4-.639.934-.981.941s-.756-.534-.979-.93C125.031,228.889,125.154,228.455,125.154,228.094Z" transform="translate(-118.503 -202.797)" fill="#fff"/>
      <path id="Trazado_996592" data-name="Trazado 996592" d="M374.408,152.209c.351.017.762-.077,1.037.08.338.193.766.587.779.91a1.223,1.223,0,0,1-.681.972,6.764,6.764,0,0,1-2.364,0,1.227,1.227,0,0,1-.694-.971c.013-.323.446-.73.789-.909A2.9,2.9,0,0,1,374.408,152.209Z" transform="translate(-318.182 -143.434)" fill="#fff"/>
      <path id="Trazado_996593" data-name="Trazado 996593" d="M364.154,134.82c-.011.809.156,1.758-.976,1.922-.717.1-1.048-.561-1.048-1.953,0-.3-.006-.592.01-.887.035-.636.321-1.1.976-1.117.721-.022,1,.474,1.036,1.148C364.166,134.228,364.154,134.525,364.154,134.82Z" transform="translate(-309.822 -127.862)" fill="#fff"/>
      <path id="Trazado_996594" data-name="Trazado 996594" d="M137.39,216.343c.193,0,.385,0,.578,0,.669.02,1.243.185,1.239,1.032,0,.787-.549.98-1.173,1.008a13.593,13.593,0,0,1-1.636-.022.951.951,0,0,1-1.01-1.066c.032-.649.462-.9,1.039-.936.32-.019.642,0,.963,0Z" transform="translate(-126.8 -194.893)" fill="#fff"/>
      <path id="Trazado_996595" data-name="Trazado 996595" d="M362.022,164.153c-.014-1.357.269-1.871,1.008-1.865s1.014.528,1.014,1.884c0,.36.1.791-.056,1.062-.224.389-.644.916-.974.911s-.746-.535-.964-.929C361.9,164.943,362.022,164.513,362.022,164.153Z" transform="translate(-309.698 -151.53)" fill="#fff"/>
      <path id="Trazado_996596" data-name="Trazado 996596" d="M108.1,216.2a2.51,2.51,0,0,1,1.053.117,1.51,1.51,0,0,1,.729.958,1.129,1.129,0,0,1-.685.869,6.334,6.334,0,0,1-2.267.029,1.275,1.275,0,0,1-.79-.96c.009-.328.491-.725.852-.931A2.808,2.808,0,0,1,108.1,216.2Z" transform="translate(-103.197 -194.769)" fill="#fff"/>
      <path id="Trazado_996597" data-name="Trazado 996597" d="M130.068,146.531c-.4.271-.785.707-1.22.774-.606.093-1.02-.365-1.018-1.026,0-.707.451-1.175,1.089-1.059.425.077.778.571,1.164.879Z" transform="translate(-120.701 -137.823)" fill="#fff"/>
      <path id="Trazado_996598" data-name="Trazado 996598" d="M331.212,226.586c-.487-.664-.946-1.029-1.035-1.472a.914.914,0,0,1,.947-1.095.945.945,0,0,1,1.093,1.057C332.168,225.514,331.689,225.9,331.212,226.586Z" transform="translate(-284.014 -201.05)" fill="#fff"/>
      <path id="Trazado_996599" data-name="Trazado 996599" d="M193.213,129.956c.281-.041.649.02.828-.141.675-.606,1.28-1.294,1.928-1.934.8-.793,1.386-.727,2.059.2a13.256,13.256,0,0,1-8.222,20.738,12.282,12.282,0,0,1-9.758-2.328c-1-.729-1.036-1.257-.165-2.149.725-.743,1.474-1.461,2.261-2.24l-.537-.623a1.676,1.676,0,0,0-.287.178c-.665.669-1.323,1.345-1.988,2.014-.954.96-1.426.912-2.227-.218-4.66-6.568-2.264-16.14,4.947-19.528a12.316,12.316,0,0,1,12.979,1.127c1.165.8,1.194,1.324.209,2.346-.655.679-1.314,1.354-1.969,2.034a.758.758,0,0,0-.094.167Zm-14.7,11.751a20.293,20.293,0,0,1,1.384-1.493.932.932,0,0,0,.218-1.21,8.057,8.057,0,0,1,1.734-9.014,7.715,7.715,0,0,1,8.875-1.865c.263.1.686.2.847.062.623-.527,1.169-1.148,1.767-1.758a10.632,10.632,0,0,0-13.886,2C175.763,132.673,176.226,138.694,178.514,141.707Zm3.407,3.508c3.9,2.954,10.113,2.071,13.682-1.841,3.888-4.261,3.364-10.475,1.062-13.456a19.647,19.647,0,0,1-1.364,1.528.927.927,0,0,0-.206,1.207,8.082,8.082,0,0,1-1.411,8.66,7.346,7.346,0,0,1-8.2,2.468,2.5,2.5,0,0,0-3.2,1.014C182.181,144.922,182.072,145.039,181.921,145.215Zm7.064-9.425c0-1.409,0-1.409-1.385-1.409s-1.37,0-1.371,1.431c0,1.408.014,1.423,1.4,1.421C188.987,137.231,188.987,137.231,188.985,135.79Zm-6.938-2.981.258.246c2.335-.432,2.335-.432,2.366-2.925Zm8.272,8.437.251.259,2.6-2.687C190.743,138.914,190.743,138.914,190.319,141.246Zm-1.594-1.876H186.47l.984,2.664.357-.005ZM181.6,135.6l-.067.421,2.629.952v-2.29Zm8.93-5.475c0,2.438.336,2.783,2.632,2.681Zm.523,4.522v2.33l2.579-.964.016-.357Zm-6.4,6.858.247-.283c-.515-2.366-.515-2.366-2.864-2.4Zm3.15-11.842-.392-.009-.921,2.642h2.248Z" transform="translate(-158.54 -119.685)" fill="#fff"/>
    </g>
  </g>
</svg>
