<svg xmlns="http://www.w3.org/2000/svg" width="130" height="130" viewBox="0 0 130 130">
  <g id="Grupo_1180065" data-name="Grupo 1180065" transform="translate(-730.559 -1322.852)">
    <circle id="Elipse_13614" data-name="Elipse 13614" cx="65" cy="65" r="65" transform="translate(730.559 1322.852)" fill="#fff"/>
    <circle id="Elipse_13643" data-name="Elipse 13643" cx="42.182" cy="42.182" r="42.182" transform="translate(753.317 1345.67)" fill="#e5e5e5"/>
    <circle id="Elipse_13644" data-name="Elipse 13644" cx="34.782" cy="34.782" r="34.782" transform="translate(760.718 1353.07)" fill="#f2f2f2"/>
    <path id="Trazado_996368" data-name="Trazado 996368" d="M134.906,127.653l-27.5-20.5a.18.18,0,0,0-.251.251l20.5,27.5,9.161,1.912Z" transform="translate(660.594 1252.95)" fill="#fee07d"/>
    <path id="Trazado_996369" data-name="Trazado 996369" d="M274.4,274.149l-20.5-27.5-9.4-2.146,2.146,9.4,27.5,20.5A.18.18,0,0,0,274.4,274.149Z" transform="translate(548.848 1141.205)" fill="#fee07d"/>
    <path id="Trazado_996370" data-name="Trazado 996370" d="M369.407,222.639a4.012,4.012,0,0,0-5.673,0l-.241.241a.186.186,0,0,1-.264,0l-.241-.241a4.011,4.011,0,0,0-5.774.105,4.073,4.073,0,0,0,.169,5.635l5.833,5.834.011.011a.188.188,0,0,0,.265,0l5.913-5.913A4.012,4.012,0,0,0,369.407,222.639Z" transform="translate(458.029 1159.942)" fill="#fe7f86"/>
    <path id="Trazado_996374" data-name="Trazado 996374" d="M53.882,7.5a46.383,46.383,0,0,0-35.79,75.885c.129.148.246.3.376.45C28.443,93.6,39.685,97.768,53.882,97.768c25.617,0,44.547-18.309,44.547-43.924A48.05,48.05,0,0,0,84.147,18.8c-.046-.039-.213-.245-.259-.284A46.2,46.2,0,0,0,53.882,7.5Zm0,85.608A39.226,39.226,0,1,1,93.108,53.882,39.227,39.227,0,0,1,53.882,93.108Z" transform="translate(741.617 1333.971)" fill="#c3ddff"/>
    <path id="Trazado_996375" data-name="Trazado 996375" d="M148.056,101.7a46.383,46.383,0,0,1-81.8,29.953,46.428,46.428,0,0,0,49.394,6.708,39.347,39.347,0,0,0,22.683-22.685,46.434,46.434,0,0,0-6.7-49.385A46.283,46.283,0,0,1,148.056,101.7Z" transform="translate(693.824 1286.153)" fill="#a4ccff"/>
    <path id="Trazado_996376" data-name="Trazado 996376" d="M263.253,134.9l20.5-27.5a.18.18,0,0,0-.251-.251l-27.5,20.5V134.9Z" transform="translate(539.496 1252.95)" fill="#fed062"/>
    <path id="Trazado_996377" data-name="Trazado 996377" d="M127.658,256l-20.5,27.5a.18.18,0,0,0,.251.251l27.5-20.5V256Z" transform="translate(660.593 1131.853)" fill="#fed062"/>
    <g id="Grupo_1179618" data-name="Grupo 1179618" transform="translate(767.71 1360.063)">
      <path id="Trazado_996378" data-name="Trazado 996378" d="M388.163,388.415l-3.483-2.6q.582-.554,1.139-1.139l2.6,3.483A.18.18,0,0,1,388.163,388.415Z" transform="translate(-332.873 -332.872)" fill="#fed062"/>
      <path id="Trazado_996379" data-name="Trazado 996379" d="M107.4,107.148l3.483,2.6q-.582.554-1.137,1.137l-2.6-3.481A.179.179,0,0,1,107.4,107.148Z" transform="translate(-107.116 -107.111)" fill="#fed062"/>
      <path id="Trazado_996380" data-name="Trazado 996380" d="M388.415,107.4l-2.6,3.483q-.554-.582-1.139-1.139l3.483-2.6A.18.18,0,0,1,388.415,107.4Z" transform="translate(-332.873 -107.111)" fill="#ffc269"/>
      <path id="Trazado_996381" data-name="Trazado 996381" d="M110.887,385.827l-3.483,2.6a.179.179,0,0,1-.25-.252l2.6-3.481Q110.3,385.272,110.887,385.827Z" transform="translate(-107.116 -332.881)" fill="#ffc269"/>
    </g>
    <path id="Trazado_996383" data-name="Trazado 996383" d="M117.4,95.563a47.758,47.758,0,0,1-31.324-11.7,1.4,1.4,0,0,1,1.836-2.113A44.966,44.966,0,1,0,103.728,4.914a1.4,1.4,0,0,1-.85-2.668A47.787,47.787,0,1,1,117.4,95.563Z" transform="translate(678.102 1340.07)"/>
    <path id="Trazado_996384" data-name="Trazado 996384" d="M78.965,119.591a40.626,40.626,0,1,1,40.4-44.94,1.4,1.4,0,0,1-2.784.294,37.838,37.838,0,1,0,.143,6.3,1.4,1.4,0,0,1,2.795.166A40.654,40.654,0,0,1,78.965,119.591Z" transform="translate(716.535 1308.887)"/>
    <path id="Trazado_996385" data-name="Trazado 996385" d="M130.632,130.791h-7.249a1.4,1.4,0,0,1-1.122-.563l-4.5-6.03a1.4,1.4,0,0,1,2.245-1.673l4.076,5.467h5.147v-5.147L102.426,102.86a1.4,1.4,0,1,1,1.673-2.245l27.369,20.4a1.4,1.4,0,0,1,.563,1.122v7.249A1.4,1.4,0,0,1,130.632,130.791Z" transform="translate(664.867 1258.461)"/>
    <path id="Línea_3593" data-name="Línea 3593" d="M-6.1,22.739a1.393,1.393,0,0,1-.836-.278A1.4,1.4,0,0,1-7.223,20.5L13.235-6.937a1.4,1.4,0,0,1,1.959-.286,1.4,1.4,0,0,1,.286,1.959L-4.978,22.176A1.4,1.4,0,0,1-6.1,22.739Z" transform="translate(808.85 1366.513)"/>
    <path id="Línea_3594" data-name="Línea 3594" d="M-6.1,15.773a1.4,1.4,0,0,1-1.123-.563,1.4,1.4,0,0,1,.286-1.959L20.525-7.223a1.4,1.4,0,0,1,1.959.286A1.4,1.4,0,0,1,22.2-4.978L-5.264,15.5A1.394,1.394,0,0,1-6.1,15.773Z" transform="translate(801.6 1366.229)"/>
    <path id="Línea_3595" data-name="Línea 3595" d="M-6.1,22.637a1.393,1.393,0,0,1-.836-.278A1.4,1.4,0,0,1-7.223,20.4L13.158-6.937a1.4,1.4,0,0,1,1.959-.286A1.4,1.4,0,0,1,15.4-5.264L-4.978,22.074A1.4,1.4,0,0,1-6.1,22.637Z" transform="translate(773.97 1393.952)"/>
    <path id="Línea_3596" data-name="Línea 3596" d="M-6.1,15.708a1.4,1.4,0,0,1-1.123-.563,1.4,1.4,0,0,1,.286-1.959L20.437-7.223a1.4,1.4,0,0,1,1.959.286,1.4,1.4,0,0,1-.286,1.959L-5.264,15.43A1.394,1.394,0,0,1-6.1,15.708Z" transform="translate(774.226 1401.202)"/>
    <path id="Trazado_996386" data-name="Trazado 996386" d="M277.314,278.988a1.394,1.394,0,0,1-.836-.278l-27.416-20.439a1.4,1.4,0,0,1-.563-1.122V249.9a1.4,1.4,0,0,1,1.4-1.4h7.249a1.4,1.4,0,0,1,1.122.563l20.415,27.383a1.4,1.4,0,0,1-.172,1.865q-.035.058-.076.113A1.4,1.4,0,0,1,277.314,278.988ZM251.3,256.447l20.226,15.08L256.447,251.3H251.3Z" transform="translate(545.6 1137.952)"/>
    <g id="Grupo_1179621" data-name="Grupo 1179621" transform="translate(791.246 1352.773)">
      <g id="Grupo_1179620" data-name="Grupo 1179620">
        <path id="Trazado_996387" data-name="Trazado 996387" d="M237.276,91.943a5.306,5.306,0,0,1-3.428-.979,1.4,1.4,0,1,1,1.533-2.343,2.745,2.745,0,0,0,2.011.522A1.521,1.521,0,0,0,238.9,87.86a1.082,1.082,0,0,0-.809-1.295l-.685-.233a6.1,6.1,0,0,1-2.894-1.583,3.9,3.9,0,0,1-.838-3.646,3.713,3.713,0,0,1,2.515-2.522,4.3,4.3,0,0,1,4.427,1.154,1.4,1.4,0,0,1-2.089,1.864A1.5,1.5,0,0,0,237,81.261a.9.9,0,0,0-.633.62,1.1,1.1,0,0,0,.263,1.033,4.4,4.4,0,0,0,1.667.763l.73.249a3.885,3.885,0,0,1,2.637,4.4,4.337,4.337,0,0,1-4.252,3.618Z" transform="translate(-233.214 -76.456)"/>
        <path id="Línea_3597" data-name="Línea 3597" d="M-6.1-2.953a1.4,1.4,0,0,1-1.4-1.4V-6.1A1.4,1.4,0,0,1-6.1-7.5,1.4,1.4,0,0,1-4.7-6.1v1.748A1.4,1.4,0,0,1-6.1-2.953Z" transform="translate(10.353 20.368)"/>
        <path id="Línea_3598" data-name="Línea 3598" d="M-6.1-2.953a1.4,1.4,0,0,1-1.4-1.4V-6.1A1.4,1.4,0,0,1-6.1-7.5,1.4,1.4,0,0,1-4.7-6.1v1.748A1.4,1.4,0,0,1-6.1-2.953Z" transform="translate(10.353 7.5)"/>
      </g>
    </g>
    <g id="Grupo_1179622" data-name="Grupo 1179622" transform="translate(813.289 1380.006)">
      <path id="Trazado_996388" data-name="Trazado 996388" d="M359.931,229.656a1.4,1.4,0,0,1-.99-.41L352.9,223.2a5.411,5.411,0,0,1,7.035-8.184,5.411,5.411,0,0,1,7.035,8.184l-6.045,6.045A1.4,1.4,0,0,1,359.931,229.656Zm-3.209-12.892a2.611,2.611,0,0,0-1.846,4.457l5.055,5.055,5.055-5.055a2.611,2.611,0,1,0-3.693-3.693l-.372.372a1.4,1.4,0,0,1-1.98,0l-.373-.373A2.594,2.594,0,0,0,356.722,216.764Z" transform="translate(-351.314 -213.964)"/>
    </g>
    <path id="Línea_3606" data-name="Línea 3606" d="M-6.1-3.3A1.4,1.4,0,0,1-7.313-4,1.4,1.4,0,0,1-6.8-5.917l2.419-1.4A1.4,1.4,0,0,1-2.47-6.8a1.4,1.4,0,0,1-.512,1.912L-5.4-3.492A1.393,1.393,0,0,1-6.1-3.3Z" transform="translate(832.942 1374.461)"/>
    <path id="Línea_3607" data-name="Línea 3607" d="M-6.1-2.164a1.393,1.393,0,0,1-.7-.188,1.4,1.4,0,0,1-.512-1.912L-5.849-6.8a1.4,1.4,0,0,1,1.912-.512A1.4,1.4,0,0,1-3.424-5.4L-4.889-2.864A1.4,1.4,0,0,1-6.1-2.164Z" transform="translate(819.696 1360.074)"/>
  </g>
</svg>
