<svg xmlns="http://www.w3.org/2000/svg" width="85.791" height="88" viewBox="0 0 85.791 88">
  <g id="Grupo_1180065" data-name="Grupo 1180065" transform="translate(-270 -1997.792)">
    <g id="Grupo_1179543" data-name="Grupo 1179543" transform="translate(270 1997.792)">
      <ellipse id="Elipse_13615" data-name="Elipse 13615" cx="42.896" cy="44" rx="42.896" ry="44" fill="#8e3b0f"/>
    </g>
    <g id="Grupo_1179673" data-name="Grupo 1179673" transform="translate(284.03 2011.869)">
      <path id="Trazado_996600" data-name="Trazado 996600" d="M141.173,154.249c-.262.786-.877.992-1.683.953-1.016-.048-2.036-.012-3.168-.012v1.066q0,6.006,0,12.012c0,1.357-.236,1.6-1.536,1.6q-11,0-22.009,0c-1.3,0-1.539-.245-1.541-1.6q0-3.706,0-7.412a.991.991,0,0,0-.449-.983,1.385,1.385,0,0,1-.469-1c-.033-2.356-.084-4.717.018-7.069a6.745,6.745,0,0,1,6.614-6.534c1.908-.034,3.817-.006,5.815-.006.022-1.081.306-2.053-.783-2.9a5.9,5.9,0,0,1-2-3.9c-.048-.3-.1-.606-.154-.91a11.975,11.975,0,0,1-1.653-.226,2.905,2.905,0,0,1-1.579-4.484,2.37,2.37,0,0,0,.44-1.484c-.015-3.038-.009-6.077-.006-9.115,0-1.244.258-1.514,1.444-1.516,1.8,0,3.6.059,5.4-.017a5.2,5.2,0,0,1,5.032,2.394,5.324,5.324,0,0,1,3.975-.191,4.889,4.889,0,0,1,3.438,4.707c.03,1.362-.009,2.726.021,4.089a1.776,1.776,0,0,0,.278.93,2.964,2.964,0,0,1,.313,3.2,2.823,2.823,0,0,1-2.7,1.636c-.244,0-.488.022-.667.03a16.053,16.053,0,0,1-.721,2.647,7.2,7.2,0,0,1-1.559,2.267,2.062,2.062,0,0,0-.749,1.907c.029.275,0,.555,0,.936h.955c2.741,0,5.481.006,8.222,0a1.286,1.286,0,0,1,1.366.737.662.662,0,0,0,.513.278c2.959.017,5.919.012,9.022.012v-1.873c0-1.221-.02-2.443.009-3.663.012-.492-.164-.659-.623-.792a14.285,14.285,0,0,1-10.388-10.549,14.835,14.835,0,0,1,8.17-17.286A14.361,14.361,0,0,1,167.41,121.5c2.339,7.793-2.408,16.44-10.138,18.408-.675.172-.894.444-.843,1.138a24.584,24.584,0,0,1,.01,2.554c-.031,1.016-.084,1.933,1.026,2.565a2.5,2.5,0,0,1,.941,2.26c.009,1.193.014,2.385,0,3.578a3.006,3.006,0,0,1-1.509,2.753.822.822,0,0,0-.457.88c.022.482.013.965,0,1.448a2.962,2.962,0,0,1-2.791,3.014,3,3,0,0,1-3.025-2.885c-.053-.961-.01-1.928-.01-2.962Zm-2.119-1.136V147.4h-6.579c0,1.5.01,2.947,0,4.388-.012,1.228-.609,1.648-1.717,1.211-1.16-.458-2.3-.973-3.474-1.389a1.974,1.974,0,0,0-1.232-.005c-1.2.425-2.363.957-3.553,1.417-1.028.4-1.618-.023-1.648-1.135-.008-.312,0-.624,0-.936v-3.607c-1.409,0-2.705-.027-4,.006a4.423,4.423,0,0,0-4.365,3.707c-.294,2.28-.217,4.61-.3,6.937h4.848c0-.958-.009-1.861,0-2.764a.975.975,0,0,1,.937-1.086c.565-.053,1,.391,1.057,1.064.023.253.009.51.009.766q0,5.448,0,10.9c0,.325.033.65.049.965h15.145V155.188c-.29,0-.511.013-.731,0a1.018,1.018,0,0,1-1.093-1.03c-.028-.582.41-.989,1.083-1.037.248-.018.5,0,.747-.005Zm2.071-27.475a12.446,12.446,0,1,0,12.488-12.7A12.622,12.622,0,0,0,141.125,125.638Zm-14.447,5c-1.161,0-2.322-.005-3.483,0-1.032.006-1.3.262-1.3,1.287-.008,1.815-.039,3.63.017,5.443a5.866,5.866,0,0,0,.416,2.057,4.653,4.653,0,0,0,4.974,2.851,4.816,4.816,0,0,0,4.13-4.71c.08-1.925.035-3.855.016-5.783-.008-.8-.35-1.131-1.122-1.142C129.111,130.622,127.894,130.635,126.678,130.633Zm7.623.815c0-1.16,0-2.234,0-3.308,0-2.351-1.139-3.472-3.442-3.447a1.176,1.176,0,0,0-1.333,1.078c-.126.7-.615,1.028-1.174.868-.527-.15-.7-.553-.768-1.081a2.844,2.844,0,0,0-3.127-2.793c-1.382-.01-2.764-.006-4.147,0-.4,0-.8.034-1.207.052v8.6c.534.179.741.013.88-.485a2.9,2.9,0,0,1,3.11-2.361c2.239-.006,4.478,0,6.718,0s3.067.64,3.683,2.879Zm16.246,20.646v-3.813h-1.7c-2.3,0-4.593-.011-6.889.016-.274,0-.776.2-.784.333-.062,1.145-.036,2.3-.036,3.464Zm-37.292,15.748h3.718v-7.679h-3.681c-.015.191-.035.327-.035.462C113.255,163,113.255,165.379,113.255,167.843Zm43.138-17.574c0-.623.02-1.248-.005-1.87-.031-.763-.366-1.066-1.1-1.056a2.891,2.891,0,0,0-.01,5.762c.721.019,1.077-.3,1.11-1.051C156.413,151.46,156.392,150.864,156.393,150.269Zm-29.74-1.71c.858-1.432,2.419-2.4,1.777-4.311h-3.6C124.217,146.165,125.823,147.1,126.653,148.558Zm27.743-3.227v-4.865h-1.723v5.654Zm-1.766,8.984c0,.956-.037,1.858.011,2.755a.893.893,0,0,0,1.408.793,3.885,3.885,0,0,0,.295-2.8.448.448,0,0,0-.148-.073Zm-22.19-7.156a11.4,11.4,0,0,0-2.2,2.613l2.2.88Zm-7.524,3.492,2.177-.907c-.788-.835-1.131-1.893-2.177-2.5Zm10.52-15.239c.627-.046,1.292.262,1.663-.455a1.131,1.131,0,0,0-.009-.924c-.382-.656-1.024-.484-1.654-.411Zm-13.606-1.821c-.65-.022-1.3-.2-1.612.467-.126.271-.1.876.072.984a6.326,6.326,0,0,0,1.54.511Z" transform="translate(-110.277 -110.897)" fill="#fff"/>
      <path id="Trazado_996601" data-name="Trazado 996601" d="M201.9,360.392a5.2,5.2,0,0,1,.747-1.176.987.987,0,0,1,.9.02,1.88,1.88,0,0,1,.042,2.672.971.971,0,0,1-1.484-.652,4.454,4.454,0,0,1-.045-.759Z" transform="translate(-186.679 -316.823)" fill="#fff"/>
      <path id="Trazado_996602" data-name="Trazado 996602" d="M202.879,389.329c-.047-.674.09-1.313.841-1.4.321-.035.939.281.978.514a4.99,4.99,0,0,1-.1,2.012c-.051.2-.727.4-1.051.322C202.847,390.609,202.852,389.942,202.879,389.329Z" transform="translate(-187.489 -340.726)" fill="#fff"/>
      <path id="Trazado_996603" data-name="Trazado 996603" d="M205.789,417.863a4.742,4.742,0,0,1-.758,1.314c-.384.324-1.077.259-1.2-.243a4.472,4.472,0,0,1,.009-2.176c.131-.489.825-.56,1.208-.221A4.9,4.9,0,0,1,205.789,417.863Z" transform="translate(-188.178 -364.284)" fill="#fff"/>
      <path id="Trazado_996604" data-name="Trazado 996604" d="M328.087,144.723a10.59,10.59,0,1,1-21.175-.163,10.591,10.591,0,1,1,21.175.163Zm-13.689-.66a9.675,9.675,0,0,0,1.28.753c.485.194,1.017.258,1.522.4,2.385.688,2.258.248,2.245,2.875a1.641,1.641,0,0,0,0,.255,2.755,2.755,0,0,1-1.18,2.864,1.92,1.92,0,0,0-.628,2.168,7.741,7.741,0,0,0,5.842-2.494,11.762,11.762,0,0,1-1.065-2.985,12.149,12.149,0,0,1,.615-3.2c-.371,0-.666,0-.962,0-2.549-.021-2.093.3-3.338-2.155a1.354,1.354,0,0,1,.3-1.878c.17-.144.3-.337.478-.472a.953.953,0,0,0,.24-1.5,1.327,1.327,0,0,1,.288-2,2.493,2.493,0,0,0,.29-.446l-2.981-.466c.084,1.335.165,2.511.23,3.687a1.214,1.214,0,0,1-.937,1.325c-.495.162-.984.338-1.478.509C315.782,143.04,315.782,143.04,314.4,144.063Zm1.151,9.046a5.384,5.384,0,0,0,0-.714,2.276,2.276,0,0,1,.915-2.228c.173-.139.3-.346.479-.47a1.653,1.653,0,0,0,.509-1.983c-.09-.308-.776-.575-1.211-.61-1.858-.15-3.029-1.368-4.159-2.667a1.04,1.04,0,0,1,.322-1.751c.277-.166.562-.318.87-.491l-.317-.679c-.467-1-.274-1.5.759-1.888.466-.176.957-.293,1.408-.5.181-.083.412-.342.405-.512-.033-.8-.14-1.606-.223-2.434a8.8,8.8,0,0,0-6.227,6.734c-.146.767.006,1.1.761,1.33a6.888,6.888,0,0,1,4.816,6.72c0,.426.028.854-.006,1.277C314.6,152.862,314.844,153.147,315.549,153.109Zm9.388-4.192c2.613-4.112.555-9.837-2.733-11.51-.581.55-.581.55-.258,1.242.608,1.3.584,1.287-.38,2.35-.316.348-1.036.544-.728,1.253.3.68.925.3,1.4.359.644.075,1.306-.1,1.873.446,1.255,1.2,1.31,1.34.722,3.007a4.919,4.919,0,0,1-.2.557A2.22,2.22,0,0,0,324.938,148.918ZM312.6,151.843c.45-2.607-1.505-5.657-3.534-5.513A8.85,8.85,0,0,0,312.6,151.843Z" transform="translate(-274.248 -129.882)" fill="#fff"/>
      <path id="Trazado_996605" data-name="Trazado 996605" d="M194.314,269.363a3.6,3.6,0,0,1-2.581-1.054.954.954,0,0,1-.131-1.369.874.874,0,0,1,1.323-.207,1.928,1.928,0,0,0,2.7,0,.868.868,0,0,1,1.323.2.98.98,0,0,1-.126,1.379A3.543,3.543,0,0,1,194.314,269.363Z" transform="translate(-177.9 -239.998)" fill="#fff"/>
      <path id="Trazado_996606" data-name="Trazado 996606" d="M193.3,239.087a4.4,4.4,0,0,1-.641,1.285.836.836,0,0,1-1.248-.161,2.327,2.327,0,0,1,.008-2.306c.37-.381.86-.553,1.239-.142A5.189,5.189,0,0,1,193.3,239.087Z" transform="translate(-177.681 -215.949)" fill="#fff"/>
      <path id="Trazado_996607" data-name="Trazado 996607" d="M216.353,239.22a4.2,4.2,0,0,1-.006.68.946.946,0,0,1-1.532.616,2.209,2.209,0,0,1-.006-2.563.931.931,0,0,1,1.535.587,3.892,3.892,0,0,1,.006.679Z" transform="translate(-197.105 -216.116)" fill="#fff"/>
    </g>
  </g>
</svg>
