<svg xmlns="http://www.w3.org/2000/svg" width="130" height="130" viewBox="0 0 130 130">
  <g id="Grupo_1180068" data-name="Grupo 1180068" transform="translate(-735.059 -1727.484)">
    <circle id="Elipse_13614" data-name="Elipse 13614" cx="65" cy="65" r="65" transform="translate(735.059 1727.484)" fill="#fff"/>
    <path id="Trazado_996434" data-name="Trazado 996434" d="M33.651,402.158l-4.54-1.135a3.035,3.035,0,0,1-.692-.267l-5.746,6.359-5.746-6.359a3.035,3.035,0,0,1-.692.267l-4.54,1.135a5.539,5.539,0,0,0-4.2,5.374v12.03a.2.2,0,0,0,.2.2H37.649a.2.2,0,0,0,.2-.2v-12.03A5.54,5.54,0,0,0,33.651,402.158Z" transform="translate(747.009 1408.836)" fill="#fd4755"/>
    <path id="Trazado_996435" data-name="Trazado 996435" d="M70.459,381.367a3.036,3.036,0,0,1-1.607-2.678v-1.67c-1.18.81-7.1.81-8.277,0v1.67a3.036,3.036,0,0,1-1.607,2.678l5.746,6.359Z" transform="translate(704.969 1428.225)" fill="#d78878"/>
    <rect id="Rectángulo_455294" data-name="Rectángulo 455294" width="5.058" height="5.058" transform="translate(767.153 1813.422)" fill="#0681af"/>
    <rect id="Rectángulo_455295" data-name="Rectángulo 455295" width="5.058" height="10.116" transform="translate(767.153 1818.48)" fill="#017297"/>
    <path id="Trazado_996436" data-name="Trazado 996436" d="M50.953,397.97l2.137,6.411,5.058-2.529-6.556-4.37A.425.425,0,0,0,50.953,397.97Z" transform="translate(711.534 1411.57)" fill="#fe646f"/>
    <path id="Trazado_996437" data-name="Trazado 996437" d="M97.528,397.97l-2.137,6.411-5.058-2.529,6.556-4.37A.425.425,0,0,1,97.528,397.97Z" transform="translate(679.35 1411.57)" fill="#fe646f"/>
    <path id="Trazado_996438" data-name="Trazado 996438" d="M199.317,146.127l-4.54-1.135a3.035,3.035,0,0,1-.692-.267l-5.746,6.36-5.746-6.359a3.036,3.036,0,0,1-.692.267l-4.54,1.135a5.54,5.54,0,0,0-4.2,5.374v12.021a.207.207,0,0,0,.207.207h29.933a.207.207,0,0,0,.207-.207V151.5A5.54,5.54,0,0,0,199.317,146.127Z" transform="translate(611.689 1617.967)" fill="#ffc344"/>
    <path id="Trazado_996439" data-name="Trazado 996439" d="M236.125,125.337a3.035,3.035,0,0,1-1.607-2.678v-1.67c-1.18.81-7.1.81-8.277,0v1.67a3.036,3.036,0,0,1-1.607,2.678l5.746,6.359Z" transform="translate(569.649 1637.354)" fill="#ffa78f"/>
    <rect id="Rectángulo_455296" data-name="Rectángulo 455296" width="5.058" height="5.058" transform="translate(797.5 1766.522)" fill="#01c0fa"/>
    <rect id="Rectángulo_455297" data-name="Rectángulo 455297" width="5.058" height="10.116" transform="translate(797.5 1771.58)" fill="#08a9f1"/>
    <path id="Trazado_996440" data-name="Trazado 996440" d="M216.62,141.94l2.137,6.411,5.058-2.529-6.556-4.37A.425.425,0,0,0,216.62,141.94Z" transform="translate(576.215 1620.7)" fill="#ffd15b"/>
    <path id="Trazado_996441" data-name="Trazado 996441" d="M263.195,141.94l-2.137,6.411L256,145.822l6.556-4.37A.425.425,0,0,1,263.195,141.94Z" transform="translate(544.029 1620.7)" fill="#ffd15b"/>
    <path id="Trazado_996442" data-name="Trazado 996442" d="M364.984,402.158l-4.54-1.135a3.035,3.035,0,0,1-.692-.267l-5.746,6.359-5.746-6.359a3.035,3.035,0,0,1-.692.267l-4.54,1.135a5.54,5.54,0,0,0-4.2,5.374v12.03a.2.2,0,0,0,.2.2H369.18V407.532A5.539,5.539,0,0,0,364.984,402.158Z" transform="translate(476.37 1408.836)" fill="#01c0fa"/>
    <path id="Trazado_996443" data-name="Trazado 996443" d="M401.792,381.367a3.035,3.035,0,0,1-1.607-2.678v-1.67c-1.18.81-7.1.81-8.277,0v1.67a3.036,3.036,0,0,1-1.607,2.678l5.746,6.359Z" transform="translate(434.33 1428.225)" fill="#f6a96c"/>
    <rect id="Rectángulo_455298" data-name="Rectángulo 455298" width="5.058" height="5.058" transform="translate(827.848 1813.422)" fill="#fd6930"/>
    <rect id="Rectángulo_455299" data-name="Rectángulo 455299" width="5.058" height="10.116" transform="translate(827.848 1818.48)" fill="#fd5426"/>
    <path id="Trazado_996444" data-name="Trazado 996444" d="M382.287,397.97l2.137,6.411,5.058-2.529-6.556-4.37A.425.425,0,0,0,382.287,397.97Z" transform="translate(440.895 1411.57)" fill="#01d0fb"/>
    <path id="Trazado_996445" data-name="Trazado 996445" d="M428.862,397.97l-2.137,6.411-5.058-2.529,6.556-4.37A.425.425,0,0,1,428.862,397.97Z" transform="translate(408.709 1411.57)" fill="#01d0fb"/>
    <path id="Línea_3592" data-name="Línea 3592" d="M-6.126,2.251A1.374,1.374,0,0,1-7.5.877v-7A1.374,1.374,0,0,1-6.126-7.5,1.374,1.374,0,0,1-4.752-6.126v7A1.374,1.374,0,0,1-6.126,2.251Z" transform="translate(796.04 1780.818)"/>
    <path id="Línea_3593" data-name="Línea 3593" d="M-6.126,2.251A1.374,1.374,0,0,1-7.5.877v-7A1.374,1.374,0,0,1-6.126-7.5,1.374,1.374,0,0,1-4.752-6.126v7A1.374,1.374,0,0,1-6.126,2.251Z" transform="translate(816.271 1780.818)"/>
    <path id="Trazado_996446" data-name="Trazado 996446" d="M241.126,171.58h-5.058a1.374,1.374,0,0,1-1.374-1.374v-3.794a1.374,1.374,0,0,1,2.748,0v2.42h2.31v-2.42a1.374,1.374,0,0,1,2.748,0v3.794A1.374,1.374,0,0,1,241.126,171.58Z" transform="translate(561.433 1601.374)"/>
    <path id="Trazado_996447" data-name="Trazado 996447" d="M210.893,133.878h0a1.793,1.793,0,0,1,1,.3l6.556,4.37a1.374,1.374,0,0,1-.148,2.372l-5.058,2.529a1.374,1.374,0,0,1-1.918-.794l-2.137-6.411a1.777,1.777,0,0,1,.244-1.618A1.81,1.81,0,0,1,210.893,133.878Zm4.059,5.647L212.666,138l.762,2.285Z" transform="translate(582.346 1626.826)"/>
    <path id="Trazado_996448" data-name="Trazado 996448" d="M256.664,133.878a1.81,1.81,0,0,1,1.463.752,1.776,1.776,0,0,1,.244,1.618l-2.137,6.411a1.374,1.374,0,0,1-1.918.794l-5.058-2.529a1.374,1.374,0,0,1-.148-2.372l6.556-4.37A1.793,1.793,0,0,1,256.664,133.878Zm-2.535,6.409.762-2.285-2.285,1.524Z" transform="translate(550.155 1626.826)"/>
    <path id="Trazado_996449" data-name="Trazado 996449" d="M197.181,160.837H167.248a1.583,1.583,0,0,1-1.581-1.581v-2.675a1.374,1.374,0,1,1,2.748,0v1.508h27.6V147.235a4.16,4.16,0,0,0-3.155-4.041l-3.939-.985a1.374,1.374,0,1,1,.666-2.666l3.939.985a6.9,6.9,0,0,1,5.237,6.707v12.021A1.583,1.583,0,0,1,197.181,160.837Z" transform="translate(617.814 1622.232)"/>
    <path id="Trazado_996450" data-name="Trazado 996450" d="M167.04,151.544a1.374,1.374,0,0,1-1.374-1.374v-2.934a6.9,6.9,0,0,1,5.237-6.707l3.939-.985a1.374,1.374,0,1,1,.666,2.666l-3.939.985a4.16,4.16,0,0,0-3.156,4.041v2.934A1.374,1.374,0,0,1,167.04,151.544Z" transform="translate(617.815 1622.232)"/>
    <path id="Trazado_996451" data-name="Trazado 996451" d="M153.235,288.974a1.374,1.374,0,0,1-.971-2.345l7.925-7.925a1.374,1.374,0,0,1,.634-2.593h2.529a1.374,1.374,0,0,1,.971,2.345l-10.116,10.116A1.37,1.37,0,0,1,153.235,288.974Z" transform="translate(629.092 1510.648)"/>
    <path id="Trazado_996452" data-name="Trazado 996452" d="M175.306,308.516h-2.529a1.374,1.374,0,0,1-.971-2.345l10.116-10.116A1.374,1.374,0,0,1,183.864,298l-7.925,7.925a1.374,1.374,0,0,1-.633,2.593Z" transform="translate(613.13 1494.686)"/>
    <path id="Trazado_996453" data-name="Trazado 996453" d="M281.865,308.516a1.37,1.37,0,0,1-.971-.4l-7.925-7.925a1.374,1.374,0,0,1-2.593-.633v-2.529a1.374,1.374,0,0,1,2.345-.971l10.116,10.116a1.374,1.374,0,0,1-.971,2.345Z" transform="translate(532.287 1494.686)"/>
    <path id="Trazado_996454" data-name="Trazado 996454" d="M301.407,288.974a1.374,1.374,0,0,1-.972-.4l-10.116-10.116a1.374,1.374,0,0,1,1.943-1.943l7.925,7.925a1.374,1.374,0,0,1,2.593.634V287.6a1.374,1.374,0,0,1-1.374,1.374Z" transform="translate(516.325 1510.648)"/>
    <path id="Trazado_996455" data-name="Trazado 996455" d="M223.63,433.249H208.457a1.374,1.374,0,0,1-.971-2.345l2.529-2.529a1.374,1.374,0,1,1,1.943,1.943l-.184.184H223.63a1.374,1.374,0,0,1,0,2.748Z" transform="translate(583.985 1386.605)"/>
    <path id="Trazado_996456" data-name="Trazado 996456" d="M221.1,474.666a1.374,1.374,0,0,1-.971-2.345l.183-.183H208.457a1.374,1.374,0,1,1,0-2.748h15.174a1.374,1.374,0,0,1,.971,2.345l-2.529,2.529A1.37,1.37,0,0,1,221.1,474.666Z" transform="translate(583.985 1352.775)"/>
    <path id="Trazado_996457" data-name="Trazado 996457" d="M218.508,120.585A1.374,1.374,0,0,1,217.86,118a1.659,1.659,0,0,0,.88-1.466v-1.67a1.374,1.374,0,0,1,2.748,0v1.67a4.4,4.4,0,0,1-2.335,3.89A1.368,1.368,0,0,1,218.508,120.585Z" transform="translate(575.777 1643.48)"/>
    <path id="Trazado_996458" data-name="Trazado 996458" d="M274.071,120.585a1.368,1.368,0,0,1-.645-.162,4.4,4.4,0,0,1-2.335-3.89v-1.67a1.374,1.374,0,0,1,2.748,0v1.67a1.658,1.658,0,0,0,.88,1.466,1.374,1.374,0,0,1-.647,2.586Z" transform="translate(531.703 1643.48)"/>
    <path id="Línea_3594" data-name="Línea 3594" d="M-6.126,5.363A1.374,1.374,0,0,1-7.5,3.99V-6.126A1.374,1.374,0,0,1-6.126-7.5,1.374,1.374,0,0,1-4.752-6.126V3.99A1.374,1.374,0,0,1-6.126,5.363Z" transform="translate(808.685 1777.706)"/>
    <path id="Línea_3595" data-name="Línea 3595" d="M-6.126,5.363A1.374,1.374,0,0,1-7.5,3.99V-6.126A1.374,1.374,0,0,1-6.126-7.5,1.374,1.374,0,0,1-4.752-6.126V3.99A1.374,1.374,0,0,1-6.126,5.363Z" transform="translate(803.626 1777.706)"/>
    <path id="Línea_3596" data-name="Línea 3596" d="M-6.126,2.251A1.374,1.374,0,0,1-7.5.877v-7A1.374,1.374,0,0,1-6.126-7.5,1.374,1.374,0,0,1-4.752-6.126v7A1.374,1.374,0,0,1-6.126,2.251Z" transform="translate(826.387 1827.719)"/>
    <path id="Línea_3597" data-name="Línea 3597" d="M-6.126,2.251A1.374,1.374,0,0,1-7.5.877v-7A1.374,1.374,0,0,1-6.126-7.5,1.374,1.374,0,0,1-4.752-6.126v7A1.374,1.374,0,0,1-6.126,2.251Z" transform="translate(846.618 1827.719)"/>
    <path id="Trazado_996459" data-name="Trazado 996459" d="M406.793,427.61h-5.058a1.374,1.374,0,0,1-1.374-1.374v-3.793a1.374,1.374,0,1,1,2.748,0v2.42h2.31v-2.42a1.374,1.374,0,1,1,2.748,0v3.793A1.374,1.374,0,0,1,406.793,427.61Z" transform="translate(426.112 1392.244)"/>
    <path id="Trazado_996460" data-name="Trazado 996460" d="M376.56,389.909h0a1.793,1.793,0,0,1,1,.3l6.556,4.371a1.374,1.374,0,0,1-.148,2.372l-5.058,2.529a1.374,1.374,0,0,1-1.918-.794l-2.137-6.411a1.776,1.776,0,0,1,.244-1.618A1.81,1.81,0,0,1,376.56,389.909Zm4.059,5.647-2.285-1.524.762,2.285Z" transform="translate(447.025 1417.696)"/>
    <path id="Trazado_996461" data-name="Trazado 996461" d="M422.331,389.909a1.81,1.81,0,0,1,1.463.752,1.776,1.776,0,0,1,.244,1.618L421.9,398.69a1.374,1.374,0,0,1-1.918.794l-5.058-2.529a1.374,1.374,0,0,1-.148-2.372l6.556-4.37A1.794,1.794,0,0,1,422.331,389.909Zm-2.535,6.409.762-2.285-2.285,1.524Z" transform="translate(414.836 1417.696)"/>
    <path id="Trazado_996462" data-name="Trazado 996462" d="M362.847,416.867H332.914a1.583,1.583,0,0,1-1.581-1.581V403.265a6.9,6.9,0,0,1,5.237-6.707l3.939-.985a1.374,1.374,0,1,1,.666,2.666l-3.939.985a4.16,4.16,0,0,0-3.156,4.041v10.854h27.6V403.265a4.16,4.16,0,0,0-3.155-4.041l-3.939-.985a1.374,1.374,0,0,1,.666-2.666l3.939.985a6.9,6.9,0,0,1,5.237,6.707v12.021A1.583,1.583,0,0,1,362.847,416.867Z" transform="translate(482.496 1413.103)"/>
    <path id="Trazado_996463" data-name="Trazado 996463" d="M384.175,376.616a1.374,1.374,0,0,1-.648-2.586,1.658,1.658,0,0,0,.88-1.466v-1.67a1.374,1.374,0,1,1,2.748,0v1.67a4.4,4.4,0,0,1-2.335,3.89A1.368,1.368,0,0,1,384.175,376.616Z" transform="translate(440.457 1434.35)"/>
    <path id="Trazado_996464" data-name="Trazado 996464" d="M439.738,376.615a1.368,1.368,0,0,1-.645-.162,4.4,4.4,0,0,1-2.335-3.891v-1.67a1.374,1.374,0,1,1,2.748,0v1.67a1.658,1.658,0,0,0,.88,1.466,1.374,1.374,0,0,1-.647,2.587Z" transform="translate(396.383 1434.351)"/>
    <path id="Línea_3598" data-name="Línea 3598" d="M-6.126-3.254A1.374,1.374,0,0,1-7.5-4.628v-1.5A1.374,1.374,0,0,1-6.126-7.5,1.374,1.374,0,0,1-4.752-6.126v1.5A1.374,1.374,0,0,1-6.126-3.254Z" transform="translate(839.031 1824.606)"/>
    <path id="Línea_3599" data-name="Línea 3599" d="M-6.126-2.546A1.374,1.374,0,0,1-7.5-3.92V-6.126A1.374,1.374,0,0,1-6.126-7.5,1.374,1.374,0,0,1-4.752-6.126V-3.92A1.374,1.374,0,0,1-6.126-2.546Z" transform="translate(839.031 1832.516)"/>
    <path id="Línea_3600" data-name="Línea 3600" d="M-6.126,5.363A1.374,1.374,0,0,1-7.5,3.99V-6.126A1.374,1.374,0,0,1-6.126-7.5,1.374,1.374,0,0,1-4.752-6.126V3.99A1.374,1.374,0,0,1-6.126,5.363Z" transform="translate(833.974 1824.606)"/>
    <path id="Línea_3602" data-name="Línea 3602" d="M-6.126,2.251A1.374,1.374,0,0,1-7.5.877v-7A1.374,1.374,0,0,1-6.126-7.5,1.374,1.374,0,0,1-4.752-6.126v7A1.374,1.374,0,0,1-6.126,2.251Z" transform="translate(785.924 1827.719)"/>
    <path id="Trazado_996465" data-name="Trazado 996465" d="M75.46,427.61H70.4a1.374,1.374,0,0,1-1.374-1.374v-3.793a1.374,1.374,0,1,1,2.748,0v2.42h2.31v-2.42a1.374,1.374,0,1,1,2.748,0v3.793A1.374,1.374,0,0,1,75.46,427.61Z" transform="translate(696.752 1392.244)"/>
    <path id="Trazado_996466" data-name="Trazado 996466" d="M45.226,389.909a1.806,1.806,0,0,1,1,.3l6.556,4.371a1.374,1.374,0,0,1-.148,2.372l-5.058,2.529a1.374,1.374,0,0,1-1.918-.794l-2.137-6.411a1.776,1.776,0,0,1,.244-1.618A1.81,1.81,0,0,1,45.226,389.909Zm4.059,5.647L47,394.032l.762,2.285Z" transform="translate(717.665 1417.696)"/>
    <path id="Trazado_996467" data-name="Trazado 996467" d="M91,389.909a1.81,1.81,0,0,1,1.463.752,1.776,1.776,0,0,1,.244,1.618l-2.137,6.411a1.374,1.374,0,0,1-1.918.794l-5.058-2.529a1.374,1.374,0,0,1-.148-2.372L90,390.213A1.794,1.794,0,0,1,91,389.909Zm-2.535,6.409.762-2.285-2.285,1.524Z" transform="translate(685.476 1417.696)"/>
    <path id="Trazado_996468" data-name="Trazado 996468" d="M130.765,406.954a1.374,1.374,0,0,1-1.374-1.374v-2.315a4.16,4.16,0,0,0-3.155-4.041l-3.939-.985a1.374,1.374,0,0,1,.666-2.666l3.939.985a6.9,6.9,0,0,1,5.237,6.707v2.315A1.374,1.374,0,0,1,130.765,406.954Z" transform="translate(654.092 1413.103)"/>
    <path id="Trazado_996469" data-name="Trazado 996469" d="M31.514,416.867H1.581A1.583,1.583,0,0,1,0,415.286V403.265a6.9,6.9,0,0,1,5.237-6.707l3.939-.985a1.374,1.374,0,1,1,.666,2.666l-3.939.985a4.16,4.16,0,0,0-3.155,4.041v10.854h27.6v-2.128a1.374,1.374,0,0,1,2.748,0v3.295A1.583,1.583,0,0,1,31.514,416.867Z" transform="translate(753.135 1413.103)"/>
    <path id="Trazado_996470" data-name="Trazado 996470" d="M52.841,376.616a1.374,1.374,0,0,1-.648-2.586,1.658,1.658,0,0,0,.88-1.466v-1.67a1.374,1.374,0,1,1,2.748,0v1.67a4.4,4.4,0,0,1-2.335,3.89A1.368,1.368,0,0,1,52.841,376.616Z" transform="translate(711.097 1434.35)"/>
    <path id="Trazado_996471" data-name="Trazado 996471" d="M108.4,376.615a1.368,1.368,0,0,1-.645-.162,4.4,4.4,0,0,1-2.335-3.891v-1.67a1.374,1.374,0,1,1,2.748,0v1.67a1.658,1.658,0,0,0,.88,1.466,1.374,1.374,0,0,1-.647,2.587Z" transform="translate(667.022 1434.351)"/>
    <path id="Línea_3603" data-name="Línea 3603" d="M-6.126,5.363A1.374,1.374,0,0,1-7.5,3.99V-6.126A1.374,1.374,0,0,1-6.126-7.5,1.374,1.374,0,0,1-4.752-6.126V3.99A1.374,1.374,0,0,1-6.126,5.363Z" transform="translate(778.337 1824.606)"/>
    <path id="Línea_3604" data-name="Línea 3604" d="M-6.126,5.363A1.374,1.374,0,0,1-7.5,3.99V-6.126A1.374,1.374,0,0,1-6.126-7.5,1.374,1.374,0,0,1-4.752-6.126V3.99A1.374,1.374,0,0,1-6.126,5.363Z" transform="translate(773.279 1824.606)"/>
    <path id="Trazado_996472" data-name="Trazado 996472" d="M395.659,275.089l.21-3.3a7.765,7.765,0,0,0-7.75-8.26h0a7.765,7.765,0,0,0-7.75,8.26c.071,1.11.14,2.2.207,3.249Z" transform="translate(442.454 1520.924)" fill="#017297"/>
    <path id="Trazado_996473" data-name="Trazado 996473" d="M392.386,301.185h-6.793a2.772,2.772,0,0,0-2.479,1.532l-1.539,3.079c.082,1.288.161,2.529.236,3.708a7.321,7.321,0,0,0,7.306,6.854h0a7.321,7.321,0,0,0,7.306-6.854c.073-1.144.151-2.372.233-3.658l-1.863-3.263A2.771,2.771,0,0,0,392.386,301.185Z" transform="translate(441.458 1490.167)" fill="#fed2a4"/>
    <path id="Trazado_996474" data-name="Trazado 996474" d="M404.285,301.185h-1.046l-.414,6.487a7.321,7.321,0,0,1-6.683,6.828,7.3,7.3,0,0,0,4.873,1.858h0a7.321,7.321,0,0,0,7.306-6.854c.073-1.144.151-2.372.233-3.658l-1.863-3.263A2.771,2.771,0,0,0,404.285,301.185Z" transform="translate(429.559 1490.167)" fill="#ffbd86"/>
    <path id="Trazado_996475" data-name="Trazado 996475" d="M381.992,256.03a9.139,9.139,0,0,1,9.121,9.721l-.444,6.957a8.694,8.694,0,0,1-17.353,0l-.444-6.956a9.139,9.139,0,0,1,9.121-9.721Zm0,22.07a5.959,5.959,0,0,0,5.935-5.568l.444-6.956a6.391,6.391,0,1,0-12.757,0l.444,6.956A5.958,5.958,0,0,0,381.992,278.1Z" transform="translate(448.582 1527.051)"/>
    <path id="Trazado_996476" data-name="Trazado 996476" d="M413.043,329.5h-.186a1.374,1.374,0,1,1,0-2.748h.005v-1.385a1.374,1.374,0,1,1,2.748,0v1.565A2.57,2.57,0,0,1,413.043,329.5Z" transform="translate(417.028 1471.539)"/>
    <path id="Trazado_996477" data-name="Trazado 996477" d="M390.529,301.095a1.373,1.373,0,0,1-1.194-.693l-1.863-3.263a1.4,1.4,0,0,0-1.214-.7h-6.793a1.39,1.39,0,0,0-1.25.772l-1.539,3.079a1.374,1.374,0,0,1-2.458-1.229l1.539-3.079a4.122,4.122,0,0,1,3.708-2.291h6.793a4.154,4.154,0,0,1,3.6,2.09l1.863,3.263a1.374,1.374,0,0,1-1.192,2.055Z" transform="translate(447.586 1496.293)"/>
    <path id="Trazado_996478" data-name="Trazado 996478" d="M63.5,274.138l.354-5.548a4.757,4.757,0,0,0-4.747-5.06H52.7a4.757,4.757,0,0,0-4.747,5.059l.354,5.548H63.5Z" transform="translate(713.977 1520.925)" fill="#017297"/>
    <path id="Trazado_996479" data-name="Trazado 996479" d="M64.744,304.7a13.654,13.654,0,0,1-3.549-2.558l-.962-.962H54.818l-.962.962a13.654,13.654,0,0,1-3.549,2.558l-.381.191.294,4.608a7.32,7.32,0,0,0,7.306,6.854h0a7.321,7.321,0,0,0,7.306-6.854l.294-4.608Z" transform="translate(712.354 1490.167)" fill="#f1b0a2"/>
    <path id="Trazado_996480" data-name="Trazado 996480" d="M76.9,304.7a13.654,13.654,0,0,1-3.549-2.558l-.962-.962h-.484c-.147,2.309-.288,4.51-.414,6.487a7.321,7.321,0,0,1-6.683,6.828,7.32,7.32,0,0,0,12.179-5c.091-1.433.191-2.984.294-4.609Z" transform="translate(700.197 1490.167)" fill="#eb9c8d"/>
    <path id="Trazado_996481" data-name="Trazado 996481" d="M81.709,329.5h-.186a1.374,1.374,0,1,1,0-2.748h.005v-1.385a1.374,1.374,0,1,1,2.748,0v1.565A2.57,2.57,0,0,1,81.709,329.5Z" transform="translate(687.668 1471.539)"/>
    <path id="Trazado_996482" data-name="Trazado 996482" d="M46.572,256.03h6.413a6.131,6.131,0,0,1,6.118,6.521l-.648,10.157a8.694,8.694,0,0,1-17.353,0l-.648-10.157a6.13,6.13,0,0,1,6.118-6.521ZM49.779,278.1a5.959,5.959,0,0,0,5.935-5.568l.648-10.157a3.383,3.383,0,0,0-3.376-3.6H46.572a3.383,3.383,0,0,0-3.376,3.6l.648,10.157A5.958,5.958,0,0,0,49.779,278.1Z" transform="translate(720.101 1527.051)"/>
    <path id="Trazado_996483" data-name="Trazado 996483" d="M59,300.143a1.368,1.368,0,0,1-.613-.145L58,299.808a15,15,0,0,1-3.906-2.815l-.56-.56H49.26l-.56.56a15,15,0,0,1-3.906,2.815l-.381.191a1.374,1.374,0,0,1-1.229-2.458l.381-.191a12.258,12.258,0,0,0,3.192-2.3l.962-.962a1.374,1.374,0,0,1,.971-.4h5.416a1.374,1.374,0,0,1,.971.4l.962.962a12.258,12.258,0,0,0,3.192,2.3l.381.191a1.374,1.374,0,0,1-.615,2.6Z" transform="translate(718.48 1496.293)"/>
    <path id="Trazado_996484" data-name="Trazado 996484" d="M229.048,16.923l.377-5.909a3.3,3.3,0,0,0-3.3-3.514h-4.755a7.765,7.765,0,0,0-7.749,8.26l.221,3.459Z" transform="translate(578.656 1730.055)" fill="#fd6930"/>
    <path id="Trazado_996485" data-name="Trazado 996485" d="M220.352,34.31a.37.37,0,0,0-.631.261,3.95,3.95,0,0,1-1.157,2.793L214.9,41.028l.223,3.5a7.321,7.321,0,0,0,7.306,6.854h0a7.321,7.321,0,0,0,7.306-6.854l.37-5.793a13.547,13.547,0,0,1-9.293-3.965Z" transform="translate(577.601 1708.245)" fill="#ffcebf"/>
    <path id="Trazado_996486" data-name="Trazado 996486" d="M236.078,57.069A7.321,7.321,0,0,1,229.4,63.9a7.3,7.3,0,0,0,4.873,1.858h0a7.319,7.319,0,0,0,7.305-6.853c.113-1.764.238-3.728.37-5.795a13.546,13.546,0,0,1-5.529-1.308C236.3,53.674,236.182,55.455,236.078,57.069Z" transform="translate(565.761 1693.869)" fill="#ffb09e"/>
    <path id="Trazado_996487" data-name="Trazado 996487" d="M246.295,73.466h-.186a1.374,1.374,0,0,1,0-2.748h.005V69.334a1.374,1.374,0,0,1,2.748,0V70.9A2.57,2.57,0,0,1,246.295,73.466Z" transform="translate(553.23 1680.67)"/>
    <path id="Trazado_996488" data-name="Trazado 996488" d="M215.245,0H220a4.677,4.677,0,0,1,4.667,4.975l-.747,11.7a8.694,8.694,0,0,1-17.353,0l-.444-6.956A9.139,9.139,0,0,1,215.245,0Zm0,22.07A5.959,5.959,0,0,0,221.18,16.5l.747-11.7A1.929,1.929,0,0,0,220,2.748h-4.756a6.391,6.391,0,0,0-6.378,6.8l.444,6.956A5.958,5.958,0,0,0,215.245,22.07Z" transform="translate(584.784 1736.181)"/>
    <path id="Trazado_996489" data-name="Trazado 996489" d="M208.774,36.276a1.374,1.374,0,0,1-.971-2.345l3.664-3.664a2.559,2.559,0,0,0,.754-1.821,1.744,1.744,0,0,1,2.977-1.233l.459.458a12.117,12.117,0,0,0,8.351,3.563,1.374,1.374,0,0,1-.058,2.747,14.842,14.842,0,0,1-9.359-3.556,5.313,5.313,0,0,1-1.181,1.785l-3.664,3.664A1.37,1.37,0,0,1,208.774,36.276Z" transform="translate(583.727 1714.371)"/>
  </g>
</svg>
