<svg xmlns="http://www.w3.org/2000/svg" width="130" height="130" viewBox="0 0 130 130">
  <g id="Grupo_1180069" data-name="Grupo 1180069" transform="translate(-1150.059 -1727.484)">
    <circle id="Elipse_13614" data-name="Elipse 13614" cx="65" cy="65" r="65" transform="translate(1150.059 1727.484)" fill="#fff"/>
    <path id="Trazado_996487" data-name="Trazado 996487" d="M40,296h8.686v36.19H40Z" transform="translate(1132.955 1499.408)" fill="#e44b4d"/>
    <path id="Trazado_996488" data-name="Trazado 996488" d="M144.686,262.134H136V210.467h8.686Z" transform="translate(1054.326 1569.464)" fill="#eb6d3b"/>
    <path id="Trazado_996489" data-name="Trazado 996489" d="M232,152h8.686v62.246H232Z" transform="translate(975.697 1617.352)" fill="#efa702"/>
    <path id="Trazado_996490" data-name="Trazado 996490" d="M336.686,161.827H328V88h8.686Z" transform="translate(897.068 1669.771)" fill="#4ba477"/>
    <path id="Trazado_996491" data-name="Trazado 996491" d="M424,24h8.686v85.408H424Z" transform="translate(818.439 1722.189)" fill="#396795"/>
    <path id="Trazado_996492" data-name="Trazado 996492" d="M179.634,269.714A21.691,21.691,0,1,1,163.41,248.7,21.691,21.691,0,0,1,179.634,269.714Z" transform="translate(1054.12 1538.723)" fill="#8acce7"/>
    <path id="Trazado_996493" data-name="Trazado 996493" d="M284.266,272.884a21.646,21.646,0,0,1-7.1,16.059l-3.031-3.031,1.448-4.343-5.79-4.343,2.9-2.9v-5.79h-4.343L264,261.3l4.042-9.433A21.724,21.724,0,0,1,284.266,272.884Z" transform="translate(949.488 1535.553)" fill="#a2c32a"/>
    <path id="Trazado_996494" data-name="Trazado 996494" d="M147.577,278.75l-1.448,4.343,2.9,1.448-2.9,5.79,7.238,2.9-1.448,2.9h-5.79l-1.956,6.843a21.714,21.714,0,0,1,1.567-35.1l7.627,6.538v5.79Z" transform="translate(1054.33 1522.447)" fill="#a2c32a"/>
    <path id="Trazado_996495" data-name="Trazado 996495" d="M164.266,463.238a7.063,7.063,0,0,0-5.678-6.926l-1.56-.312h-5.79l-1.56.312A7.063,7.063,0,0,0,144,463.238Z" transform="translate(1047.774 1368.359)" fill="#395166"/>
    <path id="Trazado_996496" data-name="Trazado 996496" d="M146.9,408a2.9,2.9,0,0,0,0,5.79h14.476a2.9,2.9,0,0,0,0-5.79Z" transform="translate(1047.774 1407.674)" fill="#f2c194"/>
    <path id="Trazado_996497" data-name="Trazado 996497" d="M168,388v6.514a5.791,5.791,0,0,0,2.9,5.016v.774a2.9,2.9,0,0,0,5.79,0v-.774a5.793,5.793,0,0,0,2.9-5.016V388Z" transform="translate(1028.117 1424.055)" fill="#f4ceaf"/>
    <path id="Trazado_996498" data-name="Trazado 996498" d="M184,378.171a3.619,3.619,0,0,0,3.619,3.619h6.514v-3.619A2.171,2.171,0,0,0,191.962,376h-5.79A2.171,2.171,0,0,0,184,378.171Z" transform="translate(1015.012 1433.884)" fill="#ad7d4d"/>
    <path id="Trazado_996499" data-name="Trazado 996499" d="M160,378.171v3.619h.724a3.619,3.619,0,0,0,3.619-3.619,2.171,2.171,0,0,0-4.343,0Z" transform="translate(1034.669 1433.884)" fill="#ad7d4d"/>
    <path id="Trazado_996500" data-name="Trazado 996500" d="M34.9,408a2.9,2.9,0,1,0,0,5.79H49.371a2.9,2.9,0,1,0,0-5.79Z" transform="translate(1139.508 1407.674)" fill="#f2c194"/>
    <path id="Trazado_996501" data-name="Trazado 996501" d="M52.266,463.238a7.063,7.063,0,0,0-5.678-6.926L45.028,456h-5.79l-1.56.312A7.063,7.063,0,0,0,32,463.238Z" transform="translate(1139.508 1368.359)" fill="#eebe33"/>
    <path id="Trazado_996502" data-name="Trazado 996502" d="M56,388v6.514a5.791,5.791,0,0,0,2.9,5.016v.774a2.9,2.9,0,0,0,5.79,0v-.774a5.793,5.793,0,0,0,2.9-5.016V388Z" transform="translate(1119.851 1424.055)" fill="#f4ceaf"/>
    <path id="Trazado_996503" data-name="Trazado 996503" d="M72,378.171a3.619,3.619,0,0,0,3.619,3.619h6.514v-3.619A2.171,2.171,0,0,0,79.962,376h-5.79A2.171,2.171,0,0,0,72,378.171Z" transform="translate(1106.746 1433.884)" fill="#ad7d4d"/>
    <path id="Trazado_996504" data-name="Trazado 996504" d="M48,378.171v3.619h.724a3.619,3.619,0,0,0,3.619-3.619,2.171,2.171,0,0,0-4.343,0Z" transform="translate(1126.403 1433.884)" fill="#ad7d4d"/>
    <path id="Trazado_996505" data-name="Trazado 996505" d="M388.266,463.238a7.063,7.063,0,0,0-5.678-6.926l-1.56-.312h-5.79l-1.56.312A7.063,7.063,0,0,0,368,463.238Z" transform="translate(864.307 1368.359)" fill="#eebe33"/>
    <path id="Trazado_996506" data-name="Trazado 996506" d="M370.9,408a2.9,2.9,0,1,0,0,5.79h14.476a2.9,2.9,0,1,0,0-5.79Z" transform="translate(864.307 1407.674)" fill="#f2c194"/>
    <path id="Trazado_996507" data-name="Trazado 996507" d="M392,388v6.514a5.791,5.791,0,0,0,2.9,5.016v.774a2.9,2.9,0,0,0,5.79,0v-.774a5.793,5.793,0,0,0,2.9-5.016V388Z" transform="translate(844.649 1424.055)" fill="#f4ceaf"/>
    <g id="Grupo_1179641" data-name="Grupo 1179641" transform="translate(1212.04 1809.884)">
      <path id="Trazado_996508" data-name="Trazado 996508" d="M408,378.171a3.619,3.619,0,0,0,3.619,3.619h6.514v-3.619A2.171,2.171,0,0,0,415.962,376h-5.79A2.171,2.171,0,0,0,408,378.171Z" transform="translate(-380.496 -376)" fill="#ad7d4d"/>
      <path id="Trazado_996509" data-name="Trazado 996509" d="M384,378.171v3.619h.724a3.619,3.619,0,0,0,3.619-3.619,2.171,2.171,0,0,0-4.343,0Z" transform="translate(-360.839 -376)" fill="#ad7d4d"/>
      <path id="Trazado_996510" data-name="Trazado 996510" d="M273.371,408a14.343,14.343,0,0,0,2.409,7.956l.486.729-.248.248a13.979,13.979,0,0,1-19.769,0l-.248-.248.486-.729A14.343,14.343,0,0,0,258.9,408Z" transform="translate(-256 -402.21)" fill="#ad7d4d"/>
    </g>
    <path id="Trazado_996511" data-name="Trazado 996511" d="M276.266,463.238a7.063,7.063,0,0,0-5.678-6.926l-1.56-.312h-5.79l-1.56.312A7.063,7.063,0,0,0,256,463.238Z" transform="translate(956.04 1368.359)" fill="#e9afc0"/>
    <path id="Trazado_996512" data-name="Trazado 996512" d="M258.9,408a2.9,2.9,0,0,0,0,5.79h14.476a2.9,2.9,0,0,0,0-5.79Z" transform="translate(956.04 1407.674)" fill="#f2c194"/>
    <path id="Trazado_996513" data-name="Trazado 996513" d="M280,388v6.514a5.791,5.791,0,0,0,2.9,5.016v.774a2.9,2.9,0,0,0,5.79,0v-.774a5.793,5.793,0,0,0,2.9-5.016V388Z" transform="translate(936.383 1424.055)" fill="#f4ceaf"/>
    <path id="Trazado_996514" data-name="Trazado 996514" d="M272,378.171v3.619h14.476v-3.619a2.171,2.171,0,0,0-2.17-2.171H274.171A2.171,2.171,0,0,0,272,378.17Z" transform="translate(942.936 1433.884)" fill="#ad7d4d"/>
    <path id="Trazado_996515" data-name="Trazado 996515" d="M34.9,290.9h5.79v8.685h2.9V289.448A1.448,1.448,0,0,0,42.133,288H33.448A1.448,1.448,0,0,0,32,289.448v10.133h2.9Z" transform="translate(1139.508 1505.96)"/>
    <path id="Trazado_996516" data-name="Trazado 996516" d="M130.9,202.9h5.79v5.79h2.9v-7.238A1.448,1.448,0,0,0,138.133,200h-8.686A1.448,1.448,0,0,0,128,201.448v14.476h2.9Z" transform="translate(1060.879 1578.037)"/>
    <path id="Trazado_996517" data-name="Trazado 996517" d="M226.9,146.9h5.79v11.581h2.9V145.448A1.448,1.448,0,0,0,234.133,144h-8.686A1.448,1.448,0,0,0,224,145.448v13.028h2.9Z" transform="translate(982.25 1623.903)"/>
    <path id="Trazado_996518" data-name="Trazado 996518" d="M322.9,82.9h5.79v34.742h2.9V81.448A1.448,1.448,0,0,0,330.133,80h-8.686A1.448,1.448,0,0,0,320,81.448v27.5h2.9Z" transform="translate(903.621 1676.323)"/>
    <path id="Trazado_996519" data-name="Trazado 996519" d="M418.9,18.9h5.79V76.8h2.9V17.448A1.448,1.448,0,0,0,426.133,16h-8.686A1.448,1.448,0,0,0,416,17.448V76.8h2.9Z" transform="translate(824.992 1728.742)"/>
    <path id="Trazado_996520" data-name="Trazado 996520" d="M101.757,278.134q.217-.241.409-.5h1.446a4.342,4.342,0,0,0,1.448-8.437v-2.42a3.623,3.623,0,0,0-3.619-3.619H95.65a3.6,3.6,0,0,0-2.171.731,3.592,3.592,0,0,0-4.356.01c.008-.246.013-.493.013-.74a23.161,23.161,0,0,0-46.323,0c0,.248.005.494.013.74a3.594,3.594,0,0,0-2.184-.74h-5.79a3.6,3.6,0,0,0-2.171.731,3.612,3.612,0,0,0-5.79,2.888v2.42a4.342,4.342,0,0,0,1.448,8.437h1.448v-.007c.13.173.268.34.413.5a8.535,8.535,0,0,0-6.2,8.19h2.9a5.63,5.63,0,0,1,4.514-5.506l.174-.035a4.342,4.342,0,0,0,7.995,0l.174.035a5.631,5.631,0,0,1,4.514,5.506h2.9a5.63,5.63,0,0,1,4.514-5.506l.174-.035a4.342,4.342,0,0,0,7.995,0l.174.035a5.631,5.631,0,0,1,4.514,5.506h2.9a5.63,5.63,0,0,1,4.514-5.506l.174-.035a4.342,4.342,0,0,0,7.995,0l.174.035a5.631,5.631,0,0,1,4.514,5.506h2.9a5.63,5.63,0,0,1,4.514-5.506l.174-.035a4.342,4.342,0,0,0,7.995,0l.174.035a5.631,5.631,0,0,1,4.514,5.506h2.9A8.535,8.535,0,0,0,101.757,278.134Zm1.855-3.392h-.144a7.311,7.311,0,0,0,.144-1.448v-1.448a1.448,1.448,0,0,1,0,2.9Zm-7.962-8.686h5.79a.725.725,0,0,1,.724.724v2.171H97.1a2.174,2.174,0,0,1-2.171-2.171A.725.725,0,0,1,95.65,266.057Zm-5.067.724a.724.724,0,0,1,1.448,0,2.175,2.175,0,0,1-1.448,2.047Zm-6.218,12.094c-.149.13-.3.256-.456.379a8.451,8.451,0,0,0-2.419-1.12q.217-.241.409-.5h1.446c.1,0,.2,0,.305-.012C83.871,278.052,84.108,278.47,84.366,278.875ZM55.118,266.057h5.79a.725.725,0,0,1,.724.724v2.171H56.565a2.174,2.174,0,0,1-2.171-2.171A.725.725,0,0,1,55.118,266.057Zm7.962,7.238v-1.448a1.448,1.448,0,0,1,0,2.9h-.144A7.31,7.31,0,0,0,63.08,273.295Zm4.771,5.58c.257-.4.495-.822.715-1.249.1.007.2.012.305.012h1.448v-.007c.13.173.268.34.413.5a8.442,8.442,0,0,0-2.425,1.121C68.151,279.131,68,279,67.85,278.875Zm1.17-4.132h-.15a1.448,1.448,0,0,1,0-2.9v1.448A7.193,7.193,0,0,0,69.02,274.742Zm2.745-7.238v1.448H70.318V266.78a.725.725,0,0,1,.724-.724H81.175a.725.725,0,0,1,.724.724v2.171H74.66V267.5Zm13.028,5.79a1.449,1.449,0,0,1-1.448,1.448H83.2a7.31,7.31,0,0,0,.144-1.448v-1.448A1.449,1.449,0,0,1,84.794,273.295Zm4.343-1.448v1.448a7.194,7.194,0,0,0,.15,1.448h-.15a1.448,1.448,0,0,1,0-2.9Zm-2.9-8.686a20.179,20.179,0,0,1-.977,6.238,4.308,4.308,0,0,0-.47-.2v-2.42a3.623,3.623,0,0,0-3.619-3.619H77.556v-4.343a1.448,1.448,0,0,0-1.448-1.448H72.585l-3.54-5.9,3.243-7.567A20.3,20.3,0,0,1,86.241,263.161Zm-16.8-19.968-3.35,7.818a1.447,1.447,0,0,0,.089,1.315l4.343,7.238a1.448,1.448,0,0,0,1.241.7h2.9v2.9H71.041a3.623,3.623,0,0,0-3.619,3.619v2.42a4.346,4.346,0,0,0-1.448.86,4.346,4.346,0,0,0-1.448-.86v-2.42a3.623,3.623,0,0,0-3.619-3.619H58.184l.4-.8a1.447,1.447,0,0,0-.647-1.942h0l-1.772-.886.627-1.88,4.49,1.122a1.448,1.448,0,0,0,1.8-1.4v-5.79a1.448,1.448,0,0,0-.505-1.1l-6.092-5.221A20.256,20.256,0,0,1,69.442,243.193Zm-15.52,3.686,6.262,5.368v3.27l-3.992-1a1.447,1.447,0,0,0-1.724.947l-1.448,4.343a1.447,1.447,0,0,0,.726,1.753l1.6.8-.4.809a3.594,3.594,0,0,0-2,.722,3.612,3.612,0,0,0-5.79,2.888v2.42a4.311,4.311,0,0,0-.469.2A20.275,20.275,0,0,1,53.922,246.879ZM42.813,273.295v-1.448a1.448,1.448,0,0,1,0,2.9h-.144A7.311,7.311,0,0,0,42.813,273.295Zm5.79-1.448v1.448a7.193,7.193,0,0,0,.15,1.448H48.6a1.448,1.448,0,0,1,0-2.9Zm1.448-3.019V266.78a.724.724,0,0,1,1.448,0A2.175,2.175,0,0,1,50.051,268.828Zm-15.2-2.771h5.79a.725.725,0,0,1,.724.724v2.171H36.3a2.174,2.174,0,0,1-2.171-2.171A.725.725,0,0,1,34.852,266.057Zm-5.067.724a.724.724,0,0,1,1.448,0,2.175,2.175,0,0,1-1.448,2.047Zm-1.448,7.962a1.448,1.448,0,0,1,0-2.9v1.448a7.193,7.193,0,0,0,.15,1.448Zm8.686,3.568v.774a1.448,1.448,0,1,1-2.9,0v-.774a1.448,1.448,0,0,0-.723-1.253,4.36,4.36,0,0,1-2.172-3.763v-1.937a5.091,5.091,0,0,0,1.448-1.036,5.05,5.05,0,0,0,3.619,1.526h3.619v1.448a4.345,4.345,0,0,1-2.17,3.761A1.448,1.448,0,0,0,37.023,278.31Zm8.686,3.278a8.52,8.52,0,0,0-4.75-3.455q.217-.241.409-.5h1.446a4.324,4.324,0,0,0,2.9-1.109,4.324,4.324,0,0,0,2.9,1.109h1.448v-.007c.13.173.268.34.413.5A8.519,8.519,0,0,0,45.709,281.589Zm11.581-3.278v.774a1.448,1.448,0,1,1-2.9,0v-.774a1.448,1.448,0,0,0-.723-1.253,4.36,4.36,0,0,1-2.172-3.763v-1.937a5.091,5.091,0,0,0,1.448-1.036,5.05,5.05,0,0,0,3.619,1.526h3.619v1.448a4.345,4.345,0,0,1-2.17,3.761A1.448,1.448,0,0,0,57.289,278.31Zm3.935-.176q.217-.241.409-.5H63.08a4.321,4.321,0,0,0,2.7-.944c-.164.293-.336.581-.522.859l-.486.73a1.448,1.448,0,0,0,.181,1.826l.249.249q.479.479,1,.914-.115.156-.223.318a8.52,8.52,0,0,0-4.75-3.455Zm16.331.176v.774a1.448,1.448,0,1,1-2.9,0v-.774a1.448,1.448,0,0,0-.723-1.253,4.36,4.36,0,0,1-2.172-3.763v-1.448h8.686v1.448a4.345,4.345,0,0,1-2.17,3.761A1.448,1.448,0,0,0,77.556,278.31Zm8.686,3.278q-.108-.161-.223-.318.519-.435,1-.914l.248-.248a1.448,1.448,0,0,0,.181-1.826l-.486-.73c-.186-.278-.358-.566-.521-.859a4.321,4.321,0,0,0,2.7.944h1.448v-.007c.13.173.268.34.413.5A8.519,8.519,0,0,0,86.241,281.589Zm11.581-3.278v.774a1.448,1.448,0,1,1-2.9,0v-.774a1.448,1.448,0,0,0-.723-1.253,4.36,4.36,0,0,1-2.172-3.763v-1.937a5.09,5.09,0,0,0,1.448-1.036,5.05,5.05,0,0,0,3.619,1.526h3.619v1.448a4.345,4.345,0,0,1-2.17,3.761A1.448,1.448,0,0,0,97.822,278.31Z" transform="translate(1146.065 1545.274)"/>
    <path id="Trazado_996521" data-name="Trazado 996521" d="M440,480h2.9v2.9H440Z" transform="translate(805.335 1348.702)"/>
    <path id="Trazado_996522" data-name="Trazado 996522" d="M392,480h2.9v2.9H392Z" transform="translate(844.649 1348.702)"/>
    <path id="Trazado_996523" data-name="Trazado 996523" d="M328,480h2.9v2.9H328Z" transform="translate(897.068 1348.702)"/>
    <path id="Trazado_996524" data-name="Trazado 996524" d="M280,480h2.9v2.9H280Z" transform="translate(936.383 1348.702)"/>
    <path id="Trazado_996525" data-name="Trazado 996525" d="M216,480h2.9v2.9H216Z" transform="translate(988.803 1348.702)"/>
    <path id="Trazado_996526" data-name="Trazado 996526" d="M168,480h2.9v2.9H168Z" transform="translate(1028.117 1348.702)"/>
    <path id="Trazado_996527" data-name="Trazado 996527" d="M104,480h2.9v2.9H104Z" transform="translate(1080.536 1348.702)"/>
    <path id="Trazado_996528" data-name="Trazado 996528" d="M56,480h2.9v2.9H56Z" transform="translate(1119.851 1348.702)"/>
  </g>
</svg>
