<svg xmlns="http://www.w3.org/2000/svg" width="107" height="107" viewBox="0 0 107 107">
  <g id="Grupo_1180066" data-name="Grupo 1180066" transform="translate(-919.833 -473)">
    <g id="Grupo_1179974" data-name="Grupo 1179974">
      <circle id="Elipse_13627" data-name="Elipse 13627" cx="53.5" cy="53.5" r="53.5" transform="translate(919.833 473)" fill="#ffe082"/>
      <g id="Grupo_1177444" data-name="Grupo 1177444" transform="translate(935.393 485.225)">
        <path id="Trazado_994287" data-name="Trazado 994287" d="M2322.364,653.308a28.49,28.49,0,1,1,36.738-16.549,28.49,28.49,0,0,1-36.738,16.549" transform="translate(-2295.095 -597.034)" fill="#a9dff0" fill-rule="evenodd"/>
        <path id="Trazado_994288" data-name="Trazado 994288" d="M2313.162,750.945a28.5,28.5,0,0,1-8.032-29c3.054-1.026,6.746-.286,5.517,2.342-3.9,8.369-.4,11.649,5.259,8.028,3.782-2.425,6.027,6.189,2.4,7.085-6.585,1.63-5.481,8.624-5.146,11.545" transform="translate(-2295.099 -700.349)" fill="#99cc67" fill-rule="evenodd"/>
        <path id="Trazado_994289" data-name="Trazado 994289" d="M2483.517,840.535a28.516,28.516,0,0,1-15.711,3.511,6.478,6.478,0,0,1,5.848-4.361c3.3-.138,2.651-3.9,1.224-4.78-6.749-4.163,2.222-12.077,5.535-11.092,5.124,1.531-4.21,7.039,3.1,16.723" transform="translate(-2432.347 -785.983)" fill="#99cc67" fill-rule="evenodd"/>
        <path id="Trazado_994290" data-name="Trazado 994290" d="M2492.79,598.746a28.527,28.527,0,0,1,25.586,34.143c-1.937-2.112-4.04-3.446-6.561-.925-.4.4-1.758.474-1.845-.06-2.866-1.234,4.9-7.039,1.951-8.281-4.238-1.79,1.537-6.026-3.386-7.977-3.947-1.565-9.334,8.752-9.334-2.991,0-3.8-7.9-5.77-6.437-13.775.006-.046.016-.088.026-.133" transform="translate(-2453.104 -597.518)" fill="#99cc67" fill-rule="evenodd"/>
        <path id="Trazado_994291" data-name="Trazado 994291" d="M2270.167,918.292l-2.683.06c-1.851.041-7.666.617-8.125,3.947l-2.185,10.784a2.959,2.959,0,0,0,1.67,3.543,2.286,2.286,0,0,0,.6.11l0,0,1.495.045a2.5,2.5,0,0,0,2.36,2.581l11.065-.248a2.308,2.308,0,0,0,1.818-1.044,2.1,2.1,0,0,0,1.407.557,2.553,2.553,0,0,0,2.328-2.714v-12.28C2279.91,919.5,2271.629,918.255,2270.167,918.292Z" transform="translate(-2255.821 -865.198)" fill="#34c6f4" fill-rule="evenodd"/>
        <path id="Trazado_994292" data-name="Trazado 994292" d="M2421.239,922.1h11.313c2.4,0,4.7-.391,4.522,2.806v10.264a2.127,2.127,0,0,1-.635,1.518l-1.449,1.445V940.1a2.444,2.444,0,0,1-2.438,2.438h-11.313a2.442,2.442,0,0,1-2.438-2.438v-1.933l-1.49-1.487a2.13,2.13,0,0,1-.635-1.518v-10.1c0-3.3,1.295-2.965,4.562-2.965" transform="translate(-2389.516 -868.374)" fill="#a6ce39"/>
        <path id="Trazado_994293" data-name="Trazado 994293" d="M2570.589,918.292l2.683.06c1.851.041,7.666.617,8.125,3.947l2.185,10.784a2.954,2.954,0,0,1-1.67,3.543,2.251,2.251,0,0,1-.593.11v0l-1.5.045a2.5,2.5,0,0,1-2.36,2.581l-11.065-.248a2.315,2.315,0,0,1-1.818-1.044,2.1,2.1,0,0,1-1.407.557,2.553,2.553,0,0,1-2.327-2.714v-12.28C2560.844,919.5,2569.13,918.255,2570.589,918.292Z" transform="translate(-2510.286 -865.198)" fill="#ffcd05" fill-rule="evenodd"/>
        <path id="Trazado_994294" data-name="Trazado 994294" d="M2305.27,853.013a5.349,5.349,0,0,0-5.244,5.319v1.131a5.171,5.171,0,0,0,5.244,5.171,5.346,5.346,0,0,0,5.244-5.319v-1.131a5.171,5.171,0,0,0-5.244-5.171" transform="translate(-2291.799 -810.515)" fill="#f3c7ad" fill-rule="evenodd"/>
        <path id="Trazado_994295" data-name="Trazado 994295" d="M2443.166,831.293l1.445-2.162,2.425-3.626a2.5,2.5,0,0,0,.208-2.383,1.918,1.918,0,0,0-1.763-1.266h-11.475a1.92,1.92,0,0,0-1.763,1.266,2.488,2.488,0,0,0,.208,2.383l2.425,3.626,1.444,2.162Z" transform="translate(-2402.381 -784.415)" fill="#c3996c" fill-rule="evenodd"/>
        <path id="Trazado_994296" data-name="Trazado 994296" d="M2452.47,854.763a5.352,5.352,0,0,0-5.244,5.319v1.131a5.171,5.171,0,0,0,5.244,5.171,5.345,5.345,0,0,0,5.244-5.314v-1.131a5.171,5.171,0,0,0-5.244-5.176" transform="translate(-2415.107 -811.981)" fill="#f3c7ad" fill-rule="evenodd"/>
        <path id="Trazado_994297" data-name="Trazado 994297" d="M2572.374,820.8a3.409,3.409,0,0,1,2.683,1.169,3.291,3.291,0,0,1,2.466-1.5,3.617,3.617,0,0,1,3.074,1.638,3.445,3.445,0,0,1,2.77-2.011c2.088-.133,3.967,1.992,4.187,4.744s-1.283,5.093-3.373,5.226a3.593,3.593,0,0,1-3.069-1.638,3.2,3.2,0,0,1-5.457.842,3.291,3.291,0,0,1-2.465,1.5c-2.084.133-3.962-1.992-4.188-4.744s1.288-5.093,3.373-5.226" transform="translate(-2517.098 -782.935)" fill="#bcbc9e" fill-rule="evenodd"/>
        <path id="Trazado_994298" data-name="Trazado 994298" d="M2599.19,853.013a5.349,5.349,0,0,1,5.244,5.319v1.131a5.171,5.171,0,0,1-5.244,5.171,5.345,5.345,0,0,1-5.244-5.319v-1.131a5.171,5.171,0,0,1,5.244-5.171" transform="translate(-2538.014 -810.515)" fill="#f3c7ad" fill-rule="evenodd"/>
        <path id="Trazado_994299" data-name="Trazado 994299" d="M2349.626,820.476a3.45,3.45,0,1,1-3.23,3.441,3.34,3.34,0,0,1,3.23-3.441" transform="translate(-2330.643 -783.259)" fill="#fcd770" fill-rule="evenodd"/>
        <path id="Trazado_994300" data-name="Trazado 994300" d="M2302.246,837.916a3.347,3.347,0,0,0,.5,1.592,5.794,5.794,0,0,0,4.008,2.49c2.194-3.732-4.752-10.26-10.187-6.129a5.714,5.714,0,0,0-2.563,5.356C2297.37,842.241,2301.207,839.5,2302.246,837.916Z" transform="translate(-2286.728 -795.046)" fill="#fcd770" fill-rule="evenodd"/>
        <path id="Trazado_994301" data-name="Trazado 994301" d="M2266,633.977a2.38,2.38,0,0,0,.386,1.178,4.458,4.458,0,0,0,2.259,1.628c.2-1.979-2.116-4.085-3.772-4.624l-.58-.18a5.021,5.021,0,0,0-4.417.925,4.8,4.8,0,0,0-2.144,3.516,5.909,5.909,0,0,0,2.729-.464,8.242,8.242,0,0,0,3.418-2.462A1.135,1.135,0,0,1,2266,633.977Zm.362,4.205a5.434,5.434,0,0,1-1.983-1.983,10.421,10.421,0,0,1-5.663,2.49l-.013,1.495a4.046,4.046,0,0,0,4.1,3.98,4.194,4.194,0,0,0,4.123-4.183l-.013-1.49c-.19-.1-.375-.2-.55-.308m-9.906.308c-.055-.013-.11-.028-.165-.045h0a1.125,1.125,0,0,1-.8-.971,6.957,6.957,0,0,1,3.345-6.621,29.624,29.624,0,0,1,38.279-37.778.977.977,0,0,1,.165.065,29.626,29.626,0,0,1,18.352,34.065c2.995-.12,5.111,2.889,5.3,5.926.18,2.821-1.294,5.806-4.04,6.262l0,.82a6.216,6.216,0,0,1-1.053,3.405,11.612,11.612,0,0,1,3.16,1.123,4.611,4.611,0,0,1,2.573,3.381l1.329,6.561.976,4.113a3.56,3.56,0,0,1-.183,2.3,4.524,4.524,0,0,1-.236.625,3.611,3.611,0,0,1-3.055,2.134l-.57.018a3.475,3.475,0,0,1-3.335,2.608l-11.065-.253a3.259,3.259,0,0,1-1.983-.732c-2.383.976-4.684-1.035-4.684-3.6v-12.28a4.1,4.1,0,0,1,.5-1.974c-.4.188-.815.373-1.229.544v9.791a3.4,3.4,0,0,1-.993,2.4l0,0-1.1,1.091v1.445a3.583,3.583,0,0,1-3.576,3.576h-11.313a3.581,3.581,0,0,1-3.574-3.576v-1.38l-1.156-1.156v0a3.229,3.229,0,0,1-.966-2.4v-9.8c-.451-.183-.888-.381-1.324-.584a4.061,4.061,0,0,1,.524,2.019v12.28c0,2.568-2.3,4.577-4.684,3.6a3.274,3.274,0,0,1-1.983.732l-11.064.253a3.476,3.476,0,0,1-3.336-2.608,4.622,4.622,0,0,1-1.5-.193,3.692,3.692,0,0,1-2.126-1.961,4.059,4.059,0,0,1-.235-.625,3.569,3.569,0,0,1-.17-2.365l.958-4.053,1.334-6.556a4.61,4.61,0,0,1,2.568-3.381,11.734,11.734,0,0,1,3.16-1.123,6.412,6.412,0,0,1-1.058-3.491Zm4.431-8.636a7.194,7.194,0,0,1,3.584-.156,4.26,4.26,0,0,1,7.444-.469c.12-.037.243-.07.364-.1,1.522-.377,1.118-3.962-.216-5.038a1.037,1.037,0,0,0-1.3,0c-2.42,1.55-5.484,2.466-7.393.584-2.232-2.185-1.151-6.52.5-10.049.165-.359.216-.584-.05-.778-.778-.557-2.526-.424-3.521-.175a27.244,27.244,0,0,0,.594,16.173m5.752.617a8.776,8.776,0,0,1,3.248,2.912c1.2-1.472.263-3.855-1.56-3.855a2.033,2.033,0,0,0-1.688.943m4.181,5.126a4.338,4.338,0,0,1-.432,3.037,1.138,1.138,0,0,1-1.191.617,7.926,7.926,0,0,1-.22,2.4,27.133,27.133,0,0,0,6.58,4.141c.484-2.066,1.936-2.052,4.689-2.024h1.054a7.242,7.242,0,0,1-.971-4.491,6.381,6.381,0,0,1,.607-2.706l-2.458-3.671c-1.51-2.25-.05-5.415,2.5-5.415h11.47a2.921,2.921,0,0,1,1.708.547h-.005l.349.294a4.912,4.912,0,0,1,3.24-.4c3.275.975,2.714,2.774,1.85,5.53-.772,2.48-1.9,6.074,1.261,10.781a26.857,26.857,0,0,0,3.533-2.53,6.278,6.278,0,0,1-.235-1.7c-3.709-1.031-5.244-6.538-3.014-9.961a4.233,4.233,0,0,1,6.064-1.389,4.713,4.713,0,0,1,.63-.469,4.182,4.182,0,0,1,4.882.4c.105-.11.211-.211.322-.308.128-.459.249-.92.354-1.385-1.518-1.537-2.784-2.2-4.522-.459a2.71,2.71,0,0,1-3.358.115,1.229,1.229,0,0,1-.105-.125c-1.2-.695-1.214-1.8-.654-3.1.654-1.523,2.314-3.405,2.839-4.652.087-.2.143-.346.143-.346-2.894-1.219-2.525-3.1-2.144-5.023.221-1.123.451-2.282-1.219-2.944-1.735-.685-4.689,2.789-7.022,2.789-1.836,0-3.037-1.57-3.037-6.832,0-1.008-1.031-2.047-2.222-3.248-2.182-2.2-4.79-4.84-4.348-9.6a27.386,27.386,0,0,0-26.657,17.783,6.053,6.053,0,0,1,4.063.773,2.713,2.713,0,0,1,.787,3.574c-1.251,2.673-1.688,4.74-1.517,6.142.133,1.058.589,1.7,1.633,1.73a6.624,6.624,0,0,0,3.5-1.279c2.5-1.605,4.632.125,5.507,2.41.92,2.425.657,6.018-2.222,6.731l-.152.042A4.678,4.678,0,0,1,2270.817,635.6Zm39.706-3.055a6.506,6.506,0,0,1,6.1,4.6c2.172-.487,2.854-4.582.93-6.759-1.3-1.467-2.9-1.058-3.709.492h0a1.135,1.135,0,0,1-1.919.148,2.2,2.2,0,0,0-2.921-.906,2.64,2.64,0,0,0-.773.75,1.131,1.131,0,0,1-1.748.128c-1.936-2.052-4.366.018-4.1,3.188a4.37,4.37,0,0,0,1.891,3.433,6.3,6.3,0,0,1,6.257-5.066Zm3.258,13.029a6.368,6.368,0,0,1-2.162.782v8.02a1.136,1.136,0,1,1-2.272,0v-8.065a6.294,6.294,0,0,1-1.8-.654,14.557,14.557,0,0,0-4.983,1.79,2.781,2.781,0,0,0-1.522,2.172V661.9c0,.93.681,1.79,1.462,1.537v-9.547a1.136,1.136,0,0,1,2.272,0v9.763a1.1,1.1,0,0,0,.7.318l11.064.253a1.23,1.23,0,0,0,1.086-.888l-2.811.073c-1.868.06-3.827-.589-3.907-2.746a3.581,3.581,0,0,1,3.461-3.714l2.121-.078-.883-4.464,2.227-.437,1.4,7.062-4.79.18c-1.151.041-1.555,1.432-1.091,1.716a2.706,2.706,0,0,0,1.38.216l5.715-.153.326-.05a1.3,1.3,0,0,0,.778-.63,2.11,2.11,0,0,0-.018-.975h.005c-.359-1.592-.622-3.188-1.008-4.827l.028,0-1.206-5.931c-.01-.045-.018-.093-.028-.138C2319.054,646.423,2315.335,645.751,2313.781,645.571Zm-8.359-1.753-.018-.028-.055.045Zm5.1-9.008a4.025,4.025,0,0,0-4.108,4.04v1.131a4.211,4.211,0,0,0,4.108,4.183,4.038,4.038,0,0,0,4.108-3.98v-1.191A4.212,4.212,0,0,0,2310.523,634.809Zm-23.819.291,23.819-.291Zm0,0a4.209,4.209,0,0,0-4.108,4.178l-.005,1.191a4.031,4.031,0,0,0,4.146,3.98,4.221,4.221,0,0,0,4.077-4.183,5.33,5.33,0,0,0-.584-3.235,4.038,4.038,0,0,0-3.524-1.936v0Zm0-2.274v0a6.245,6.245,0,0,1,4.4,1.721l1.951-2.912a1.384,1.384,0,0,0-.231-1.768l0,0a.651.651,0,0,0-.382-.12h-11.47c-.712,0-1.113,1.146-.617,1.881l1.988,2.972A6.5,6.5,0,0,1,2286.7,632.826Zm5.811,3.7a7.016,7.016,0,0,1,.57,3.133,4.462,4.462,0,0,1,1.008,3.689,3.61,3.61,0,0,1-.11.414c1.711.018,3.335.3,3.869,2.034.331-.148.662-.3.988-.464-5.833-8.847,1.123-14.372-1.758-15.233a2.817,2.817,0,0,0-1.573.266,3.594,3.594,0,0,1-.571,2.54Zm-3.022,9.518a6.291,6.291,0,0,1-1.653.562v17.612h2.659a3.264,3.264,0,0,1-1.154-5.356l2.149-2.149v-7.233h2.272v8.171l-2.816,2.821a.985.985,0,0,0,.7,1.68.97.97,0,0,0,.694-.286l1.477-1.477a1.1,1.1,0,0,1,.193-.253l1.445-1.444h0a.848.848,0,0,0,.276-.63V647.08h.01c-.125-.8-.667-1-1.372-1.044-.635-.032-1.344,0-2,0h-2.884Zm-3.925.589a6.173,6.173,0,0,1-1.781-.589l-3.566-.01c-1.84-.018-2.581-.028-2.581,1.841v10.114a.978.978,0,0,0,.3.7l1.482,1.477a1.107,1.107,0,0,1,.221.308l1.389,1.389a.988.988,0,0,0,1.685-.7.969.969,0,0,0-.291-.695l-2.816-2.821v-8.171h2.272v7.233l2.154,2.149a3.264,3.264,0,0,1-1.159,5.356h2.691Zm-17.612-2.871,18.748-8.664Zm0,0-.042.06c.06.013.12.032.18.05-.045-.036-.093-.073-.138-.11m-2.167,1.9a6.433,6.433,0,0,1-1.8.649v8.065a1.134,1.134,0,1,1-2.267,0v-8.02a6.327,6.327,0,0,1-2.162-.782,11.752,11.752,0,0,0-4.123,1.146,2.489,2.489,0,0,0-1.427,1.716c-.01.045-.018.093-.028.138l-1.206,5.931.028,0c-.386,1.638-.649,3.235-1.008,4.827a2.254,2.254,0,0,0-.018.975,1.345,1.345,0,0,0,.943.667l.622.032,5.259.133c.566.018,1.545.015,1.564-.566a1.321,1.321,0,0,0-1.274-1.367l-4.79-.18,1.4-7.062,2.227.437-.883,4.464,2.121.078a3.584,3.584,0,0,1,3.46,3.714c-.078,2.157-2.039,2.806-3.907,2.746l-2.816-.07a1.24,1.24,0,0,0,1.086.883l11.07-.253a1.1,1.1,0,0,0,.7-.318v-9.763a1.134,1.134,0,1,1,2.268,0v9.547c.787.253,1.462-.607,1.462-1.537v-12.28C2272.294,647.205,2267.565,645.989,2265.789,645.658Zm24.2-52.014c-.326,3.764,1.863,5.971,3.694,7.817,1.545,1.56,2.885,2.917,2.885,4.85,0,3.511.3,4.559.764,4.559,1.412,0,4.72-3.86,7.854-2.618,3.428,1.357,3.019,3.451,2.613,5.484-.2,1.013-.4,2,.8,2.5,3.686,1.555-.87,5.856-1.776,7.965-.083.2-.2.3-.17.318a1.116,1.116,0,0,1,.4.286.736.736,0,0,0,.128-.013c.065-.01.037.06.065.028,1.6-1.592,3.12-1.951,4.592-1.57a5.657,5.657,0,0,1,2.006,1.036,27.38,27.38,0,0,0-23.852-30.644" transform="translate(-2249.342 -591.18)"/>
      </g>
    </g>
  </g>
</svg>
