<svg xmlns="http://www.w3.org/2000/svg" width="107" height="107" viewBox="0 0 107 107">
  <g id="Grupo_1180064" data-name="Grupo 1180064" transform="translate(-925.833 -171)">
    <g id="Grupo_1179975" data-name="Grupo 1179975">
      <circle id="Elipse_13626" data-name="Elipse 13626" cx="53.5" cy="53.5" r="53.5" transform="translate(925.833 171)" fill="#ffe082"/>
      <g id="Grupo_1177446" data-name="Grupo 1177446" transform="translate(945.211 177.479)">
        <path id="Trazado_994208" data-name="Trazado 994208" d="M763.487,28.625S762,17.45,759.122,11.421a2.08,2.08,0,0,0-3.752,0c-2.878,6.029-4.365,17.2-4.365,17.2l5.934,1.345Z" transform="translate(-723.972 -9.022)" fill="#e2aa84"/>
        <path id="Trazado_994209" data-name="Trazado 994209" d="M777.791,11.421a2.08,2.08,0,0,0-3.752,0c-.193.405-.38.834-.561,1.281,2.51,6.2,3.8,15.924,3.8,15.924l-3.99.819,2.317.525,6.547-1.345s-1.487-11.175-4.365-17.2" transform="translate(-742.64 -9.022)" fill="#dc986a"/>
        <path id="Trazado_994210" data-name="Trazado 994210" d="M688.311,46.183a37.668,37.668,0,0,0-11.168-11.076,2.081,2.081,0,0,0-3.132,2.358c1.226,3.891,3.308,9.281,6.311,13.042l9.543-1.345Z" transform="translate(-659.389 -29.558)" fill="#2b2b2b"/>
        <path id="Trazado_994211" data-name="Trazado 994211" d="M683.8,46.183l1.888,3.618,4.54-.64-1.554-2.979A37.667,37.667,0,0,0,677.5,35.106a2.09,2.09,0,0,0-3.164,1.192,36.9,36.9,0,0,1,9.458,9.884" transform="translate(-659.749 -29.558)"/>
        <path id="Trazado_994212" data-name="Trazado 994212" d="M808.252,46.183A37.667,37.667,0,0,1,819.42,35.106a2.081,2.081,0,0,1,3.132,2.358c-1.226,3.891-3.308,9.281-6.311,13.042L806.7,49.162Z" transform="translate(-770.625 -29.558)" fill="#2b2b2b"/>
        <path id="Trazado_994213" data-name="Trazado 994213" d="M845.97,35.106c-.6.392-1.164.791-1.71,1.192a2.057,2.057,0,0,1-.032,1.166,44.312,44.312,0,0,1-5.836,12.422l4.4.62c3-3.76,5.085-9.151,6.311-13.042a2.081,2.081,0,0,0-3.132-2.358" transform="translate(-797.174 -29.558)"/>
        <path id="Trazado_994214" data-name="Trazado 994214" d="M672.757,179.057H635.1l-6.6,26.276a27.338,27.338,0,0,0-.825,6.666v6.336h52.519V212a27.349,27.349,0,0,0-.825-6.666Z" transform="translate(-620.652 -150.438)" fill="#ecf3fa"/>
        <path id="Trazado_994215" data-name="Trazado 994215" d="M887.748,212v6.335h-4.874V212a27.4,27.4,0,0,0-.825-6.668l-6.6-26.275h4.874l6.6,26.275a27.4,27.4,0,0,1,.824,6.668" transform="translate(-828.213 -150.441)" fill="#d5e3f4"/>
        <path id="Trazado_994216" data-name="Trazado 994216" d="M721.075,204.7H705.049a6.789,6.789,0,0,1-6.789-6.789V179.057h29.6V197.91a6.789,6.789,0,0,1-6.789,6.789" transform="translate(-679.787 -150.438)" fill="#e7b899"/>
        <path id="Trazado_994217" data-name="Trazado 994217" d="M815.584,179.057V197.91A6.789,6.789,0,0,1,808.8,204.7h4.874a6.789,6.789,0,0,0,6.789-6.789V179.057Z" transform="translate(-772.381 -150.438)" fill="#e4b08d"/>
        <rect id="Rectángulo_454878" data-name="Rectángulo 454878" width="11.455" height="6.972" transform="translate(27.547 54.26)" fill="#de9e73"/>
        <rect id="Rectángulo_454879" data-name="Rectángulo 454879" width="4.874" height="6.972" transform="translate(34.129 54.26)" fill="#d68752"/>
        <path id="Trazado_994218" data-name="Trazado 994218" d="M656.061,388.958v8.869a2.819,2.819,0,0,1-2.818,2.818h-58.48a2.742,2.742,0,0,1-.464-.039,2.818,2.818,0,0,1-2.353-2.779v-8.869a5.254,5.254,0,0,1,4.363-5.179l21.967-3.788h11.456l21.967,3.788a5.254,5.254,0,0,1,4.363,5.179" transform="translate(-590.729 -318.758)" fill="#ecf3fa"/>
        <path id="Trazado_994219" data-name="Trazado 994219" d="M821.558,383.778l-21.967-3.788h-4.874l21.967,3.788a5.254,5.254,0,0,1,4.363,5.179v8.869a2.819,2.819,0,0,1-2.818,2.818H823.1a2.819,2.819,0,0,0,2.818-2.818v-8.869a5.254,5.254,0,0,0-4.363-5.179" transform="translate(-760.588 -318.758)" fill="#d5e3f4"/>
        <path id="Trazado_994220" data-name="Trazado 994220" d="M667.188,224.7H663.37a2.2,2.2,0,0,1-2.2-2.2v-5.3a2.2,2.2,0,0,1,2.2-2.2h3.817Z" transform="translate(-648.714 -180.54)" fill="#e4b08d"/>
        <path id="Trazado_994221" data-name="Trazado 994221" d="M880.651,224.7h3.816a2.2,2.2,0,0,0,2.2-2.2v-5.3a2.2,2.2,0,0,0-2.2-2.2h-3.816Z" transform="translate(-832.574 -180.54)" fill="#de9e73"/>
        <path id="Trazado_994222" data-name="Trazado 994222" d="M711.1,132.53H673.438v-5.515a1.738,1.738,0,0,1,1.387-1.7,85.444,85.444,0,0,1,34.886,0,1.738,1.738,0,0,1,1.387,1.7Z" transform="translate(-658.994 -103.912)" fill="#f2d8c6"/>
        <path id="Trazado_994223" data-name="Trazado 994223" d="M795.713,127.019v5.515h-4.874v-5.515a1.739,1.739,0,0,0-1.388-1.7,86.278,86.278,0,0,0-15.005-1.763,85.74,85.74,0,0,1,19.88,1.763,1.739,1.739,0,0,1,1.388,1.7" transform="translate(-743.607 -103.915)" fill="#ecc7ae"/>
        <path id="Trazado_994224" data-name="Trazado 994224" d="M774.733,183.958h0a2.852,2.852,0,0,1-2.852-2.852v-2.049h5.7v2.049a2.852,2.852,0,0,1-2.852,2.852" transform="translate(-741.458 -150.438)" fill="#5e95d4"/>
        <path id="Trazado_994225" data-name="Trazado 994225" d="M762.14,117.158h-9.784a1.349,1.349,0,0,1-1.349-1.349v-9.3a1.349,1.349,0,0,1,1.349-1.349h9.784a1.349,1.349,0,0,1,1.349,1.349v9.3a1.349,1.349,0,0,1-1.349,1.349" transform="translate(-723.973 -88.539)" fill="#d07538"/>
        <path id="Trazado_994226" data-name="Trazado 994226" d="M794.442,105.164h-4.874a1.349,1.349,0,0,1,1.349,1.349v9.3a1.349,1.349,0,0,1-1.349,1.349h4.874a1.349,1.349,0,0,0,1.349-1.349v-9.3a1.349,1.349,0,0,0-1.349-1.349" transform="translate(-756.275 -88.539)" fill="#c75b12"/>
        <path id="Trazado_994227" data-name="Trazado 994227" d="M624,379.99l-2.831,2.832-26.409,17.822a2.743,2.743,0,0,1-.464-.039,2.819,2.819,0,0,1-2.354-2.779v-8.869a5.254,5.254,0,0,1,4.363-5.179l21.967-3.788Z" transform="translate(-590.728 -318.758)" fill="#f2d8c6"/>
        <path id="Trazado_994228" data-name="Trazado 994228" d="M624,379.99l-2.831,2.832-26.409,17.822a2.743,2.743,0,0,1-.464-.039,2.819,2.819,0,0,1-2.354-2.779v-8.869a5.254,5.254,0,0,1,4.363-5.179l21.967-3.788Z" transform="translate(-590.728 -318.758)" fill="#f2d8c6"/>
        <path id="Trazado_994229" data-name="Trazado 994229" d="M624,379.99l-2.831,2.832-26.409,17.822a2.743,2.743,0,0,1-.464-.039,2.819,2.819,0,0,1-2.354-2.779v-8.869a5.254,5.254,0,0,1,4.363-5.179l21.967-3.788Z" transform="translate(-590.728 -318.758)" fill="#f2d8c6"/>
        <path id="Trazado_994230" data-name="Trazado 994230" d="M821.512,388.96v8.869a2.819,2.819,0,0,1-2.818,2.818l-26.409-17.822-2.831-2.831h5.728l21.967,3.788a5.253,5.253,0,0,1,4.362,5.178" transform="translate(-756.18 -318.762)" fill="#f2d8c6"/>
        <path id="Trazado_994231" data-name="Trazado 994231" d="M821.512,388.96v8.869a2.819,2.819,0,0,1-2.818,2.818l-26.409-17.822-2.831-2.831h5.728l21.967,3.788a5.253,5.253,0,0,1,4.362,5.178" transform="translate(-756.18 -318.762)" fill="#f2d8c6"/>
        <path id="Trazado_994232" data-name="Trazado 994232" d="M821.581,383.782l-21.967-3.788h-4.87l21.963,3.787a5.254,5.254,0,0,1,4.363,5.179v8.869a2.8,2.8,0,0,1-.289,1.235l2.345,1.582a2.819,2.819,0,0,0,2.818-2.818V388.96a5.253,5.253,0,0,0-4.362-5.178" transform="translate(-760.611 -318.762)" fill="#ecc7ae"/>
        <path id="Trazado_994233" data-name="Trazado 994233" d="M774.848,390.969h0a2.83,2.83,0,0,1-2.83-2.83v-5.312a2.83,2.83,0,1,1,5.66,0v5.312a2.83,2.83,0,0,1-2.83,2.83" transform="translate(-741.573 -318.764)" fill="#5e95d4"/>
        <path id="Trazado_994234" data-name="Trazado 994234" d="M714.793,199.634H698.767a8.015,8.015,0,0,1-8.006-8.006V172.774a1.217,1.217,0,0,1,1.217-1.217h29.6a1.217,1.217,0,0,1,1.217,1.217v18.853a8.016,8.016,0,0,1-8.006,8.006m-21.6-25.642v17.636a5.578,5.578,0,0,0,5.572,5.572h16.026a5.578,5.578,0,0,0,5.572-5.572V173.992Z" transform="translate(-673.505 -144.156)"/>
        <path id="Trazado_994235" data-name="Trazado 994235" d="M759.339,338.946H747.883a1.217,1.217,0,0,1-1.217-1.217v-6.973a1.217,1.217,0,0,1,1.217-1.217h11.456a1.217,1.217,0,0,1,1.217,1.217v6.973a1.217,1.217,0,0,1-1.217,1.217M749.1,336.511h9.021v-4.538H749.1Z" transform="translate(-720.336 -276.496)"/>
        <path id="Trazado_994236" data-name="Trazado 994236" d="M646.961,395.579h-58.48a3.958,3.958,0,0,1-.671-.057,4.016,4.016,0,0,1-3.364-3.978v-8.869a6.457,6.457,0,0,1,5.374-6.379l21.966-3.788a1.213,1.213,0,0,1,.207-.018h11.456a1.209,1.209,0,0,1,.207.018l21.967,3.788A6.457,6.457,0,0,1,651,382.675v8.869a4.04,4.04,0,0,1-4.035,4.035M612.1,374.925l-21.864,3.77a4.029,4.029,0,0,0-3.352,3.98v8.869a1.592,1.592,0,0,0,1.335,1.578,1.537,1.537,0,0,0,.266.023h58.48a1.6,1.6,0,0,0,1.6-1.6v-8.869a4.028,4.028,0,0,0-3.352-3.98l-21.865-3.771Z" transform="translate(-584.446 -312.475)"/>
        <path id="Trazado_994237" data-name="Trazado 994237" d="M660.906,219.636h-3.817a3.424,3.424,0,0,1-3.421-3.421v-5.3a3.424,3.424,0,0,1,3.421-3.421h3.817a1.217,1.217,0,0,1,1.217,1.217v9.711a1.217,1.217,0,0,1-1.217,1.217m-3.817-9.711a.987.987,0,0,0-.986.986v5.3a.987.987,0,0,0,.986.986h2.6v-7.276Z" transform="translate(-642.433 -174.257)"/>
        <path id="Trazado_994238" data-name="Trazado 994238" d="M878.184,219.636h-3.816a1.217,1.217,0,0,1-1.217-1.217v-9.711a1.217,1.217,0,0,1,1.217-1.217h3.816a3.426,3.426,0,0,1,3.422,3.422v5.3a3.426,3.426,0,0,1-3.422,3.422m-2.6-2.435h2.6a.988.988,0,0,0,.987-.987v-5.3a.988.988,0,0,0-.987-.987h-2.6Z" transform="translate(-826.291 -174.257)"/>
        <path id="Trazado_994239" data-name="Trazado 994239" d="M783.173,240.046a1.217,1.217,0,0,1-1.217-1.217V236.84a1.217,1.217,0,1,1,2.435,0v1.989a1.217,1.217,0,0,1-1.217,1.217" transform="translate(-749.898 -197.823)"/>
        <path id="Trazado_994240" data-name="Trazado 994240" d="M704.815,128.658H667.153a1.217,1.217,0,0,1-1.217-1.217v-5.515a2.967,2.967,0,0,1,2.358-2.893,88.418,88.418,0,0,1,11.36-1.59,1.217,1.217,0,1,1,.178,2.428,86.066,86.066,0,0,0-11.046,1.546.523.523,0,0,0-.417.509v4.3H703.6v-4.3a.523.523,0,0,0-.417-.509,86.061,86.061,0,0,0-11.045-1.546,1.217,1.217,0,1,1,.178-2.428,88.41,88.41,0,0,1,11.359,1.59,2.968,2.968,0,0,1,2.359,2.893v5.515a1.217,1.217,0,0,1-1.217,1.217" transform="translate(-652.709 -98.821)"/>
        <path id="Trazado_994241" data-name="Trazado 994241" d="M621.383,210.149a1.217,1.217,0,0,1-1.217-1.217V205.72a28.638,28.638,0,0,1,.861-6.964l6.6-26.275a1.218,1.218,0,0,1,1.181-.921h37.662a1.217,1.217,0,0,1,1.181.921l6.6,26.275a28.721,28.721,0,0,1,.732,4.249,1.217,1.217,0,1,1-2.423.231,26.287,26.287,0,0,0-.669-3.887l-6.373-25.354H629.761l-6.373,25.354a26.2,26.2,0,0,0-.788,6.371v3.212a1.217,1.217,0,0,1-1.217,1.217" transform="translate(-614.368 -144.158)"/>
        <path id="Trazado_994242" data-name="Trazado 994242" d="M670.052,280.31A1.218,1.218,0,0,1,668.9,278.7l3.558-10.557a1.217,1.217,0,0,1,2.307.778l-3.558,10.557a1.218,1.218,0,0,1-1.153.829" transform="translate(-655.137 -224.375)"/>
        <path id="Trazado_994243" data-name="Trazado 994243" d="M877.926,280.309a1.218,1.218,0,0,1-1.153-.829l-3.558-10.557a1.217,1.217,0,0,1,2.307-.778l3.558,10.557a1.218,1.218,0,0,1-1.154,1.606" transform="translate(-826.291 -224.374)"/>
        <path id="Trazado_994244" data-name="Trazado 994244" d="M764.657,281.576a10.187,10.187,0,0,1-4.071-.876,1.217,1.217,0,0,1,.966-2.235,7.449,7.449,0,0,0,6.208,0,1.217,1.217,0,0,1,.967,2.235,10.192,10.192,0,0,1-4.071.876" transform="translate(-731.383 -233.628)"/>
        <path id="Trazado_994245" data-name="Trazado 994245" d="M816.08,200.656a1.217,1.217,0,0,1-.934-1.995,9.167,9.167,0,0,1,5.332-3.008,1.217,1.217,0,1,1,.293,2.417,6.76,6.76,0,0,0-3.758,2.154,1.218,1.218,0,0,1-.932.432" transform="translate(-777.464 -164.334)"/>
        <path id="Trazado_994246" data-name="Trazado 994246" d="M818.348,238.058h-2.272a1.217,1.217,0,0,1,0-2.435h2.272a1.217,1.217,0,1,1,0,2.435" transform="translate(-777.461 -197.823)"/>
        <path id="Trazado_994247" data-name="Trazado 994247" d="M726.82,200.656a1.215,1.215,0,0,1-.933-.435,6.756,6.756,0,0,0-3.758-2.154,1.217,1.217,0,0,1,.293-2.417,9.168,9.168,0,0,1,5.332,3.008,1.217,1.217,0,0,1-.934,2" transform="translate(-698.885 -164.331)"/>
        <path id="Trazado_994248" data-name="Trazado 994248" d="M738.545,238.058h-2.272a1.217,1.217,0,0,1,0-2.435h2.272a1.217,1.217,0,1,1,0,2.435" transform="translate(-710.611 -197.823)"/>
        <path id="Trazado_994249" data-name="Trazado 994249" d="M768.451,178.893a4.074,4.074,0,0,1-4.07-4.07v-2.049a1.217,1.217,0,0,1,1.217-1.217h5.7a1.217,1.217,0,0,1,1.217,1.217v2.049a4.074,4.074,0,0,1-4.07,4.07m-1.635-4.9v.831a1.635,1.635,0,0,0,3.27,0v-.831Z" transform="translate(-735.176 -144.156)"/>
        <path id="Trazado_994250" data-name="Trazado 994250" d="M755.856,112.091h-9.784a2.569,2.569,0,0,1-2.566-2.566v-9.3a2.569,2.569,0,0,1,2.566-2.566h9.784a2.569,2.569,0,0,1,2.566,2.566v9.3a2.566,2.566,0,0,1-2.566,2.566M746.072,100.1a.131.131,0,0,0-.131.131v9.3a.132.132,0,0,0,.131.131h9.784a.132.132,0,0,0,.131-.131v-9.3a.131.131,0,0,0-.131-.131Z" transform="translate(-717.689 -82.256)"/>
        <path id="Trazado_994251" data-name="Trazado 994251" d="M780.2,137.045h-1.431a1.217,1.217,0,1,1,0-2.435H780.2a1.217,1.217,0,1,1,0,2.435" transform="translate(-746.206 -113.206)"/>
        <path id="Trazado_994252" data-name="Trazado 994252" d="M767.3,18.926a1.218,1.218,0,0,1-1.195-.992c-.7-3.725-1.879-8.878-3.5-12.274a.863.863,0,0,0-1.556,0A37.02,37.02,0,0,0,758.87,12a1.217,1.217,0,0,1-2.355-.619,39.364,39.364,0,0,1,2.338-6.768,3.3,3.3,0,0,1,5.949,0c1.735,3.633,2.967,9,3.7,12.872a1.218,1.218,0,0,1-1.2,1.443" transform="translate(-728.553 -2.737)"/>
        <path id="Trazado_994253" data-name="Trazado 994253" d="M673.738,45.044a1.215,1.215,0,0,1-.97-.481c-2.955-3.893-5-9.226-6.192-13.014a3.3,3.3,0,0,1,4.963-3.741,38.6,38.6,0,0,1,11.549,11.48,1.217,1.217,0,1,1-2.1,1.225A36.892,36.892,0,0,0,670.2,29.841a.845.845,0,0,0-1,.033.825.825,0,0,0-.3.944c1.135,3.6,3.065,8.659,5.809,12.273a1.217,1.217,0,0,1-.969,1.953" transform="translate(-653.114 -23.276)"/>
        <path id="Trazado_994254" data-name="Trazado 994254" d="M818.29,45.044a1.217,1.217,0,0,1-.969-1.953c2.744-3.614,4.674-8.669,5.809-12.274a.825.825,0,0,0-.3-.943.844.844,0,0,0-1-.033,36.888,36.888,0,0,0-10.785,10.673,1.217,1.217,0,0,1-2.1-1.226,38.6,38.6,0,0,1,11.549-11.48,3.3,3.3,0,0,1,4.963,3.741c-1.194,3.788-3.237,9.122-6.192,13.014a1.215,1.215,0,0,1-.97.481" transform="translate(-772.364 -23.276)"/>
        <path id="Trazado_994255" data-name="Trazado 994255" d="M768.566,385.9a4.052,4.052,0,0,1-4.048-4.048v-5.312a4.048,4.048,0,1,1,8.1,0v5.312a4.052,4.052,0,0,1-4.047,4.048m0-10.972a1.615,1.615,0,0,0-1.613,1.613v5.312a1.613,1.613,0,0,0,3.226,0v-5.312a1.615,1.615,0,0,0-1.613-1.613" transform="translate(-735.291 -312.481)"/>
        <path id="Trazado_994256" data-name="Trazado 994256" d="M588.481,395.577a3.958,3.958,0,0,1-.671-.057,4.016,4.016,0,0,1-3.364-3.978v-8.869a6.457,6.457,0,0,1,5.374-6.379l21.966-3.788a1.217,1.217,0,1,1,.414,2.4l-21.967,3.788a4.029,4.029,0,0,0-3.352,3.98v8.869a1.592,1.592,0,0,0,1.277,1.567l26.051-17.58a1.217,1.217,0,0,1,1.362,2.018l-26.409,17.822a1.217,1.217,0,0,1-.681.208" transform="translate(-584.446 -312.474)"/>
        <path id="Trazado_994257" data-name="Trazado 994257" d="M827.022,395.581a1.218,1.218,0,0,1-.681-.208l-26.409-17.822a1.217,1.217,0,0,1,1.362-2.018l26.052,17.581a1.6,1.6,0,0,0,1.277-1.568v-8.869a4.027,4.027,0,0,0-3.351-3.979L803.3,374.91a1.217,1.217,0,0,1,.413-2.4l21.967,3.788a6.456,6.456,0,0,1,5.373,6.378v8.869a4.04,4.04,0,0,1-4.035,4.035" transform="translate(-764.508 -312.478)"/>
        <path id="Trazado_994258" data-name="Trazado 994258" d="M721.2,466.429a1.217,1.217,0,1,1,.237-2.41,1.224,1.224,0,0,1,.438.182,1.186,1.186,0,0,1,.185.151,1.232,1.232,0,0,1,.263.394,1.277,1.277,0,0,1,.07.229,1.162,1.162,0,0,1,.024.237,1.178,1.178,0,0,1-.024.239,1.223,1.223,0,0,1-.07.227,1.189,1.189,0,0,1-.112.211,1.093,1.093,0,0,1-.151.183,1.11,1.11,0,0,1-.185.153,1.229,1.229,0,0,1-.209.112,1.193,1.193,0,0,1-.466.092" transform="translate(-697.987 -389.129)"/>
        <path id="Trazado_994259" data-name="Trazado 994259" d="M748.174,473.621a1.191,1.191,0,0,1-.239-.024,1.23,1.23,0,0,1-.437-.182,1.2,1.2,0,0,1-.187-.151,1.4,1.4,0,0,1-.151-.185,1.247,1.247,0,0,1-.112-.211,1.221,1.221,0,0,1-.068-.227,1.173,1.173,0,0,1,0-.476,1.223,1.223,0,0,1,.068-.227,1.31,1.31,0,0,1,.112-.211,1.4,1.4,0,0,1,.151-.185,1.215,1.215,0,0,1,.187-.151,1.223,1.223,0,0,1,.437-.182,1.229,1.229,0,0,1,1.1.333,1.219,1.219,0,0,1,.263.4,1.11,1.11,0,0,1,.07.227,1.173,1.173,0,0,1,0,.476,1.109,1.109,0,0,1-.07.227,1.143,1.143,0,0,1-.112.211,1.189,1.189,0,0,1-.151.185,1.23,1.23,0,0,1-.86.357" transform="translate(-720.58 -395.152)"/>
        <path id="Trazado_994260" data-name="Trazado 994260" d="M845.144,466.429a1.288,1.288,0,0,1-.237-.023,1.222,1.222,0,0,1-.438-.182,1.115,1.115,0,0,1-.185-.153,1.188,1.188,0,0,1-.153-.183,1.316,1.316,0,0,1-.112-.211,1.218,1.218,0,0,1-.068-.227,1.178,1.178,0,0,1-.024-.239,1.162,1.162,0,0,1,.024-.237,1.271,1.271,0,0,1,.068-.229,1.3,1.3,0,0,1,.112-.209,1.283,1.283,0,0,1,.153-.185,1.191,1.191,0,0,1,.185-.151,1.217,1.217,0,0,1,1.892,1.011,1.219,1.219,0,0,1-1.217,1.217" transform="translate(-801.811 -389.129)"/>
        <path id="Trazado_994261" data-name="Trazado 994261" d="M818.174,473.621a1.189,1.189,0,0,1-.238-.024,1.283,1.283,0,0,1-.227-.07,1.233,1.233,0,0,1-.209-.112,1.174,1.174,0,0,1-.185-.151,1.29,1.29,0,0,1-.153-.185,1.256,1.256,0,0,1-.112-.211,1.216,1.216,0,0,1-.068-.227,1.173,1.173,0,0,1,0-.476,1.218,1.218,0,0,1,.068-.227,1.32,1.32,0,0,1,.112-.211,1.291,1.291,0,0,1,.153-.185,1.193,1.193,0,0,1,.185-.151,1.247,1.247,0,0,1,.209-.112,1.275,1.275,0,0,1,.227-.07,1.229,1.229,0,0,1,1.1.333,1.291,1.291,0,0,1,.153.185,1.31,1.31,0,0,1,.112.211,1.218,1.218,0,0,1,.068.227,1.173,1.173,0,0,1,0,.476,1.217,1.217,0,0,1-.068.227,1.247,1.247,0,0,1-.112.211,1.29,1.29,0,0,1-.153.185,1.229,1.229,0,0,1-.86.357" transform="translate(-779.218 -395.152)"/>
      </g>
    </g>
  </g>
</svg>
